<svg width="34" height="34" viewBox="0 0 34 34" fill="none" xmlns="http://www.w3.org/2000/svg">
<path opacity="0.15" d="M25.4434 31.365C25.4434 31.6881 24.2851 31.998 22.2235 32.2265C20.1618 32.455 17.3656 32.5833 14.45 32.5833C11.5344 32.5833 8.73821 32.455 6.67657 32.2265C4.61492 31.998 3.45669 31.6881 3.45669 31.365C3.45669 31.0419 4.61492 30.732 6.67657 30.5035C8.73821 30.275 11.5344 30.1467 14.45 30.1467C17.3656 30.1467 20.1618 30.275 22.2235 30.5035C24.2851 30.732 25.4434 31.0419 25.4434 31.365Z" fill="#45413C"/>
<path d="M24.5316 19.0825L10.6965 22.4995L12.0635 28.0351L25.8994 24.6189L24.5316 19.0825Z" fill="#F0F0F0"/>
<path d="M24.521 19.0804L10.6851 22.4967L11.1859 24.5253L25.0225 21.1091L24.521 19.0804Z" fill="white"/>
<path d="M24.5316 19.0825L10.6965 22.4995L12.0635 28.0351L25.8994 24.6189L24.5316 19.0825Z" stroke="#45413C" stroke-width="0.596491" stroke-linecap="round" stroke-linejoin="round"/>
<path d="M10.6903 22.4981L2.39002 24.548C2.28378 24.5713 2.18329 24.6157 2.09447 24.6785C2.00564 24.7412 1.93029 24.8211 1.87286 24.9135C1.81542 25.0059 1.77706 25.1088 1.76004 25.2162C1.74302 25.3236 1.74769 25.4334 1.77377 25.539L2.74985 29.4929C2.80161 29.7026 2.93456 29.8832 3.11947 29.995C3.30439 30.1067 3.5261 30.1404 3.73585 30.0886L12.0566 28.0344L10.6988 22.5328L10.6903 22.4981Z" fill="#F0D5A8"/>
<path d="M10.6877 22.5009L2.38672 24.5508C2.17711 24.6027 1.99669 24.7358 1.88511 24.9207C1.77354 25.1056 1.73995 25.3272 1.79172 25.5368L1.97802 26.2933C1.99368 26.3565 2.02165 26.416 2.06032 26.4684C2.09898 26.5209 2.1476 26.5651 2.20337 26.5987C2.25915 26.6323 2.32101 26.6546 2.3854 26.6643C2.4498 26.674 2.51548 26.671 2.57868 26.6553L11.1885 24.5303L10.6877 22.5009Z" fill="#F7E5C6"/>
<path d="M10.6903 22.4981L2.39002 24.548C2.28378 24.5713 2.18329 24.6157 2.09447 24.6785C2.00564 24.7412 1.93029 24.8211 1.87285 24.9135C1.81542 25.0059 1.77706 25.1088 1.76004 25.2162C1.74302 25.3236 1.74769 25.4334 1.77377 25.539L2.74985 29.4929C2.80161 29.7026 2.93456 29.8832 3.11947 29.995C3.30438 30.1067 3.5261 30.1404 3.73585 30.0886L12.0566 28.0344L10.6988 22.5328L10.6903 22.4981Z" stroke="#45413C" stroke-width="0.596491" stroke-linecap="round" stroke-linejoin="round"/>
<path d="M29.4171 23.5733L29.9271 22.2913C29.9476 22.2411 29.9577 22.1874 29.957 22.1332C29.9563 22.0791 29.9446 22.0257 29.9228 21.9761C29.901 21.9265 29.8695 21.8819 29.83 21.8447C29.7906 21.8076 29.7441 21.7788 29.6933 21.76L29.0417 21.5192C28.9511 21.4856 28.8756 21.4207 28.8288 21.3362C28.7821 21.2518 28.7671 21.1533 28.7867 21.0588L28.9708 20.1733C28.9826 20.1042 29.0147 20.0401 29.0629 19.9892L29.7004 19.2808C29.7628 19.2078 29.7971 19.1148 29.7971 19.0188C29.7971 18.9227 29.7628 18.8298 29.7004 18.7567L29.2188 18.1758C29.1704 18.1162 29.1062 18.0713 29.0336 18.0462C28.961 18.0212 28.8828 18.017 28.8079 18.0342L25.67 18.8133L27.0796 24.3242L29.1338 23.8142C29.1968 23.7997 29.2555 23.7702 29.3048 23.7283C29.3541 23.6864 29.3926 23.6333 29.4171 23.5733Z" fill="#BDBEC0" stroke="#45413C" stroke-width="0.596491" stroke-linecap="round" stroke-linejoin="round"/>
<path d="M24.5293 19.0825L26.0168 18.7142C26.0774 18.7007 26.1403 18.7007 26.201 18.7142L26.9943 18.8913L27.3839 20.4709L26.6755 21.0659L27.2918 22.0363C27.3353 22.1139 27.355 22.2026 27.3485 22.2913L27.2776 23.1838C27.2703 23.2599 27.2852 23.3364 27.3203 23.4043C27.3555 23.4722 27.4096 23.5284 27.476 23.5663L28.248 24.0338L25.8751 24.6146L24.5293 19.0825Z" fill="#FF6242" stroke="#45413C" stroke-width="0.596491" stroke-linecap="round" stroke-linejoin="round"/>
<path d="M30.7705 8.65583C30.7705 9.10294 30.5929 9.53174 30.2767 9.8479C29.9606 10.1641 29.5318 10.3417 29.0847 10.3417C28.6376 10.3417 28.2088 10.1641 27.8926 9.8479C27.5765 9.53174 27.3988 9.10294 27.3988 8.65583C27.3988 8.20872 27.5765 7.77992 27.8926 7.46377C28.2088 7.14761 28.6376 6.97 29.0847 6.97C29.5318 6.97 29.9606 7.14761 30.2767 7.46377C30.5929 7.77992 30.7705 8.20872 30.7705 8.65583ZM26.5843 13.7133C26.5843 13.9613 26.6578 14.2037 26.7956 14.4099C26.9333 14.6161 27.1291 14.7768 27.3582 14.8716C27.5873 14.9665 27.8394 14.9914 28.0826 14.943C28.3258 14.8946 28.5492 14.7752 28.7245 14.5999C28.8999 14.4245 29.0193 14.2011 29.0677 13.9579C29.116 13.7147 29.0912 13.4626 28.9963 13.2335C28.9014 13.0044 28.7407 12.8086 28.5346 12.6709C28.3284 12.5331 28.086 12.4596 27.838 12.4596C27.5055 12.4596 27.1866 12.5917 26.9515 12.8268C26.7163 13.0619 26.5843 13.3808 26.5843 13.7133ZM22.8655 5.04333C22.5931 4.62128 22.45 4.12886 22.4536 3.62656C22.4572 3.12427 22.6075 2.63397 22.886 2.21591C23.1644 1.79785 23.559 1.47023 24.021 1.2733C24.4831 1.07637 24.9927 1.01871 25.4871 1.10741C25.9815 1.1961 26.4393 1.42728 26.8041 1.77255C27.169 2.11782 27.425 2.56214 27.5408 3.05093C27.6566 3.53971 27.627 4.05167 27.4559 4.52391C27.2847 4.99616 26.9793 5.40811 26.5772 5.70917C26.186 6.00233 25.7189 6.1769 25.2313 6.21208C25.2066 6.39246 25.1463 6.56612 25.0539 6.72298C24.9615 6.87985 24.8388 7.01678 24.693 7.12583C24.3948 7.3454 24.0224 7.43943 23.6556 7.3878C23.2889 7.33616 22.957 7.14296 22.7309 6.84958C22.5389 6.58017 22.4473 6.25205 22.4718 5.92214C22.4964 5.59222 22.6357 5.28132 22.8655 5.04333Z" fill="#F0F0F0" stroke="#45413C" stroke-width="0.596491" stroke-linecap="round" stroke-linejoin="round"/>
</svg>
