<svg width="28" height="27" viewBox="0 0 28 27" fill="none" xmlns="http://www.w3.org/2000/svg">
<path d="M8.33333 25.75H19.6667M14 25.75V20.0833M14 20.0833C10.088 20.0833 6.91667 16.912 6.91667 13V4.5M14 20.0833C17.912 20.0833 21.0833 16.912 21.0833 13V4.5M21.0833 4.5C21.0833 2.93519 19.8148 1.66666 18.25 1.66666H9.75C8.18519 1.66666 6.91667 2.93519 6.91667 4.5M21.0833 4.5H23.2083C25.1643 4.5 26.75 6.08566 26.75 8.04166C26.75 9.99767 25.1643 11.5833 23.2083 11.5833H21.0833M6.91667 4.5H4.79167C2.83566 4.5 1.25 6.08566 1.25 8.04166C1.25 9.99767 2.83566 11.5833 4.79167 11.5833H6.91667" stroke="white" stroke-width="2" stroke-linecap="round" stroke-linejoin="round"/>
</svg>
