<svg width="225" height="225" viewBox="0 0 225 225" fill="none" xmlns="http://www.w3.org/2000/svg">
<path d="M176.398 174.314H192.212V169.282H176.398V174.314Z" fill="#EBEBEB"/>
<path d="M166.836 64.2529H151.022V69.2858H166.836V64.2529Z" fill="#EBEBEB"/>
<path d="M185.219 180.656C187.845 180.616 194.578 180.503 197.115 180.472H201.032L200.825 180.674V175.641L201.05 175.866C198.424 175.866 191.727 175.835 189.19 175.799L185.237 175.749L185.345 175.641L185.237 180.674L185.219 180.656ZM185.219 180.656L185.115 175.623V175.52H185.223C187.198 175.493 191.16 175.448 193.13 175.43L201.037 175.398H201.262V175.623V180.656V180.863H201.059H197.07C194.551 180.836 187.85 180.719 185.246 180.674L185.219 180.656Z" fill="#EBEBEB"/>
<path d="M113.71 119.497C111.079 119.542 104.436 119.655 101.886 119.682H97.9012H97.6943V119.475V114.442V114.24H97.9237L105.826 114.271C107.796 114.271 111.767 114.33 113.733 114.357H113.845V114.46L113.737 119.493L113.71 119.497ZM113.71 119.497L113.607 114.465L113.71 114.573C111.74 114.6 107.778 114.645 105.804 114.658L97.9012 114.69L98.1216 114.465V119.497L97.9192 119.295H101.837C104.342 119.322 111.138 119.435 113.728 119.479L113.71 119.497Z" fill="#EBEBEB"/>
<path d="M104.891 125.844C102.255 125.889 95.6125 126.001 93.0668 126.028L89.0774 126.051H88.875V125.844L88.8525 120.811V120.586H89.0774L96.9843 120.617C98.9542 120.617 102.921 120.676 104.891 120.703H104.999V120.806L104.891 125.839V125.844ZM104.891 125.844L104.783 120.811L104.891 120.919C102.921 120.946 98.9587 120.986 96.9843 121.004L89.0774 121.036L89.3023 120.811V125.844L89.0954 125.641H93.0129C95.5225 125.668 102.318 125.781 104.909 125.826L104.891 125.844Z" fill="#EBEBEB"/>
<path d="M96.1067 114.465H80.293V119.498H96.1067V114.465Z" fill="#EBEBEB"/>
<path d="M23.9695 180.661H39.7832V175.628H23.9695V180.661Z" fill="#EBEBEB"/>
<path d="M32.7888 25.2451L48.6025 25.2451V20.2123H32.7888V25.2451Z" fill="#EBEBEB"/>
<path d="M23.9693 31.5868C26.5959 31.5418 33.3289 31.4293 35.8655 31.4024H39.783L39.5761 31.6048V26.5719L39.8009 26.7968C37.1743 26.7968 30.4774 26.7653 27.9407 26.7293L23.9873 26.6798L24.0772 26.5359L23.9693 31.5688V31.5868ZM23.9693 31.5868L23.8613 26.5359V26.4325H23.9693C25.9437 26.4055 29.9017 26.3605 31.8761 26.3425L39.783 26.311H40.0078V26.5359V31.5688V31.7757H39.8054H35.816C33.2974 31.7442 26.5914 31.6317 23.9918 31.5868H23.9693Z" fill="#EBEBEB"/>
<path d="M176.399 25.2406C179.026 25.1957 185.759 25.0877 188.295 25.0562H192.213L192.006 25.2586V20.2258L192.231 20.4507L184.324 20.4192C182.354 20.4192 178.387 20.3607 176.417 20.3337L176.525 20.2258L176.417 25.2586L176.399 25.2406ZM176.399 25.2406L176.291 20.2078V20.1043H176.399C178.373 20.0774 182.336 20.0324 184.306 20.0144L192.213 19.9829H192.438V20.2078L192.415 25.2406V25.4475H192.213H188.223C185.705 25.4161 179.003 25.3036 176.399 25.2586V25.2406Z" fill="#EBEBEB"/>
<path d="M178.301 69.6142H101.644V18.3682H178.301V69.6142ZM102.093 69.1645H177.851V18.8179H102.093V69.1645Z" fill="#EBEBEB"/>
<path d="M105.385 20.7654C105.385 20.9193 105.34 21.0697 105.254 21.1977C105.169 21.3256 105.047 21.4254 104.905 21.4843C104.763 21.5431 104.606 21.5586 104.455 21.5285C104.304 21.4985 104.166 21.4244 104.057 21.3156C103.948 21.2068 103.874 21.0681 103.844 20.9172C103.814 20.7663 103.829 20.6098 103.888 20.4676C103.947 20.3255 104.047 20.2039 104.175 20.1184C104.303 20.0329 104.453 19.9873 104.607 19.9873C104.813 19.9885 105.01 20.0708 105.156 20.2165C105.302 20.3622 105.384 20.5594 105.385 20.7654Z" fill="#A6A6A6"/>
<path d="M108.561 20.7654C108.561 20.9193 108.515 21.0697 108.43 21.1977C108.344 21.3256 108.223 21.4254 108.081 21.4843C107.939 21.5431 107.782 21.5586 107.631 21.5285C107.48 21.4985 107.342 21.4244 107.233 21.3156C107.124 21.2068 107.05 21.0681 107.02 20.9172C106.99 20.7663 107.005 20.6098 107.064 20.4676C107.123 20.3255 107.223 20.2039 107.351 20.1184C107.479 20.0329 107.629 19.9873 107.783 19.9873C107.989 19.9885 108.186 20.0708 108.332 20.2165C108.478 20.3622 108.56 20.5594 108.561 20.7654Z" fill="#EBEBEB"/>
<path d="M111.736 20.7654C111.736 20.9193 111.69 21.0697 111.605 21.1977C111.519 21.3256 111.398 21.4254 111.256 21.4843C111.113 21.5431 110.957 21.5586 110.806 21.5285C110.655 21.4985 110.516 21.4244 110.408 21.3156C110.299 21.2068 110.225 21.0681 110.195 20.9172C110.165 20.7663 110.18 20.6098 110.239 20.4676C110.298 20.3255 110.398 20.2039 110.525 20.1184C110.653 20.0329 110.804 19.9873 110.958 19.9873C111.164 19.9873 111.362 20.0693 111.508 20.2152C111.654 20.3611 111.736 20.559 111.736 20.7654Z" fill="#08C0D8"/>
<path d="M178.076 22.875H101.868V23.3248H178.076V22.875Z" fill="#EBEBEB"/>
<path d="M54.8683 33.6558H24.4688V70.5319H54.8683V33.6558Z" fill="#EBEBEB"/>
<path d="M51.4005 37.02H27.9453V67.1632H51.4005V37.02Z" fill="white"/>
<path d="M28.8583 37.02H27.9453V67.1632H28.8583V37.02Z" fill="#C7C7C7"/>
<path d="M55.7851 33.6558H54.8721V70.5319H55.7851V33.6558Z" fill="#C7C7C7"/>
<path d="M40.1925 60.4658H45.7246V43.991H40.1925V60.4658Z" fill="#EBEBEB"/>
<path d="M48.3645 49.4737H33.167V40.9282H48.3645V49.4737ZM33.6168 49.024H47.9147V41.378H33.6168V49.024Z" fill="#EBEBEB"/>
<path d="M72.8585 124.535H42.459V161.411H72.8585V124.535Z" fill="#EBEBEB"/>
<path d="M69.3907 127.899H45.9355V158.042H69.3907V127.899Z" fill="white"/>
<path d="M46.8486 127.899H45.9355V158.042H46.8486V127.899Z" fill="#C7C7C7"/>
<path d="M73.7763 124.535H72.8633V161.411H73.7763V124.535Z" fill="#C7C7C7"/>
<path d="M59.3251 134.871H53.793V151.345H59.3251V134.871Z" fill="#EBEBEB"/>
<path d="M66.3547 140.353H51.1572V131.83H66.3547V140.353ZM51.607 139.903H65.905V132.28H51.607V139.903Z" fill="#EBEBEB"/>
<path d="M63.8634 79.2617H33.4639V116.138H63.8634V79.2617Z" fill="#EBEBEB"/>
<path d="M60.3956 82.626H36.9404V112.769H60.3956V82.626Z" fill="white"/>
<path d="M37.8534 82.626H36.9404V112.769H37.8534V82.626Z" fill="#C7C7C7"/>
<path d="M64.7812 79.2617H63.8682V116.138H64.7812V79.2617Z" fill="#C7C7C7"/>
<path d="M51.1305 90.4204H46.3945V102.398H51.1305V90.4204Z" fill="#EBEBEB"/>
<path d="M56.348 106.18H43.1699V97.4727H56.348V106.18ZM43.6197 105.73H55.8982V97.9224H43.6197V105.73Z" fill="#DBDBDB"/>
<path d="M20.6357 200.073C79.4918 199.794 145.508 199.794 204.364 200.073C145.508 200.347 79.4918 200.347 20.6357 200.073Z" fill="#263238"/>
<path d="M180.802 157.516C187.827 164.393 189.005 175.034 187.526 184.358C187.485 184.569 187.161 184.511 187.161 184.313C187.161 182.19 187.224 180.085 187.22 177.989C187.179 177.895 187.148 177.805 187.107 177.71C185.277 176.361 183.59 174.868 182.547 172.803C181.373 170.496 180.91 167.892 180.015 165.486C179.929 165.252 180.176 165.319 180.338 165.441C184.611 168.589 185.974 171.985 187.197 176.519C187.173 174.147 186.925 171.782 186.455 169.457C185.533 165.157 183.703 160.912 180.608 157.7C180.5 157.579 180.68 157.417 180.802 157.516Z" fill="#263238"/>
<path d="M179.48 158.317C178.27 158.357 177.514 160.291 176.574 160.853C176.476 160.938 176.36 161 176.236 161.036C176.111 161.071 175.98 161.08 175.852 161.06C175.724 161.04 175.601 160.993 175.493 160.922C175.385 160.85 175.293 160.756 175.225 160.646C174.289 159.342 175.571 157.732 176.777 156.837C175.913 157.188 175.202 157.813 174.271 157.988C174.153 158.028 174.027 158.041 173.902 158.027C173.778 158.013 173.658 157.973 173.551 157.908C173.444 157.844 173.352 157.757 173.281 157.653C173.211 157.55 173.163 157.433 173.142 157.309C172.733 155.533 174.942 154.746 176.489 154.705C175.747 154.192 173.624 152.794 174.753 152.101C175.882 151.408 178.387 153.414 179.201 154.075C180.397 155.042 181.818 156.491 181.872 158.006C181.958 159.778 180.415 158.69 179.48 158.317Z" fill="#08C0D8"/>
<path opacity="0.1" d="M179.48 158.317C178.27 158.357 177.514 160.291 176.574 160.853C176.476 160.938 176.36 161 176.236 161.036C176.111 161.071 175.98 161.08 175.852 161.06C175.724 161.04 175.601 160.993 175.493 160.922C175.385 160.85 175.293 160.756 175.225 160.646C174.289 159.342 175.571 157.732 176.777 156.837C175.913 157.188 175.202 157.813 174.271 157.988C174.153 158.028 174.027 158.041 173.902 158.027C173.778 158.013 173.658 157.973 173.551 157.908C173.444 157.844 173.352 157.757 173.281 157.653C173.211 157.55 173.163 157.433 173.142 157.309C172.733 155.533 174.942 154.746 176.489 154.705C175.747 154.192 173.624 152.794 174.753 152.101C175.882 151.408 178.387 153.414 179.201 154.075C180.397 155.042 181.818 156.491 181.872 158.006C181.958 159.778 180.415 158.69 179.48 158.317Z" fill="black"/>
<path d="M179.831 158.613C178.284 157.912 175.333 158.924 175.063 158.339C174.551 157.147 176.925 156.333 178.212 156.176C177.029 155.856 174.771 155.344 174.838 154.21C174.924 152.82 178.306 154.012 180.02 155.326C182.174 156.981 182.161 158.573 181.819 158.892C181.315 159.333 180.087 158.73 179.831 158.613Z" fill="#08C0D8"/>
<path d="M196.8 156.837C189.518 163.439 187.935 174.031 189.06 183.4C189.091 183.611 189.419 183.566 189.428 183.368C189.509 181.25 189.523 179.145 189.613 177.049L189.73 176.775C191.614 175.511 193.355 174.076 194.479 172.048C195.739 169.799 196.301 167.199 197.286 164.852C197.38 164.622 197.133 164.681 196.966 164.793C192.577 167.78 191.084 171.117 189.685 175.587C189.802 173.219 190.141 170.867 190.697 168.562C191.785 164.298 193.773 160.111 196.993 157.035C197.006 157.022 197.017 157.007 197.024 156.99C197.031 156.973 197.035 156.955 197.035 156.937C197.035 156.919 197.032 156.901 197.025 156.884C197.018 156.867 197.008 156.852 196.996 156.839C196.983 156.826 196.968 156.816 196.951 156.809C196.934 156.801 196.917 156.798 196.898 156.797C196.88 156.797 196.862 156.801 196.845 156.807C196.828 156.814 196.813 156.824 196.8 156.837Z" fill="#263238"/>
<path d="M198.091 157.687C199.296 157.773 199.98 159.734 200.902 160.332C200.997 160.419 201.11 160.484 201.232 160.523C201.355 160.563 201.484 160.576 201.612 160.561C201.74 160.546 201.863 160.504 201.974 160.437C202.084 160.37 202.178 160.281 202.251 160.174C203.232 158.906 202.013 157.251 200.843 156.306C201.693 156.693 202.381 157.345 203.303 157.557C203.421 157.596 203.545 157.61 203.668 157.599C203.792 157.588 203.911 157.551 204.02 157.492C204.128 157.432 204.223 157.351 204.299 157.253C204.375 157.155 204.429 157.043 204.459 156.923C204.936 155.159 202.741 154.287 201.212 154.192C201.972 153.707 204.149 152.393 203.047 151.656C201.945 150.918 199.364 152.825 198.527 153.455C197.295 154.377 195.828 155.771 195.707 157.287C195.559 159.05 197.146 158.02 198.091 157.687Z" fill="#08C0D8"/>
<path opacity="0.1" d="M198.091 157.687C199.296 157.773 199.98 159.734 200.902 160.332C200.997 160.419 201.11 160.484 201.232 160.523C201.355 160.563 201.484 160.576 201.612 160.561C201.74 160.546 201.863 160.504 201.974 160.437C202.084 160.37 202.178 160.281 202.251 160.174C203.232 158.906 202.013 157.251 200.843 156.306C201.693 156.693 202.381 157.345 203.303 157.557C203.421 157.596 203.545 157.61 203.668 157.599C203.792 157.588 203.911 157.551 204.02 157.492C204.128 157.432 204.223 157.351 204.299 157.253C204.375 157.155 204.429 157.043 204.459 156.923C204.936 155.159 202.741 154.287 201.212 154.192C201.972 153.707 204.149 152.393 203.047 151.656C201.945 150.918 199.364 152.825 198.527 153.455C197.295 154.377 195.828 155.771 195.707 157.287C195.559 159.05 197.146 158.02 198.091 157.687Z" fill="black"/>
<path d="M197.731 157.97C199.301 157.327 202.228 158.452 202.503 157.876C203.061 156.707 200.704 155.798 199.449 155.591C200.636 155.317 202.917 154.894 202.89 153.756C202.858 152.366 199.431 153.432 197.672 154.678C195.455 156.248 195.424 157.826 195.752 158.173C196.224 158.632 197.47 158.078 197.731 157.97Z" fill="#08C0D8"/>
<path d="M189.357 174.283C188.867 177.816 188.115 181.306 187.108 184.727C187.088 184.788 187.047 184.84 186.991 184.873C186.936 184.905 186.87 184.916 186.807 184.903C186.744 184.89 186.688 184.855 186.65 184.803C186.612 184.751 186.594 184.688 186.6 184.624C187.076 181.408 187.949 178.246 188.426 175.03C188.938 171.772 189.118 168.47 188.961 165.176C188.655 159.752 187.162 153.981 183.64 149.735C183.564 149.636 183.726 149.492 183.807 149.587C190.895 157.849 189.766 167.978 189.761 168.886C190.764 165.468 191.799 161.546 195.608 158.065C195.775 157.912 195.901 157.984 195.874 158.24C195.195 164.582 193.431 167.897 189.752 171.284C189.647 172.294 189.516 173.294 189.357 174.283Z" fill="#263238"/>
<path d="M183.591 150.671C182.313 150.104 180.555 151.728 179.295 151.836C179.152 151.87 179.002 151.873 178.857 151.845C178.712 151.817 178.575 151.758 178.454 151.673C178.334 151.588 178.232 151.479 178.157 151.351C178.082 151.224 178.034 151.083 178.018 150.936C177.703 149.137 179.844 148.093 181.544 147.788C180.474 147.725 179.417 148.008 178.364 147.725C178.222 147.705 178.085 147.655 177.963 147.578C177.841 147.501 177.737 147.399 177.658 147.278C177.579 147.157 177.527 147.021 177.506 146.879C177.484 146.736 177.493 146.591 177.532 146.452C178.005 144.405 180.712 144.707 182.318 145.435C181.81 144.536 180.307 142.008 181.828 141.86C183.348 141.711 184.94 145.049 185.448 146.146C186.204 147.752 186.95 149.974 186.244 151.57C185.426 153.45 184.369 151.539 183.591 150.671Z" fill="#08C0D8"/>
<path opacity="0.1" d="M183.591 150.671C182.313 150.104 180.555 151.728 179.295 151.836C179.152 151.87 179.002 151.873 178.857 151.845C178.712 151.817 178.575 151.758 178.454 151.673C178.334 151.588 178.232 151.479 178.157 151.351C178.082 151.224 178.034 151.083 178.018 150.936C177.703 149.137 179.844 148.093 181.544 147.788C180.474 147.725 179.417 148.008 178.364 147.725C178.222 147.705 178.085 147.655 177.963 147.578C177.841 147.501 177.737 147.399 177.658 147.278C177.579 147.157 177.527 147.021 177.506 146.879C177.484 146.736 177.493 146.591 177.532 146.452C178.005 144.405 180.712 144.707 182.318 145.435C181.81 144.536 180.307 142.008 181.828 141.86C183.348 141.711 184.94 145.049 185.448 146.146C186.204 147.752 186.95 149.974 186.244 151.57C185.426 153.45 184.369 151.539 183.591 150.671Z" fill="black"/>
<path d="M183.802 151.17C182.552 149.663 178.963 149.218 178.994 148.471C179.066 146.978 181.936 147.324 183.344 147.805C182.282 146.879 180.195 145.215 180.838 144.072C181.625 142.674 184.531 145.615 185.646 147.837C187.054 150.639 186.236 152.285 185.705 152.438C184.976 152.658 184.014 151.422 183.802 151.17Z" fill="#08C0D8"/>
<path d="M194.016 176.19L197.142 200.073H178.126C178.517 197.954 182.057 176.163 182.057 176.163L194.016 176.19Z" fill="#08C0D8"/>
<path d="M191.119 143.061H109.132V26.7202H200.02V134.151L191.119 143.061Z" fill="white"/>
<path d="M191.119 143.061C191.079 143.061 109.123 143.097 109.082 143.11C109.042 143.124 109.042 26.7428 109.02 26.7204V26.6079H109.132C109.177 26.6079 200.038 26.6709 200.083 26.6574C200.128 26.6439 200.002 134.151 200.025 134.151C200.047 134.151 191.119 143.056 191.119 143.061ZM191.119 143.061L200.011 134.151L199.957 26.7204C200.353 26.8553 109.047 26.8013 109.132 26.8328L109.244 26.7204L109.181 143.061C108.876 142.944 191.187 143.092 191.119 143.061Z" fill="#263238"/>
<path d="M200.02 26.7202H109.132V29.963H200.02V26.7202Z" fill="#08C0D8"/>
<path d="M111.515 28.3348C111.515 28.4434 111.483 28.5495 111.423 28.6397C111.363 28.7299 111.277 28.8003 111.177 28.8418C111.076 28.8833 110.966 28.8942 110.86 28.873C110.753 28.8518 110.655 28.7996 110.579 28.7228C110.502 28.6461 110.45 28.5483 110.429 28.4419C110.407 28.3355 110.418 28.2251 110.46 28.1249C110.501 28.0246 110.572 27.9389 110.662 27.8786C110.752 27.8183 110.858 27.7861 110.967 27.7861C111.112 27.7861 111.252 27.8439 111.355 27.9468C111.458 28.0498 111.515 28.1893 111.515 28.3348Z" fill="#C7C7C7"/>
<path d="M113.751 28.3349C113.751 28.4434 113.719 28.5495 113.658 28.6397C113.598 28.7299 113.512 28.8003 113.412 28.8418C113.312 28.8833 113.201 28.8942 113.095 28.873C112.989 28.8519 112.891 28.7996 112.814 28.7229C112.737 28.6461 112.685 28.5484 112.664 28.4419C112.643 28.3355 112.654 28.2251 112.695 28.1249C112.737 28.0246 112.807 27.9389 112.897 27.8786C112.987 27.8183 113.094 27.7862 113.202 27.7862C113.274 27.7856 113.346 27.7993 113.413 27.8267C113.48 27.8541 113.54 27.8945 113.591 27.9455C113.642 27.9966 113.683 28.0573 113.71 28.1242C113.738 28.191 113.751 28.2626 113.751 28.3349Z" fill="white"/>
<path d="M115.991 28.3348C115.991 28.4434 115.959 28.5495 115.898 28.6397C115.838 28.7299 115.753 28.8003 115.652 28.8418C115.552 28.8833 115.442 28.8942 115.335 28.873C115.229 28.8518 115.131 28.7996 115.054 28.7228C114.978 28.6461 114.925 28.5483 114.904 28.4419C114.883 28.3355 114.894 28.2251 114.935 28.1249C114.977 28.0246 115.047 27.9389 115.137 27.8786C115.228 27.8183 115.334 27.7861 115.442 27.7861C115.514 27.7861 115.586 27.8003 115.652 27.8279C115.719 27.8555 115.779 27.8959 115.83 27.9468C115.881 27.9978 115.922 28.0583 115.949 28.1249C115.977 28.1914 115.991 28.2628 115.991 28.3348Z" fill="#455A64"/>
<path d="M144.825 39.6419H143.355L143.058 40.429C143.023 40.5135 142.956 40.581 142.872 40.6171C142.788 40.6532 142.693 40.6551 142.608 40.6224C142.565 40.6065 142.526 40.5821 142.492 40.5506C142.459 40.5192 142.432 40.4814 142.414 40.4394C142.395 40.3975 142.385 40.3522 142.385 40.3064C142.384 40.2605 142.393 40.2151 142.41 40.1726L143.759 36.606C143.787 36.5429 143.832 36.4892 143.89 36.4516C143.947 36.4141 144.014 36.3942 144.083 36.3946C144.152 36.3933 144.219 36.4128 144.276 36.4506C144.333 36.4883 144.377 36.5425 144.403 36.606L145.752 40.1726C145.768 40.2154 145.776 40.2611 145.775 40.3069C145.774 40.3528 145.764 40.398 145.745 40.4398C145.726 40.4817 145.699 40.5194 145.665 40.5507C145.632 40.582 145.592 40.6064 145.549 40.6224C145.512 40.63 145.474 40.63 145.437 40.6224C145.37 40.6237 145.304 40.6041 145.248 40.5662C145.192 40.5284 145.15 40.4741 145.127 40.411L144.825 39.6419ZM144.578 38.9762L144.088 37.6764L143.597 38.9762H144.578Z" fill="#263238"/>
<path d="M149.381 40.1414C149.409 40.2255 149.402 40.3169 149.362 40.396C149.323 40.475 149.254 40.5354 149.17 40.5642C149.125 40.5692 149.08 40.5692 149.035 40.5642C148.951 40.5644 148.868 40.541 148.797 40.4967C148.717 40.4421 148.651 40.3698 148.603 40.2853C148.511 40.0619 148.469 39.8206 148.482 39.5792C148.482 39.4887 148.457 39.4001 148.41 39.3228C148.364 39.2489 148.301 39.1872 148.226 39.1429C148.121 39.0791 148.007 39.0306 147.888 38.999H147.173V40.3123C147.173 40.3564 147.164 40.4 147.147 40.4407C147.13 40.4814 147.105 40.5183 147.074 40.5492C147.043 40.5802 147.005 40.6046 146.965 40.6211C146.924 40.6375 146.88 40.6457 146.836 40.6451C146.792 40.6457 146.748 40.6375 146.708 40.621C146.667 40.6045 146.63 40.58 146.599 40.549C146.568 40.5179 146.544 40.481 146.527 40.4404C146.511 40.3997 146.502 40.3562 146.503 40.3123V36.7367C146.502 36.6928 146.511 36.6492 146.527 36.6086C146.544 36.5679 146.568 36.531 146.599 36.5C146.63 36.4689 146.667 36.4445 146.708 36.4279C146.748 36.4114 146.792 36.4032 146.836 36.4038H147.92C148.09 36.4038 148.259 36.4375 148.416 36.5029C148.574 36.5682 148.717 36.6641 148.837 36.7848C148.958 36.9056 149.053 37.0489 149.118 37.2066C149.183 37.3643 149.216 37.5332 149.215 37.7037C149.212 37.8917 149.167 38.0767 149.084 38.2455C149 38.4142 148.881 38.5624 148.734 38.6796C148.815 38.7434 148.887 38.8192 148.945 38.9045C149.077 39.0963 149.148 39.3238 149.148 39.5567C149.132 39.6761 149.132 39.7971 149.148 39.9165C149.203 39.9309 149.253 39.9591 149.294 39.9985C149.335 40.0379 149.365 40.087 149.381 40.1414ZM148.531 37.7037C148.533 37.6214 148.517 37.5397 148.487 37.4634C148.456 37.387 148.411 37.3175 148.353 37.2589C148.295 37.2004 148.226 37.1538 148.15 37.1221C148.074 37.0903 147.993 37.074 147.911 37.074H147.164V38.3243H147.911C148.075 38.3243 148.233 38.2589 148.35 38.1425C148.466 38.0261 148.531 37.8683 148.531 37.7037Z" fill="#263238"/>
<path d="M152.835 37.074H151.873V40.3078C151.873 40.3961 151.837 40.4807 151.775 40.5431C151.713 40.6055 151.628 40.6406 151.54 40.6406C151.451 40.6406 151.367 40.6055 151.304 40.5431C151.242 40.4807 151.207 40.3961 151.207 40.3078V37.074H150.249C150.16 37.0728 150.076 37.0367 150.013 36.9736C149.951 36.9105 149.916 36.8254 149.916 36.7367C149.915 36.6928 149.924 36.6492 149.94 36.6086C149.957 36.5679 149.981 36.531 150.012 36.5C150.043 36.4689 150.08 36.4445 150.121 36.4279C150.161 36.4114 150.205 36.4032 150.249 36.4038H152.835C152.923 36.4038 153.008 36.4389 153.07 36.5013C153.133 36.5637 153.168 36.6484 153.168 36.7367C153.167 36.825 153.131 36.9095 153.069 36.9724C153.007 37.0352 152.923 37.0717 152.835 37.074Z" fill="#263238"/>
<path d="M154.212 36.7367C154.211 36.6928 154.22 36.6492 154.236 36.6086C154.253 36.5679 154.277 36.531 154.308 36.5C154.339 36.4689 154.376 36.4445 154.417 36.4279C154.457 36.4114 154.501 36.4032 154.545 36.4038C154.633 36.4038 154.719 36.4388 154.782 36.501C154.845 36.5633 154.881 36.648 154.882 36.7367V40.3078C154.881 40.3965 154.845 40.4811 154.782 40.5434C154.719 40.6057 154.633 40.6406 154.545 40.6406C154.501 40.6412 154.457 40.633 154.417 40.6165C154.376 40.6 154.339 40.5755 154.308 40.5445C154.277 40.5134 154.253 40.4765 154.236 40.4359C154.22 40.3952 154.211 40.3517 154.212 40.3078V36.7367Z" fill="#263238"/>
<path d="M155.831 38.4636C155.841 37.881 156.079 37.3256 156.495 36.9174C156.91 36.5092 157.47 36.281 158.053 36.2823C158.556 36.2713 159.049 36.4297 159.452 36.732C159.516 36.7915 159.556 36.873 159.564 36.9605C159.571 37.048 159.545 37.1351 159.492 37.2045C159.438 37.274 159.36 37.3208 159.274 37.3358C159.187 37.3507 159.098 37.3327 159.024 37.2852C158.751 37.0613 158.406 36.9418 158.053 36.9479C157.645 36.9548 157.255 37.1154 156.96 37.3977C156.676 37.6768 156.515 38.0567 156.51 38.4546C156.512 38.6511 156.552 38.8454 156.629 39.0261C156.706 39.2068 156.819 39.3703 156.96 39.5071C157.255 39.7893 157.645 39.95 158.053 39.9568C158.405 39.9616 158.749 39.8439 159.024 39.624C159.099 39.5728 159.19 39.5513 159.28 39.5638C159.37 39.5762 159.452 39.6218 159.51 39.6915C159.563 39.7642 159.587 39.8543 159.576 39.9436C159.565 40.0329 159.521 40.1148 159.452 40.1727C159.049 40.475 158.556 40.6334 158.053 40.6225C157.473 40.6262 156.916 40.4019 156.5 39.998C156.084 39.5941 155.844 39.043 155.831 38.4636Z" fill="#263238"/>
<path d="M160.689 40.3078V36.7366C160.689 36.6484 160.724 36.5637 160.786 36.5013C160.848 36.4389 160.933 36.4038 161.021 36.4038C161.11 36.4038 161.195 36.4387 161.258 36.501C161.321 36.5633 161.357 36.648 161.359 36.7366V39.9704H163C163.089 39.9728 163.173 40.0092 163.235 40.0721C163.297 40.1349 163.332 40.2194 163.333 40.3078C163.332 40.3957 163.297 40.4796 163.234 40.5418C163.172 40.604 163.088 40.6394 163 40.6406H161.021C160.977 40.6412 160.934 40.633 160.893 40.6165C160.853 40.6 160.816 40.5755 160.785 40.5444C160.754 40.5134 160.729 40.4765 160.713 40.4358C160.696 40.3952 160.688 40.3516 160.689 40.3078Z" fill="#263238"/>
<path d="M164.098 40.3078V36.7367C164.097 36.6928 164.105 36.6492 164.122 36.6086C164.138 36.5679 164.163 36.531 164.194 36.5C164.225 36.4689 164.262 36.4445 164.302 36.4279C164.343 36.4114 164.387 36.4032 164.431 36.4038H166.414C166.502 36.4038 166.587 36.4389 166.649 36.5013C166.712 36.5637 166.747 36.6484 166.747 36.7367C166.747 36.8254 166.712 36.9105 166.65 36.9736C166.587 37.0367 166.503 37.0728 166.414 37.074H164.772V38.1849H166.18C166.268 38.1861 166.352 38.2215 166.414 38.2837C166.476 38.3458 166.512 38.4298 166.513 38.5177C166.514 38.5618 166.505 38.6056 166.489 38.6465C166.472 38.6874 166.448 38.7246 166.417 38.756C166.386 38.7874 166.349 38.8123 166.309 38.8293C166.268 38.8463 166.224 38.8551 166.18 38.855H164.772V39.9705H166.414C166.502 39.9728 166.586 40.0092 166.648 40.0721C166.71 40.135 166.746 40.2194 166.747 40.3078C166.746 40.3957 166.71 40.4797 166.648 40.5418C166.586 40.604 166.502 40.6394 166.414 40.6406H164.449C164.403 40.6431 164.358 40.6363 164.316 40.6206C164.273 40.605 164.234 40.5809 164.201 40.5497C164.169 40.5186 164.142 40.4811 164.125 40.4395C164.107 40.3979 164.098 40.3531 164.098 40.3078Z" fill="#263238"/>
<path d="M170.52 38.5268C178.255 38.2254 186.045 38.2254 193.777 38.5268C186.045 38.8281 178.255 38.8281 170.52 38.5268Z" fill="#263238"/>
<path d="M115.365 38.5268C123.097 38.2254 130.887 38.2254 138.623 38.5268C130.887 38.8281 123.097 38.8281 115.365 38.5268Z" fill="#263238"/>
<path d="M193.79 43.0107H115.365V47.8457H193.79V43.0107Z" fill="#08C0D8"/>
<path d="M181.499 52.6582C185.461 52.5098 189.824 52.5098 193.787 52.6582C189.824 52.8066 185.461 52.8066 181.499 52.6582Z" fill="#263238"/>
<path d="M166.746 52.6581C170.302 52.5052 173.861 52.5052 177.423 52.6581C173.864 52.8111 170.305 52.8111 166.746 52.6581Z" fill="#263238"/>
<path d="M147.848 52.6582C152.845 52.5098 158.341 52.5098 163.333 52.6582C158.341 52.8066 152.845 52.8066 147.848 52.6582Z" fill="#263238"/>
<path d="M186.41 56.1711C188.867 56.0204 191.33 56.0204 193.786 56.1711C191.33 56.324 188.866 56.324 186.41 56.1711Z" fill="#263238"/>
<path d="M171.37 56.1707C175.643 56.0267 180.365 56.0222 184.616 56.1707C180.347 56.3191 175.643 56.3191 171.37 56.1707Z" fill="#263238"/>
<path d="M147.848 56.1707C154.846 56.0267 162.546 56.0222 169.544 56.1707C162.546 56.3191 154.846 56.3191 147.848 56.1707Z" fill="#263238"/>
<path d="M170.816 59.688C178.229 59.5396 186.378 59.5396 193.786 59.688C186.378 59.8364 178.229 59.8364 170.816 59.688Z" fill="#263238"/>
<path d="M147.848 59.688C154.144 59.5396 161.057 59.5396 167.345 59.688C161.048 59.8364 154.135 59.8364 147.848 59.688Z" fill="#263238"/>
<path d="M178.584 63.2005C183.486 63.0565 188.884 63.052 193.786 63.2005C188.884 63.3489 183.486 63.3489 178.584 63.2005Z" fill="#263238"/>
<path d="M161.583 63.2005C166.229 63.0565 171.347 63.052 175.975 63.2005C171.329 63.3489 166.211 63.3489 161.583 63.2005Z" fill="#263238"/>
<path d="M147.848 63.2005C151.572 63.0565 155.669 63.052 159.393 63.2005C155.669 63.3489 151.572 63.3489 147.848 63.2005Z" fill="#263238"/>
<path d="M147.848 66.7178C157.837 66.5693 168.825 66.5693 178.814 66.7178C168.825 66.8662 157.837 66.8617 147.848 66.7178Z" fill="#263238"/>
<path d="M184.22 73.7612C187.41 73.6083 190.599 73.6083 193.786 73.7612C190.596 73.9141 187.407 73.9141 184.22 73.7612Z" fill="#263238"/>
<path d="M165.523 73.7612C170.538 73.6128 176.061 73.6128 181.076 73.7612C176.061 73.9096 170.538 73.9051 165.523 73.7612Z" fill="#263238"/>
<path d="M147.848 73.7612C152.651 73.6128 157.931 73.6128 162.73 73.7612C157.931 73.9096 152.651 73.9051 147.848 73.7612Z" fill="#263238"/>
<path d="M173.3 77.2602C179.911 77.1118 187.18 77.1118 193.787 77.2602C187.18 77.4087 179.911 77.4087 173.3 77.2602Z" fill="#263238"/>
<path d="M157.594 77.2602C161.862 77.1118 166.553 77.1118 170.817 77.2602C166.553 77.4087 161.862 77.4087 157.594 77.2602Z" fill="#263238"/>
<path d="M147.848 77.2605C150.564 77.1098 153.286 77.1098 156.002 77.2605C153.286 77.4134 150.564 77.4134 147.848 77.2605Z" fill="#263238"/>
<path d="M183.023 80.7773C186.622 80.6244 190.209 80.6244 193.786 80.7773C190.188 80.9302 186.601 80.9302 183.023 80.7773Z" fill="#263238"/>
<path d="M167.345 80.7773C171.532 80.6289 176.142 80.6289 180.329 80.7773C176.142 80.9258 171.532 80.9213 167.345 80.7773Z" fill="#263238"/>
<path d="M147.848 80.7773C153.47 80.6289 159.654 80.6289 165.276 80.7773C159.654 80.9258 153.47 80.9213 147.848 80.7773Z" fill="#263238"/>
<path d="M176.69 84.29C182.205 84.1416 188.272 84.1416 193.781 84.29C188.267 84.4384 182.2 84.4384 176.69 84.29Z" fill="#263238"/>
<path d="M162.182 84.29C166.09 84.1416 170.39 84.1416 174.298 84.29C170.39 84.4384 166.09 84.4384 162.182 84.29Z" fill="#263238"/>
<path d="M143.736 84.29C149.205 84.1416 155.219 84.1416 160.688 84.29C155.219 84.4384 149.205 84.4384 143.736 84.29Z" fill="#263238"/>
<path d="M131.57 84.29C134.794 84.1371 138.018 84.1371 141.245 84.29C138.018 84.4429 134.794 84.4429 131.57 84.29Z" fill="#263238"/>
<path d="M115.442 84.29C120.034 84.1416 125.085 84.1416 129.677 84.29C125.085 84.4384 120.034 84.4384 115.442 84.29Z" fill="#263238"/>
<path d="M154.328 87.8071C161.259 87.6587 168.882 87.6587 175.813 87.8071C168.882 87.9555 161.259 87.951 154.328 87.8071Z" fill="#263238"/>
<path d="M139.001 87.8071C143.553 87.6587 148.558 87.6587 153.11 87.8071C148.558 87.9555 143.553 87.951 139.001 87.8071Z" fill="#263238"/>
<path d="M127.136 87.8071C130.689 87.6542 134.245 87.6542 137.804 87.8071C134.248 87.957 130.692 87.957 127.136 87.8071Z" fill="#263238"/>
<path d="M115.442 87.8071C118.807 87.6542 122.172 87.6542 125.54 87.8071C122.175 87.957 118.81 87.957 115.442 87.8071Z" fill="#263238"/>
<path d="M183.023 94.8369C186.622 94.6839 190.209 94.6839 193.786 94.8369C190.188 94.9838 186.601 94.9838 183.023 94.8369Z" fill="#263238"/>
<path d="M169.544 94.8369C173.398 94.6885 177.64 94.6885 181.499 94.8369C177.644 94.9853 173.403 94.9808 169.544 94.8369Z" fill="#263238"/>
<path d="M155.291 94.8369C159.177 94.6885 163.454 94.6885 167.345 94.8369C163.454 94.9853 159.177 94.9808 155.291 94.8369Z" fill="#263238"/>
<path d="M146.629 94.8368C148.786 94.6794 150.953 94.6794 153.11 94.8368C150.952 94.9897 148.787 94.9897 146.629 94.8368Z" fill="#263238"/>
<path d="M132.173 94.8369C136.135 94.6885 140.498 94.6885 144.46 94.8369C140.498 94.9853 136.135 94.9808 132.173 94.8369Z" fill="#263238"/>
<path d="M115.442 94.8369C120.268 94.6885 125.576 94.6885 130.402 94.8369C125.576 94.9853 120.268 94.9808 115.442 94.8369Z" fill="#263238"/>
<path d="M176.69 98.3496C182.205 98.2012 188.272 98.2012 193.781 98.3496C188.267 98.498 182.2 98.498 176.69 98.3496Z" fill="#263238"/>
<path d="M164.224 98.3496C167.792 98.1966 171.355 98.1966 174.915 98.3496C171.352 98.5025 167.789 98.5025 164.224 98.3496Z" fill="#263238"/>
<path d="M150.964 98.3496C154.706 98.1966 158.445 98.1966 162.181 98.3496C158.445 98.5025 154.706 98.5025 150.964 98.3496Z" fill="#263238"/>
<path d="M127.635 98.3496C134.435 98.2012 141.919 98.2012 148.72 98.3496C141.919 98.498 134.435 98.498 127.635 98.3496Z" fill="#263238"/>
<path d="M115.442 98.3496C118.807 98.1966 122.172 98.1966 125.54 98.3496C122.175 98.5025 118.81 98.5025 115.442 98.3496Z" fill="#263238"/>
<path d="M141.767 101.863C147.87 101.719 154.585 101.714 160.688 101.863C154.585 102.011 147.87 102.011 141.767 101.863Z" fill="#263238"/>
<path d="M131.57 101.862C134.369 101.714 137.173 101.714 139.972 101.862C137.173 102.015 134.369 102.015 131.57 101.862Z" fill="#263238"/>
<path d="M115.442 101.863C119.94 101.719 124.887 101.714 129.354 101.863C124.856 102.011 119.909 102.011 115.442 101.863Z" fill="#263238"/>
<path d="M139.298 105.379C143.373 105.231 147.843 105.231 151.927 105.379C147.852 105.528 143.382 105.528 139.298 105.379Z" fill="#263238"/>
<path d="M126.362 105.379C130.077 105.226 133.791 105.226 137.503 105.379C133.794 105.532 130.08 105.532 126.362 105.379Z" fill="#263238"/>
<path d="M115.442 105.379C118.561 105.226 121.678 105.226 124.793 105.379C121.675 105.532 118.558 105.532 115.442 105.379Z" fill="#263238"/>
<path d="M144.461 112.409C149.692 112.261 155.453 112.261 160.688 112.409C155.453 112.558 149.692 112.558 144.461 112.409Z" fill="#263238"/>
<path d="M130.698 112.409C134.535 112.261 138.754 112.261 142.586 112.409C138.754 112.558 134.535 112.558 130.698 112.409Z" fill="#263238"/>
<path d="M115.442 112.409C119.738 112.261 124.438 112.261 128.755 112.409C124.46 112.558 119.738 112.558 115.442 112.409Z" fill="#263238"/>
<path d="M151.226 115.922C154.383 115.772 157.531 115.772 160.671 115.922C157.519 116.075 154.371 116.075 151.226 115.922Z" fill="#263238"/>
<path d="M137.805 115.922C141.443 115.778 145.451 115.774 149.098 115.922C145.455 116.071 141.452 116.071 137.805 115.922Z" fill="#263238"/>
<path d="M124.793 115.922C128.448 115.772 132.108 115.772 135.772 115.922C132.111 116.075 128.451 116.075 124.793 115.922Z" fill="#263238"/>
<path d="M115.442 115.922C117.933 115.771 120.431 115.771 122.922 115.922C120.431 116.075 117.933 116.075 115.442 115.922Z" fill="#263238"/>
<path d="M142.585 119.439C148.432 119.291 154.85 119.291 160.688 119.439C154.841 119.587 148.423 119.587 142.585 119.439Z" fill="#263238"/>
<path d="M130.279 119.439C133.712 119.286 137.143 119.286 140.57 119.439C137.143 119.592 133.712 119.592 130.279 119.439Z" fill="#263238"/>
<path d="M115.442 119.439C119.616 119.291 124.208 119.291 128.382 119.439C124.208 119.587 119.616 119.587 115.442 119.439Z" fill="#263238"/>
<path d="M115.442 122.952C123.354 122.808 132.057 122.803 139.972 122.952C132.061 123.1 123.354 123.1 115.442 122.952Z" fill="#263238"/>
<path d="M170.259 129.982C177.851 129.838 186.198 129.833 193.786 129.982C186.198 130.13 177.851 130.13 170.259 129.982Z" fill="#263238"/>
<path d="M156.002 129.982C160.05 129.838 164.498 129.833 168.541 129.982C164.493 130.13 160.045 130.13 156.002 129.982Z" fill="#263238"/>
<path d="M147.848 129.982C150.005 129.828 152.171 129.828 154.329 129.982C152.179 130.137 150.02 130.137 147.87 129.982H147.848Z" fill="#263238"/>
<path d="M130.698 129.982C135.646 129.838 141.101 129.833 146.053 129.982C141.106 130.13 135.65 130.13 130.698 129.982Z" fill="#263238"/>
<path d="M115.442 129.982C119.738 129.838 124.438 129.833 128.755 129.982C124.46 130.13 119.738 130.13 115.442 129.982Z" fill="#263238"/>
<path d="M177.141 133.499C182.511 133.35 188.416 133.35 193.782 133.499C188.412 133.647 182.506 133.642 177.141 133.499Z" fill="#263238"/>
<path d="M163.585 133.499C167.233 133.35 171.231 133.35 174.897 133.499C171.249 133.647 167.251 133.642 163.585 133.499Z" fill="#263238"/>
<path d="M151.63 133.499C155.045 133.346 158.46 133.346 161.875 133.499C158.457 133.652 155.042 133.652 151.63 133.499Z" fill="#263238"/>
<path d="M135.771 133.499C140.319 133.35 145.324 133.35 149.867 133.499C145.324 133.647 140.319 133.642 135.771 133.499Z" fill="#263238"/>
<path d="M124.469 133.499C127.674 133.346 130.881 133.346 134.089 133.499C130.884 133.652 127.677 133.652 124.469 133.499Z" fill="#263238"/>
<path d="M115.442 133.499C117.812 133.346 120.188 133.346 122.558 133.499C120.188 133.65 117.812 133.65 115.442 133.499Z" fill="#263238"/>
<path d="M155.291 137.011C159.465 136.863 164.066 136.863 168.24 137.011C164.066 137.16 159.465 137.16 155.291 137.011Z" fill="#263238"/>
<path d="M143.448 137.011C146.669 136.861 149.889 136.861 153.109 137.011C149.889 137.164 146.669 137.164 143.448 137.011Z" fill="#263238"/>
<path d="M130.279 137.011C133.985 136.863 138.065 136.863 141.766 137.011C138.065 137.16 133.985 137.16 130.279 137.011Z" fill="#263238"/>
<path d="M115.442 137.011C119.49 136.863 123.956 136.863 128.009 137.011C123.961 137.16 119.495 137.16 115.442 137.011Z" fill="#263238"/>
<path d="M115.365 80.7729H143.988V52.15H115.365V80.7729Z" fill="#EBEBEB"/>
<path d="M116.769 79.374H142.59V53.5531H116.769V79.374Z" fill="#08C0D8"/>
<path opacity="0.1" d="M120.924 59.7148C120.822 60.2279 120.887 60.7604 121.11 61.2336C121.333 61.7069 121.703 62.0957 122.164 62.3427C122.625 62.5897 123.154 62.6816 123.672 62.605C124.189 62.5284 124.668 62.2873 125.038 61.9173C125.408 61.5473 125.65 61.0681 125.726 60.5505C125.803 60.0328 125.711 59.5043 125.464 59.043C125.217 58.5817 124.828 58.2121 124.355 57.9889C123.881 57.7656 123.349 57.7006 122.836 57.8033C122.364 57.8978 121.931 58.1297 121.591 58.4698C121.251 58.81 121.019 59.2432 120.924 59.7148Z" fill="black"/>
<path opacity="0.1" d="M123.925 72.6729H142.586L133.257 62.2114L123.925 72.6729Z" fill="black"/>
<path d="M116.765 72.6728H132.174L124.469 65.8589L116.765 72.6728Z" fill="#08C0D8"/>
<g opacity="0.2">
<path d="M116.765 72.6728H132.174L124.469 65.8589L116.765 72.6728Z" fill="black"/>
</g>
<path d="M142.586 72.6729H116.765V79.3743H142.586V72.6729Z" fill="#08C0D8"/>
<path opacity="0.2" d="M142.586 72.6729H116.765V79.3743H142.586V72.6729Z" fill="black"/>
<path d="M163.58 123.078H194.043V101.61H163.58V123.078Z" fill="#EBEBEB"/>
<path d="M164.638 122.025H192.995V102.663H164.638V122.025Z" fill="#455A64"/>
<path d="M167.754 107.282C167.677 107.666 167.727 108.065 167.894 108.419C168.062 108.773 168.339 109.064 168.684 109.248C169.03 109.433 169.425 109.502 169.813 109.444C170.2 109.387 170.559 109.206 170.836 108.929C171.113 108.652 171.294 108.294 171.351 107.906C171.409 107.518 171.34 107.123 171.155 106.777C170.971 106.432 170.68 106.155 170.326 105.987C169.971 105.82 169.573 105.771 169.189 105.847C168.835 105.918 168.51 106.092 168.254 106.347C167.999 106.603 167.825 106.928 167.754 107.282Z" fill="#37474F"/>
<path d="M170.003 117.001H192.995L181.499 109.153L170.003 117.001Z" fill="#37474F"/>
<path d="M164.633 117.001H180.33L172.481 111.892L164.633 117.001Z" fill="#263238"/>
<path d="M192.99 117.001H164.633V122.025H192.99V117.001Z" fill="#263238"/>
<path d="M109.132 89.2329C111.531 89.2329 113.477 87.2877 113.477 84.8882C113.477 82.4887 111.531 80.5435 109.132 80.5435C106.732 80.5435 104.787 82.4887 104.787 84.8882C104.787 87.2877 106.732 89.2329 109.132 89.2329Z" fill="#455A64"/>
<path d="M109.802 86.1791C109.85 86.2267 109.883 86.2874 109.896 86.3535C109.91 86.4197 109.903 86.4885 109.878 86.551C109.852 86.6136 109.809 86.6672 109.753 86.7051C109.697 86.7429 109.631 86.7634 109.563 86.7638C109.471 86.7624 109.383 86.7271 109.316 86.6649L107.8 85.1267C107.793 85.1243 107.787 85.1202 107.782 85.1146C107.778 85.1091 107.774 85.1024 107.773 85.0952C107.77 85.0804 107.77 85.065 107.773 85.0502C107.771 85.0429 107.771 85.0351 107.773 85.0277C107.773 85.0277 107.773 85.0007 107.773 84.9962C107.773 84.9917 107.773 84.9737 107.773 84.9692V84.9333C107.773 84.9333 107.773 84.9333 107.773 84.8973C107.773 84.8613 107.773 84.8973 107.773 84.8703V84.8343C107.773 84.8343 107.773 84.8073 107.773 84.7938C107.78 84.7764 107.79 84.7599 107.8 84.7444C107.808 84.7302 107.819 84.718 107.832 84.7084L109.352 83.1162C109.417 83.0535 109.504 83.0186 109.595 83.0186C109.685 83.0186 109.772 83.0535 109.838 83.1162C109.87 83.148 109.895 83.1858 109.913 83.2275C109.93 83.2692 109.939 83.3139 109.939 83.3591C109.939 83.4043 109.93 83.449 109.913 83.4907C109.895 83.5324 109.87 83.5702 109.838 83.602L108.56 84.8883L109.802 86.1791Z" fill="white"/>
<path d="M200.02 89.2329C202.42 89.2329 204.365 87.2877 204.365 84.8882C204.365 82.4887 202.42 80.5435 200.02 80.5435C197.621 80.5435 195.676 82.4887 195.676 84.8882C195.676 87.2877 197.621 89.2329 200.02 89.2329Z" fill="#455A64"/>
<path d="M199.337 83.6018C199.289 83.5542 199.256 83.4935 199.243 83.4273C199.229 83.3611 199.235 83.2924 199.261 83.2299C199.286 83.1673 199.33 83.1137 199.386 83.0758C199.442 83.038 199.508 83.0175 199.575 83.0171C199.667 83.0167 199.756 83.0522 199.823 83.116L201.338 84.6542C201.338 84.6542 201.361 84.6542 201.365 84.6857C201.369 84.7005 201.369 84.7159 201.365 84.7307C201.368 84.7379 201.368 84.7459 201.365 84.7532C201.365 84.7532 201.365 84.7802 201.365 84.7847C201.365 84.7892 201.365 84.8072 201.365 84.8117V84.8476C201.365 84.8476 201.365 84.8476 201.365 84.8791C201.365 84.9106 201.365 84.8791 201.365 84.9061V84.9466C201.365 84.9466 201.365 84.9466 201.365 84.9691C201.365 84.9916 201.365 84.996 201.365 85.0095C201.365 85.0095 201.365 85.0455 201.338 85.0545C201.332 85.0696 201.321 85.0822 201.307 85.0905L199.791 86.6287C199.726 86.6914 199.639 86.7264 199.548 86.7264C199.458 86.7264 199.371 86.6914 199.305 86.6287C199.273 86.5969 199.248 86.5591 199.23 86.5174C199.213 86.4757 199.204 86.431 199.204 86.3858C199.204 86.3407 199.213 86.2959 199.23 86.2542C199.248 86.2126 199.273 86.1747 199.305 86.1429L200.583 84.8521L199.337 83.6018Z" fill="white"/>
<path d="M191.119 143.061L200.029 134.151H191.119V143.061Z" fill="#EBEBEB"/>
<path d="M71.6433 124.585C75.6417 147.122 84.8978 174.364 89.184 178.925C94.6262 184.695 129.96 194.802 131.835 195.116C136.486 195.823 149.034 166.88 144.096 165.909C136.576 164.438 109.608 159.162 108.043 157.39C106.419 155.533 95.5257 140.299 84.3986 123.123C76.7391 111.236 69.1606 110.592 71.6433 124.585Z" fill="#D3766A"/>
<path d="M129.317 194.473C129.816 194.676 136.927 197.482 141.24 198.323C144.461 198.948 153.775 200.505 154.814 197.028C155.529 194.658 150.159 193.102 146.386 191.914C144.398 191.289 141.856 189.494 142.311 188.213C143.107 185.964 148.23 187.686 151.643 189.279C158.241 192.359 167.187 198.166 170.731 194.64C172.081 193.29 170.192 191.266 167.538 189.341C171.757 191.482 176.196 193.155 177.743 191.73C178.643 190.92 178.584 189.931 177.95 188.833C179.218 189.126 180.302 188.946 180.99 188.078C182.164 186.602 181.35 184.655 179.749 182.73C179.992 182.679 180.219 182.57 180.411 182.414C180.603 182.258 180.756 182.057 180.855 181.83C183.226 177.391 168.392 166.606 163.535 165.909C149.242 163.844 134.557 165.792 134.557 165.792C129.456 170.694 129.304 194.469 129.317 194.473Z" fill="#D3766A"/>
<path d="M148.728 179.744C152.103 179.964 155.392 180.901 158.375 182.492C162.136 184.516 164.735 187.044 167.96 189.535C168.041 189.598 167.96 189.733 167.861 189.67C166.323 188.483 160.004 184.084 158.384 183.099C155.454 181.279 152.147 180.15 148.715 179.798C148.683 179.798 148.692 179.739 148.728 179.744Z" fill="#263238"/>
<path d="M150.801 173.568C154.57 174.243 158.447 174.918 161.996 176.352C165.904 177.922 169.107 180.76 172.251 183.486C174.14 185.123 175.99 186.802 177.801 188.523C177.877 188.595 177.801 188.73 177.702 188.658C174.508 185.839 171.231 183.115 167.87 180.486C164.768 178.03 161.211 176.211 157.404 175.134C155.227 174.522 153.01 174.077 150.792 173.636C150.786 173.632 150.78 173.627 150.777 173.62C150.773 173.614 150.772 173.606 150.773 173.599C150.774 173.591 150.777 173.585 150.782 173.579C150.787 173.574 150.794 173.57 150.801 173.568Z" fill="#263238"/>
<path d="M154.261 168.023C157.899 168.437 161.075 168.783 164.412 170.411C168.829 172.57 173.254 176.474 174.81 177.864C176.529 179.393 178.193 180.981 179.834 182.595C179.902 182.658 179.789 182.775 179.717 182.712C175.976 179.19 172.011 175.912 167.848 172.898C165.887 171.436 163.711 170.284 161.398 169.485C159.087 168.729 156.653 168.401 154.261 168.05V168.023Z" fill="#263238"/>
<path d="M138.303 161.358L124.81 197.645C124.81 197.645 93.7766 187.071 88.3075 180.554C82.8384 174.036 73.8431 141.46 71.4953 125.763C69.1475 110.067 76.9869 110.845 83.7154 121.005C90.4439 131.165 107.238 155.812 108.219 156.379C109.199 156.945 138.303 161.358 138.303 161.358Z" fill="#08C0D8"/>
<path d="M122.08 180.648C123.604 176.6 125.161 172.552 126.532 168.45C127.315 166.116 128.107 163.782 128.867 161.443C128.894 161.353 128.745 161.29 128.709 161.375C127.018 165.378 125.332 169.399 123.825 173.483C122.318 177.567 120.789 181.579 119.327 185.672C118.503 187.992 117.753 190.336 117.078 192.701C117.077 192.711 117.08 192.721 117.085 192.73C117.09 192.738 117.098 192.745 117.107 192.748C117.116 192.752 117.126 192.752 117.136 192.75C117.145 192.747 117.153 192.741 117.159 192.733C118.999 188.784 120.546 184.727 122.08 180.648Z" fill="#263238"/>
<path opacity="0.1" d="M109.18 191.779L107.809 191.222C105.232 190.151 102.605 189.013 100.136 187.853C99.8163 187.709 99.5015 187.561 99.1957 187.403C98.6964 187.169 98.2017 186.926 97.7249 186.688C97.4821 186.571 97.2482 186.445 97.0098 186.328L96.758 186.202L96.0158 185.815C95.0399 185.303 94.1133 184.794 93.2543 184.286C93.0564 184.174 92.8495 184.052 92.6561 183.931C91.3114 183.149 90.0527 182.228 88.9006 181.183C88.7926 181.075 88.6892 180.971 88.5947 180.868C88.5003 180.765 88.4013 180.661 88.3159 180.562C82.8693 174.063 73.847 141.469 71.4992 125.772C71.4767 125.588 71.4498 125.408 71.4228 125.228C71.4205 125.189 71.4205 125.15 71.4228 125.111C71.2699 123.919 71.1574 122.448 71.0854 120.861C71.036 113.107 74.76 112.027 79.1137 115.652C89.2019 140.416 104.467 181.255 109.18 191.779Z" fill="black"/>
<path d="M94.5094 199.951H20.6357C23.7571 186.031 36.7013 133.836 59.6033 112.936L60.1115 112.486C63.4352 109.535 70.9373 110.197 75.8532 112.63C76.1946 112.833 76.4987 113.093 76.7527 113.399C78.7137 115.567 82.2758 121.603 84.2548 127.791C84.6024 128.863 84.8952 129.951 85.1318 131.052C85.1813 131.264 85.2308 131.502 85.2803 131.803C85.3297 132.019 85.3702 132.253 85.4197 132.527C85.4827 132.901 85.5501 133.31 85.6266 133.76C87.61 145.75 92.6699 184.889 94.5094 199.951Z" fill="#08C0D8"/>
<path d="M71.3779 131.219L74.8681 125.902L78.4977 130.162L77.5802 134.196L73.4693 134.866L71.3779 131.219Z" fill="#263238"/>
<path d="M73.4698 134.866L73.0605 181.336L79.0784 195.787L84.534 180.149L77.5807 134.196L73.4698 134.866Z" fill="#263238"/>
<path d="M51.3047 125.399C39.9346 150.172 32.2212 191.253 39.2645 197.501C47.1084 204.454 61.8876 175.291 61.2489 173.834C60.7632 172.732 61.1185 146.228 61.6537 126.852C62.1889 107.476 54.1157 119.273 51.3047 125.399Z" fill="#D3766A"/>
<path d="M61.4253 173.798C61.2858 171.032 62.1269 135.946 62.0279 124.985C61.929 114.024 57.6562 112.171 51.0942 124.625C44.5321 137.079 34.8667 168.441 35.6988 186C36.4994 202.911 44.3702 201.714 52.1511 190.947C55.9818 185.662 59.1 179.896 61.4253 173.798Z" fill="#08C0D8"/>
<path d="M61.3391 178.327C60.9163 165.212 61.1112 152.095 61.9238 138.977C62.3496 152.092 62.1547 165.209 61.3391 178.327Z" fill="#263238"/>
<path d="M61.9463 146.592C62.1605 144.877 62.5462 143.188 63.0977 141.55C62.9974 143.283 62.6082 144.987 61.9463 146.592Z" fill="#263238"/>
<path d="M41.2482 197.851C47.6573 202.299 61.0873 199.866 91.6217 194.919C95.845 194.231 97.0189 162.387 92.4628 162.887C86.7328 163.516 64.6359 167.195 63.0572 167.672C49.7038 171.662 36.899 194.833 41.2482 197.851Z" fill="#D3766A"/>
<path d="M98.1934 161.015C107.072 159.315 109.613 160.242 116.341 154.831C120.762 151.278 124.927 152.582 122.575 157.98C118.734 166.826 107.733 171.423 103.469 171.922L98.1934 161.015Z" fill="#D3766A"/>
<path d="M78.6953 168.603C78.6953 168.603 84.6412 164.717 93.9243 161.969C100.342 160.071 114.771 157.494 129.388 171.117C132.856 174.347 135.505 181.413 127.926 178.192C122.529 175.903 119.831 172.827 116.444 172.066C116.444 172.066 118.751 181.453 115.378 184.799C112.427 187.727 109.271 190.44 105.933 192.918C105.339 192.412 104.779 191.868 104.255 191.289C104.255 191.289 101.174 194.811 91.0323 195.022L78.6953 168.603Z" fill="#D3766A"/>
<path d="M100.357 161.137C103.545 162.599 110.251 165.81 114.83 170.348C119.908 175.39 128.323 186.463 124.576 190.178C121.819 192.9 118.23 188.951 118.23 188.951C118.23 188.951 120.749 194.267 117.722 196.178C114.965 197.923 112.37 194.703 112.37 194.703C112.37 194.703 113.341 198.189 110.364 199.358C106.766 200.761 105.326 193.228 100.469 191.51C99.3536 191.15 100.357 161.137 100.357 161.137Z" fill="#D3766A"/>
<path d="M108.592 174.828C111.362 176.694 116.575 182.555 118.253 188.811C118.293 188.95 118.203 189.054 118.145 188.932C115.525 183.876 112.301 179.156 108.542 174.877C108.515 174.846 108.56 174.805 108.592 174.828Z" fill="#263238"/>
<path d="M103.653 180.104C105.88 181.961 110.985 188.24 112.464 194.636C112.496 194.779 112.406 194.878 112.347 194.753C109.992 189.571 107.059 184.672 103.604 180.149C103.577 180.117 103.622 180.081 103.653 180.104Z" fill="#263238"/>
<path d="M116.444 172.008C119.399 172.718 121.392 174.05 123.915 175.633C125.166 176.434 126.46 177.166 127.792 177.823C129.011 178.403 130.81 179.285 132.024 178.215C132.699 177.621 132.636 176.6 132.438 175.808C132.024 174.643 131.428 173.552 130.67 172.574C130.639 172.534 130.702 172.485 130.733 172.521C131.463 173.408 132.101 174.368 132.636 175.386C132.983 176.081 133.115 176.864 133.014 177.634C132.667 179.267 130.765 179.573 129.415 179.2C128.6 178.948 127.812 178.615 127.063 178.206C126.335 177.837 125.628 177.432 124.931 177.009C123.497 176.146 122.116 175.21 120.695 174.311C119.312 173.48 117.877 172.74 116.399 172.093C116.35 172.08 116.386 171.994 116.444 172.008Z" fill="#263238"/>
<path d="M123.065 181.952C122.229 180.329 117.794 173.614 116.386 172.08C116.378 172.072 116.374 172.062 116.374 172.051C116.374 172.04 116.378 172.029 116.386 172.021C116.394 172.014 116.404 172.009 116.415 172.009C116.426 172.009 116.437 172.014 116.445 172.021C118.828 174.059 122.768 179.591 123.708 181.381C124.648 183.171 125.728 185.429 125.831 187.435C125.989 190.48 123.996 191.159 123.259 191.343C122.38 191.548 121.457 191.444 120.645 191.051C119.691 190.531 118.854 189.82 118.185 188.964C118.149 188.924 118.185 188.865 118.239 188.901C119.355 190.048 121.172 191.15 122.813 190.844C123.177 190.79 123.526 190.663 123.84 190.473C124.154 190.282 124.428 190.03 124.644 189.733C125.058 188.977 125.187 188.098 125.008 187.255C124.752 185.375 123.929 183.621 123.065 181.952Z" fill="#263238"/>
<path d="M87.2319 162.338L72.9204 199.475C72.9204 199.475 45.8762 203.073 39.7189 198.045C35.671 194.734 47.7517 170.551 62.7963 167.11L87.2319 162.338Z" fill="#08C0D8"/>
<path d="M47.4869 178.107C49.151 175.561 54.1524 169.197 62.8193 167.083C62.8958 167.083 62.9408 167.182 62.8643 167.209C56.5676 169.408 49.3939 175.876 47.5724 178.188C47.5319 178.246 47.4419 178.165 47.4869 178.107Z" fill="#263238"/>
<path d="M64.3748 197.446C65.7241 193.277 67.3027 189.189 68.8724 185.1C70.4421 181.012 72.0208 176.919 73.7254 172.867C74.6834 170.577 75.6234 168.284 76.6578 166.03C76.6626 166.015 76.6731 166.003 76.687 165.996C76.7009 165.989 76.7171 165.987 76.732 165.992C76.7469 165.997 76.7593 166.007 76.7665 166.021C76.7737 166.035 76.775 166.051 76.7703 166.066C75.421 170.227 73.8603 174.328 72.3041 178.421C70.7479 182.514 69.1558 186.607 67.4961 190.677C66.5696 192.976 65.5981 195.26 64.5637 197.514C64.5277 197.613 64.3298 197.554 64.3748 197.446Z" fill="#263238"/>
<path d="M87.1376 161.96C85.437 162.086 83.7466 162.325 82.0777 162.675C80.3956 162.981 78.7225 163.314 77.0494 163.66C73.7256 164.353 66.6059 165.437 60.8264 167.659C60.7634 167.681 61.2087 167.87 61.2762 167.839C63.9747 166.642 85.2036 163.049 86.8722 162.545C86.8444 162.675 86.8278 162.808 86.8227 162.941C86.8227 163.031 86.9397 163.107 87.0026 163.017C87.1511 162.801 87.232 162.567 87.3669 162.352C87.3933 162.312 87.408 162.266 87.4095 162.219C87.4109 162.172 87.399 162.125 87.375 162.084C87.3511 162.043 87.3161 162.01 87.2741 161.988C87.2321 161.966 87.1848 161.956 87.1376 161.96Z" fill="#263238"/>
<path d="M45.0042 200.172C39.7375 199.313 37.3987 197.379 36.1484 192.108C34.5517 185.091 35.5142 177.81 36.5577 170.789C38.4782 159.545 41.5545 148.571 45.0267 137.736C43.7989 142.683 42.0223 149.403 40.8889 154.274C38.4916 165.068 33.1395 185.977 38.0644 195.926C39.5126 198.67 42.1887 199.452 45.0042 200.172Z" fill="#263238"/>
<path d="M43.5109 138.739C43.313 140.479 43.0117 142.152 43.1961 143.902C42.5394 142.256 42.8588 140.34 43.5109 138.739Z" fill="#263238"/>
<path d="M74.9989 125.849C70.6092 126.231 64.281 118.679 62.1806 113.003C62.0367 112.612 63.1476 108.897 64.281 104.318C64.9601 101.539 65.6528 98.4266 66.08 95.5436C66.1655 94.9499 83.5264 102.6 83.5264 102.6C83.5264 102.6 80.8593 108.384 80.1531 113.422C80.0992 113.82 80.0827 114.222 80.1037 114.623C80.1037 114.677 80.1037 114.744 80.1037 114.82C80.1172 117.123 79.2401 125.484 74.9989 125.849Z" fill="#D3766A"/>
<path d="M67.1777 95.7998C67.2992 100.801 68.599 113.03 78.2239 114.667C78.8399 114.779 79.4644 114.838 80.0905 114.843C80.0993 114.776 80.0993 114.708 80.0905 114.64C80.0746 114.24 80.0897 113.838 80.1354 113.44C80.8505 108.398 83.5221 102.614 83.5221 102.614C83.5221 102.614 70.9962 97.0771 67.1777 95.7998Z" fill="#263238"/>
<path d="M68.8232 72.8618C65.414 78.7087 64.465 97.7427 68.0001 102.866C73.1274 110.287 83.6519 113.354 90.4883 106.702C97.1268 100.257 97.9229 75.4479 93.7761 70.577C87.6728 63.3808 73.856 64.1858 68.8232 72.8618Z" fill="#D3766A"/>
<path d="M84.1652 88.7294C84.1652 88.68 84.0617 88.7879 84.0617 88.8419C84.0617 90.1237 83.8099 91.5899 82.6315 91.9632C82.5955 91.9632 82.5955 92.0397 82.6315 92.0352C84.0662 91.9003 84.3586 89.9528 84.1652 88.7294Z" fill="#263238"/>
<path d="M83.0857 87.3398C81.0302 87.0924 80.6839 91.2168 82.5864 91.4506C84.4889 91.6845 84.8082 87.5512 83.0857 87.3398Z" fill="#263238"/>
<path d="M91.321 89.3728C91.321 89.3233 91.4155 89.4402 91.411 89.4942C91.2625 90.767 91.3075 92.2513 92.4274 92.773C92.4634 92.773 92.4544 92.8539 92.4274 92.8449C91.0152 92.5256 90.9747 90.5557 91.321 89.3728Z" fill="#263238"/>
<path d="M92.5757 88.154C94.6446 88.154 94.4557 92.3099 92.5397 92.2919C90.6237 92.2739 90.8396 88.1181 92.5757 88.154Z" fill="#263238"/>
<path d="M81.7269 84.6098C82.2905 84.5476 82.8505 84.4561 83.4045 84.3355C84.0477 84.223 84.5694 84.2006 85.0642 83.7283C85.1892 83.5812 85.2619 83.3967 85.2708 83.2038C85.2798 83.0109 85.2245 82.8205 85.1136 82.6624C84.5964 82.0102 83.7643 81.9517 82.9952 82.0552C82.2067 82.1328 81.4755 82.5017 80.9443 83.0896C80.3776 83.6878 80.9623 84.6593 81.7269 84.6098Z" fill="#263238"/>
<path d="M94.8784 86.0175C94.3235 85.8971 93.7755 85.747 93.2367 85.5677C92.6115 85.3833 92.0943 85.3023 91.658 84.7806C91.5539 84.619 91.5043 84.4284 91.5164 84.2365C91.5286 84.0447 91.6019 83.8618 91.7255 83.7147C92.3102 83.1255 93.1333 83.157 93.8979 83.3459C94.6725 83.512 95.3582 83.959 95.8229 84.6007C95.9196 84.7529 95.97 84.9299 95.9681 85.1103C95.9661 85.2906 95.9118 85.4665 95.8118 85.6165C95.7117 85.7666 95.5703 85.8843 95.4046 85.9555C95.2389 86.0267 95.0561 86.0482 94.8784 86.0175Z" fill="#263238"/>
<path d="M80.5131 100.014C80.7695 100.356 81.0124 100.81 81.4666 100.914C81.9401 100.975 82.4211 100.937 82.8789 100.801C82.888 100.799 82.8975 100.8 82.9061 100.804C82.9147 100.807 82.9219 100.813 82.9269 100.821C82.9318 100.829 82.9342 100.838 82.9336 100.848C82.9331 100.857 82.9297 100.866 82.9239 100.873C82.7055 101.096 82.4308 101.255 82.1291 101.335C81.8274 101.414 81.5099 101.41 81.2102 101.323C80.9597 101.219 80.7463 101.042 80.5978 100.815C80.4494 100.588 80.3729 100.321 80.3782 100.05C80.3737 99.9737 80.4726 99.9647 80.5131 100.014Z" fill="#263238"/>
<path d="M82.4153 96.4158C82.6623 96.9662 83.0203 97.4596 83.4668 97.8651C83.9134 98.2707 84.4389 98.5796 85.0104 98.7726C85.5076 98.9471 86.027 99.0501 86.5531 99.0784C86.6535 99.085 86.7541 99.085 86.8545 99.0784H87.1378C87.2075 99.0753 87.2743 99.0494 87.3279 99.0048C87.3815 98.9601 87.419 98.8991 87.4347 98.8311C87.441 98.7878 87.441 98.7439 87.4347 98.7006V98.5882C87.6056 97.6167 87.736 96.1145 87.736 96.1145C88.0643 96.3484 89.7599 97.4413 89.8094 96.9241C90.1917 92.6648 90.619 87.9288 90.1018 83.6021C90.0964 83.5744 90.0815 83.5495 90.0598 83.5316C90.038 83.5137 90.0107 83.5039 89.9826 83.5039C89.9544 83.5039 89.9271 83.5137 89.9054 83.5316C89.8836 83.5495 89.8688 83.5744 89.8634 83.6021C89.3327 87.6859 89.5261 91.8327 89.0583 95.9391C88.5096 95.6333 87.6236 95.08 87.1108 95.0171C86.9669 95.0171 86.9129 97.918 86.8005 98.3498C86.8035 98.3647 86.8035 98.38 86.8005 98.3948C85.1274 98.3543 83.967 97.6752 82.5367 96.3349C82.4693 96.2494 82.3658 96.3034 82.4153 96.4158Z" fill="#263238"/>
<path d="M86.0496 98.4986C85.4097 99.116 84.6211 99.5575 83.7603 99.7804C83.2882 99.8855 82.7952 99.8431 82.348 99.6589C81.372 99.2362 81.4889 98.3097 81.7948 97.5361C81.9602 97.1301 82.173 96.7451 82.429 96.3892C83.3813 97.4588 84.6494 98.1975 86.0496 98.4986Z" fill="#263238"/>
<path d="M83.7603 99.7756C83.2882 99.8807 82.7952 99.8383 82.348 99.6541C81.372 99.2314 81.4889 98.3048 81.7948 97.5312C82.8607 97.8056 83.8277 98.7051 83.7603 99.7756Z" fill="#FF98B9"/>
<path d="M65.4636 86.917C68.0093 88.0639 70.9417 84.4928 71.8772 82.9411C72.8127 81.3894 73.339 73.8109 75.0256 71.5261C76.7122 69.2413 79.6716 68.2833 81.772 69.2773C83.8724 70.2713 86.2472 73.5635 87.8798 73.6625C89.5125 73.7614 90.439 70.3297 91.5634 70.5141C94.0326 70.8919 96.2949 78.9517 96.3264 81.7267C96.3264 81.7267 98.6697 68.5037 85.9144 65.7017C74.4544 63.183 69.2236 69.2998 67.6854 72.6325C64.7035 78.9787 65.4636 86.917 65.4636 86.917Z" fill="#263238"/>
<path d="M80.4588 95.0801C79.4295 94.8956 78.4726 94.4258 77.6971 93.7243C76.9216 93.0228 76.3586 92.1177 76.0721 91.1119C75.7856 90.1062 75.7872 89.0403 76.0767 88.0354C76.3661 87.0305 76.9319 86.1271 77.7095 85.4279C78.4871 84.7287 79.4453 84.2618 80.4752 84.0803C81.5051 83.8989 82.5652 84.0102 83.5349 84.4015C84.5047 84.7929 85.3451 85.4485 85.9606 86.294C86.576 87.1394 86.9418 88.1406 87.0163 89.1837C87.1203 90.6606 86.6341 92.1185 85.6644 93.2374C84.6947 94.3564 83.3208 95.0449 81.844 95.152C81.3811 95.1873 80.9156 95.1631 80.4588 95.0801ZM82.3028 84.8165C81.9064 84.7479 81.5033 84.7267 81.1019 84.7535C79.875 84.8424 78.728 85.3956 77.8947 86.3005C77.0613 87.2053 76.6042 88.3939 76.6165 89.624C76.6287 90.8541 77.1094 92.0333 77.9606 92.9214C78.8118 93.8095 79.9695 94.3397 81.198 94.4042C82.4265 94.4686 83.6333 94.0623 84.5727 93.2681C85.5122 92.4738 86.1135 91.3514 86.2543 90.1293C86.3952 88.9072 86.0649 87.6774 85.3307 86.6904C84.5965 85.7033 83.5137 85.0332 82.3028 84.8165Z" fill="#EBEBEB"/>
<path d="M93.2545 95.7997C91.1541 95.4219 89.6294 92.9212 89.8093 90.0112C89.871 88.6203 90.3664 87.2835 91.2261 86.1882C91.5661 85.6945 92.028 85.2971 92.567 85.0346C93.1059 84.7721 93.7036 84.6534 94.302 84.6901C94.9003 84.7268 95.479 84.9175 95.9819 85.2439C96.4848 85.5702 96.8947 86.021 97.172 86.5525C97.8911 87.7446 98.2197 89.1315 98.112 90.5194C97.9231 93.5958 95.9081 95.9796 93.6143 95.8401C93.4937 95.8332 93.3736 95.8197 93.2545 95.7997ZM94.5363 85.4551C94.4429 85.4362 94.3482 85.4242 94.253 85.4191C93.7764 85.4123 93.3051 85.5198 92.8786 85.7327C92.4521 85.9455 92.0828 86.2575 91.8018 86.6425C91.0423 87.617 90.6053 88.8039 90.5514 90.0382C90.3895 92.7053 91.7793 94.9631 93.6638 95.08C95.5483 95.197 97.2034 93.1191 97.3654 90.4565C97.4661 89.2254 97.1782 87.9937 96.5423 86.9348C96.3301 86.5615 96.042 86.2369 95.6964 85.982C95.3509 85.7271 94.9556 85.5476 94.5363 85.4551Z" fill="#EBEBEB"/>
<path d="M86.7916 89.8181L86.3418 89.2155C87.2413 88.5588 89.2428 87.7222 90.5156 89.2649L89.9399 89.7372C88.8065 88.3564 86.8635 89.7597 86.7916 89.8181Z" fill="#EBEBEB"/>
<path d="M63.206 90.0563L62.5674 89.6741C62.7428 89.3727 64.3664 86.7461 66.0396 86.5752C67.6092 86.4223 76.1997 87.6501 76.6225 87.7176L76.5056 88.4552C73.6586 88.0054 67.3259 87.2003 66.1115 87.3218C65.0051 87.4297 63.6378 89.3322 63.206 90.0563Z" fill="#EBEBEB"/>
<path d="M69.2331 88.6038C69.2331 88.6038 66.3546 81.7944 63.3501 82.6984C60.3457 83.6024 61.6276 92.854 64.533 94.7026C64.8892 94.9651 65.2948 95.1529 65.7254 95.2547C66.1561 95.3565 66.6028 95.3703 67.0389 95.2951C67.4749 95.2199 67.8913 95.0573 68.263 94.8171C68.6346 94.577 68.9539 94.2642 69.2016 93.8975L69.2331 88.6038Z" fill="#D3766A"/>
<path d="M63.7819 85.3608C63.7324 85.3608 63.7099 85.4103 63.7504 85.4418C65.7698 86.7911 66.4985 89.1119 66.8583 91.4102C66.3725 90.4522 65.5765 89.8135 64.3081 90.3622C64.2452 90.3892 64.2811 90.4926 64.3441 90.4926C64.7597 90.4519 65.1777 90.5406 65.5408 90.7468C65.904 90.9529 66.1945 91.2663 66.3725 91.644C66.6644 92.2776 66.8861 92.9412 67.0337 93.623C67.0967 93.8434 67.4834 93.8164 67.452 93.5735C67.4498 93.5541 67.4498 93.5345 67.452 93.5151C68.0996 90.7085 66.7503 86.2919 63.7819 85.3608Z" fill="#263238"/>
<path d="M80.1167 114.281L74.6161 123.649L62.9537 109.491L59.54 113.862C59.54 113.862 69.7497 134.268 69.9116 133.405L74.832 125.579L80.1887 131.898L81.1332 117.47L80.1167 114.281Z" fill="#08C0D8"/>
<path d="M81.0753 124.792C81.1473 122.403 81.2912 120.002 81.2462 117.595C81.2462 117.51 81.1113 117.461 81.0843 117.555C80.3602 119.804 80.1353 128.93 79.9104 131.102L79.8834 131.075C79.663 130.805 74.891 125.489 74.8326 125.561C73.8116 126.78 70.2045 132.478 69.9481 133.004C68.3335 129.762 61.4026 116.93 59.4147 113.822C59.3562 113.732 59.2168 113.786 59.2573 113.889C60.6335 117.281 69.5613 134.187 69.7143 134.16C69.8087 134.246 74.2839 127.234 74.8686 125.885C75.6511 127.014 80.4141 132.95 80.4636 132.6C80.8106 130.01 81.0148 127.404 81.0753 124.792Z" fill="#263238"/>
<path d="M146.269 197.194H74.9365V200.073H146.269V197.194Z" fill="#455A64"/>
<path d="M114.408 197.194H74.9365V200.073H114.408V197.194Z" fill="#A6A6A6"/>
<path d="M113.211 200.068H175.728L184.566 157.606H122.044L113.211 200.068Z" fill="#A6A6A6"/>
<path d="M116.045 200.068H178.567L187.4 157.606H124.878L116.045 200.068Z" fill="#C7C7C7"/>
<path d="M147.556 179.788C147.486 180.315 147.53 180.85 147.686 181.358C147.843 181.865 148.107 182.333 148.461 182.729C148.816 183.125 149.251 183.439 149.739 183.65C150.226 183.862 150.753 183.965 151.284 183.953C152.424 183.928 153.517 183.493 154.363 182.729C155.209 181.964 155.751 180.92 155.89 179.788C155.96 179.262 155.915 178.726 155.759 178.218C155.603 177.71 155.339 177.242 154.984 176.846C154.63 176.45 154.194 176.135 153.707 175.924C153.22 175.712 152.693 175.608 152.161 175.619C151.021 175.644 149.927 176.079 149.081 176.845C148.236 177.611 147.694 178.656 147.556 179.788Z" fill="#EBEBEB"/>
<path d="M26.3666 60.0387C26.7006 63.2506 27.9208 66.3065 29.8911 68.865C31.8614 71.4235 34.504 73.384 37.524 74.5275C40.544 75.671 43.8224 75.9526 46.9932 75.3407C50.1639 74.7288 53.1021 73.2476 55.4798 71.0624L64.1962 72.3442L59.8335 64.8062C60.8323 62.3534 61.2588 59.7051 61.0807 57.0627C60.9025 54.4204 60.1243 51.8533 58.8053 49.5568C57.4862 47.2603 55.661 45.2946 53.4684 43.8093C51.2757 42.324 48.7733 41.358 46.1513 40.9849C43.5293 40.6117 40.8568 40.8412 38.3368 41.6558C35.8168 42.4704 33.5157 43.8488 31.6083 45.6861C29.7009 47.5235 28.2375 49.7715 27.3292 52.2593C26.4209 54.747 26.0917 57.4091 26.3666 60.0432V60.0387Z" fill="white"/>
<path d="M31.5836 45.651C33.4804 43.7761 35.7838 42.3634 38.3148 41.5225C40.8459 40.6817 43.5367 40.4353 46.1784 40.8026C48.8387 41.1509 51.3837 42.1049 53.6175 43.5911C56.9988 45.8508 59.4957 49.2092 60.6857 53.098C61.8757 56.9869 61.6858 61.1674 60.1481 64.9324V64.631L64.4838 72.1826L64.8031 72.7403L64.1735 72.6458L55.466 71.2965L55.6684 71.2336C53.2481 73.4264 50.2635 74.9 47.051 75.4883C46.2555 75.6373 45.4493 75.7216 44.6402 75.7402C43.8336 75.7837 43.0249 75.7687 42.2205 75.6952C38.9942 75.3793 35.9167 74.1828 33.3242 72.2365C32.6796 71.7561 32.0652 71.2364 31.4846 70.6803C30.9244 70.1114 30.3973 69.5107 29.906 68.8813C27.3003 65.4726 26.0343 61.227 26.3476 56.9479C26.6609 52.6688 28.5317 48.6529 31.6061 45.66L31.5836 45.651ZM29.9375 68.8138C30.4347 69.4463 30.971 70.0472 31.5431 70.6129C32.1102 71.1667 32.711 71.685 33.3422 72.1646C34.6252 73.1176 36.0424 73.8754 37.5475 74.4134C39.0425 74.9694 40.6077 75.3145 42.198 75.4388C42.9917 75.4928 43.7881 75.4928 44.5818 75.4388C45.3768 75.4062 46.1679 75.3099 46.9475 75.151C50.0744 74.5217 52.9637 73.0326 55.2906 70.8513L55.3761 70.7703H55.4975L64.2229 71.9937L63.9081 72.4434L59.5229 64.9234L59.4419 64.7794L59.5049 64.6265C60.4723 62.2183 60.8902 59.6247 60.7283 57.0345C60.555 54.4595 59.8032 51.9567 58.5289 49.7124C57.2266 47.4588 55.4475 45.517 53.3162 44.0229C51.1663 42.5377 48.7044 41.5653 46.1199 41.1804C42.7051 40.6517 39.2102 41.1624 36.0893 42.6459C32.9684 44.1294 30.3658 46.5173 28.6197 49.4992C26.8736 52.4812 26.0647 55.9193 26.2981 59.367C26.5315 62.8146 27.7964 66.1124 29.9285 68.8318L29.9375 68.8138Z" fill="#263238"/>
<path d="M41.5412 68.0673L34.0977 60.5338L36.5983 58.0646L40.9476 62.4632L49.9788 48.3047L52.9427 50.1937L41.5412 68.0673Z" fill="#08C0D8"/>
</svg>
