<svg width="249" height="221" viewBox="0 0 249 221" fill="none" xmlns="http://www.w3.org/2000/svg">
<path d="M167.062 33.7245C149.206 31.2714 130.779 33.9455 117.01 43.8905C103.618 53.5659 97.5416 69.7608 83.5741 78.7555C62.0027 92.674 31.3643 88.0507 18.85 113.037C14.3859 121.957 13.2352 131.924 13.3939 141.687C13.5774 153.918 15.8144 166.294 21.7417 177.321C27.669 188.349 37.5396 197.972 50.1679 202.754C68.8079 209.826 90.409 205.596 109.118 198.697C116.836 195.855 124.584 192.509 132.927 192.128C143.432 191.638 153.377 195.859 163.357 198.825C175.331 202.392 188.594 204.186 200.483 200.394C209.788 197.428 217.437 191.28 223.572 184.376C234.535 171.99 241.275 157.06 242.991 141.36C247.748 96.8775 221.99 41.2606 167.062 33.7245Z" fill="#08C0D8"/>
<path opacity="0.7" d="M167.062 33.7245C149.206 31.2714 130.779 33.9455 117.01 43.8905C103.618 53.5659 97.5416 69.7608 83.5741 78.7555C62.0027 92.674 31.3643 88.0507 18.85 113.037C14.3859 121.957 13.2352 131.924 13.3939 141.687C13.5774 153.918 15.8144 166.294 21.7417 177.321C27.669 188.349 37.5396 197.972 50.1679 202.754C68.8079 209.826 90.409 205.596 109.118 198.697C116.836 195.855 124.584 192.509 132.927 192.128C143.432 191.638 153.377 195.859 163.357 198.825C175.331 202.392 188.594 204.186 200.483 200.394C209.788 197.428 217.437 191.28 223.572 184.376C234.535 171.99 241.275 157.06 242.991 141.36C247.748 96.8775 221.99 41.2606 167.062 33.7245Z" fill="white"/>
<path d="M141.389 103.578C138.582 104.497 131.9 104.02 131.896 104.02C131.891 104.02 133.597 100.192 133.741 99.9626C135.392 97.3106 140.343 93.0364 144.087 93.695C146.791 94.1679 148.14 96.6785 147.371 98.9283C146.602 101.178 143.78 102.796 141.389 103.578Z" fill="#08C0D8"/>
<path d="M55.1133 78.5741C58.9276 78.415 63.1189 83.2858 64.3192 86.1279C64.4184 86.3754 65.5444 90.3888 65.4749 90.3844H65.3906C66.0602 91.149 66.7695 91.9756 67.5185 92.8949C68.8924 94.5966 70.4251 96.5326 71.933 98.7382C73.5915 101.098 75.092 103.544 76.4268 106.062C77.9398 108.873 79.1682 111.799 80.0972 114.805L80.127 114.915C80.1716 113.921 80.4097 111.141 80.4544 110.937C81.0992 107.954 84.3034 102.539 88.0929 102.097C90.8259 101.797 92.9835 103.803 93.053 106.155C93.1224 108.506 91.0045 110.845 89.0055 112.255C86.7537 113.841 80.7024 115.167 80.2212 115.273C81.0829 118.353 81.7126 121.48 82.1061 124.635C82.3491 126.474 82.5277 128.33 82.6765 130.195C82.7509 129.311 82.8203 128.564 82.8451 128.458C83.485 125.475 86.6941 120.06 90.4836 119.618C93.2166 119.318 95.3743 121.329 95.4437 123.68C95.5132 126.032 93.3952 128.365 91.4013 129.775C89.4073 131.185 84.2439 132.427 82.8798 132.737C82.9294 133.453 82.989 134.164 83.0336 134.881C83.2618 138.315 83.4701 141.745 83.7925 145.1C83.9066 146.28 84.0653 147.442 84.2191 148.605C84.2835 147.84 84.348 147.199 84.3679 147.102C85.0077 144.118 88.2169 138.704 92.0064 138.262C94.7344 137.961 96.897 139.968 96.9665 142.319C97.0359 144.671 94.918 147.009 92.919 148.419C90.9201 149.829 86.2626 150.952 84.6456 151.323C84.844 152.507 85.0424 153.696 85.2954 154.837C85.4839 155.615 85.6128 156.371 85.8509 157.144C86.089 157.918 86.2924 158.669 86.5106 159.42C87.0066 160.852 87.4729 162.333 87.9738 163.721C88.321 164.689 88.6683 165.604 89.0155 166.528C88.8865 165.352 88.6931 163.045 88.698 162.85C88.9223 160.185 89.9075 157.615 91.56 155.385C91.5716 155.088 91.6131 154.792 91.684 154.501C92.2593 152.202 94.8187 150.611 97.4327 151.385C101.059 152.459 103.003 158.346 102.973 161.383C102.973 161.564 102.705 163.504 102.517 164.729C102.755 164.026 102.968 163.341 103.221 162.616C103.717 161.184 104.213 159.77 104.798 158.245L105.716 156.035C106.004 155.292 106.41 154.545 106.763 153.789C107.611 152.052 108.563 150.328 109.57 148.613C108.161 148.233 103.196 146.815 101.262 145.321C99.3275 143.827 97.3534 141.462 97.5319 139.066C97.7105 136.671 99.9723 134.801 102.685 135.212C106.45 135.782 109.377 141.338 109.863 144.344C109.892 144.534 109.967 146.726 109.987 147.933C110.597 146.903 111.202 145.877 111.862 144.839C113.761 141.886 115.785 138.956 117.814 136.021C118.429 135.137 119.029 134.222 119.634 133.325C119.138 133.192 113.186 131.623 111.023 129.948C109.099 128.458 107.11 126.089 107.293 123.693C107.477 121.298 109.729 119.428 112.442 119.839C116.207 120.409 119.133 125.965 119.619 128.971C119.659 129.201 119.763 132.357 119.743 133.157C121.077 131.177 122.382 129.179 123.582 127.181C125.218 124.48 126.655 121.686 127.883 118.818C127.65 118.756 121.435 117.143 119.217 115.428C117.293 113.943 115.309 111.569 115.487 109.174C115.666 106.778 117.928 104.908 120.641 105.32C124.406 105.89 127.327 111.446 127.818 114.456C127.853 114.69 127.967 118.085 127.937 118.703C128.007 118.535 128.101 118.372 128.17 118.204C129.312 115.298 130.162 112.307 130.71 109.267C131.037 107.591 131.241 105.974 131.404 104.405C130.214 104.21 124.778 103.264 122.59 101.916C120.492 100.626 118.225 98.4641 118.126 96.0641C118.027 93.664 120.026 91.5866 122.769 91.728C126.583 91.9269 130.174 97.1646 131.027 100.126C131.077 100.285 131.345 101.956 131.523 103.18C131.583 102.464 131.662 101.731 131.707 101.045C131.875 98.4774 131.851 96.1171 131.811 94.022C131.776 92.833 131.722 91.759 131.657 90.7557C130.601 90.0175 126.38 87.0075 125.155 84.9566C123.929 82.9057 123.071 80.0946 124.207 77.92C125.343 75.7453 128.21 74.7287 130.571 75.9796C133.855 77.7476 134.336 83.8472 133.572 86.8086C133.502 87.0649 131.96 90.959 131.9 90.9236L131.836 90.8794C131.92 91.843 131.999 92.8817 132.059 94.0176C132.148 96.1127 132.233 98.4774 132.123 101.059C132.043 103.843 131.782 106.62 131.34 109.377C130.859 112.467 130.071 115.513 128.984 118.478C128.972 118.513 128.957 118.547 128.939 118.58C129.594 117.775 131.518 115.57 131.687 115.415C134.068 113.245 140.119 110.288 143.522 111.804C146.002 112.9 146.547 115.636 145.134 117.625C143.72 119.614 140.526 120.529 137.986 120.719C135.124 120.935 129.257 119.07 128.79 118.92C127.581 121.916 126.147 124.837 124.5 127.663C123.567 129.311 122.565 130.947 121.524 132.578C122.114 131.897 122.655 131.291 122.739 131.212C125.12 129.037 131.171 126.085 134.574 127.601C137.054 128.693 137.594 131.428 136.191 133.422C134.787 135.415 131.578 136.326 129.038 136.516C126.499 136.706 121.425 135.212 120.11 134.797C119.708 135.42 119.317 136.043 118.91 136.666C116.975 139.641 115.026 142.602 113.216 145.559C112.581 146.598 111.995 147.645 111.4 148.693C111.931 148.087 112.392 147.584 112.457 147.508C114.838 145.338 120.889 142.381 124.296 143.897C126.777 144.993 127.317 147.729 125.909 149.718C124.5 151.707 121.296 152.622 118.761 152.812C116.281 152.998 111.638 151.65 110.056 151.168C109.491 152.256 108.92 153.343 108.424 154.417C108.102 155.159 107.735 155.853 107.462 156.627C107.189 157.4 106.887 158.116 106.604 158.837C106.108 160.269 105.612 161.741 105.161 163.146C104.848 164.123 104.57 165.06 104.288 166.002C104.908 164.954 106.177 162.934 106.301 162.78C108.285 160.309 113.741 156.592 117.392 157.608C120.011 158.36 121.028 160.985 119.971 163.142C118.915 165.299 115.909 166.638 113.434 167.169C110.706 167.752 104.823 166.771 104.089 166.643C103.628 168.203 103.196 169.737 102.814 171.16C102.73 171.469 102.661 171.748 102.581 172.044H100.195C100.324 171.602 100.453 171.133 100.592 170.665C101.054 169.078 101.584 167.394 102.145 165.67C100.405 164.935 98.7146 164.111 97.0805 163.204C95.0023 164.972 89.8537 166.917 89.1891 167.182C89.7694 168.707 90.3497 170.187 90.9201 171.575L91.1235 172.062H88.7377C88.1623 170.563 87.587 168.968 87.0116 167.319C86.2825 167.412 80.3452 168.159 77.647 167.465C75.2016 166.833 72.2802 165.418 71.3179 163.173C70.3556 160.928 71.5312 158.39 74.1848 157.754C77.8702 156.87 83.1378 160.817 84.9978 163.367C85.1069 163.518 86.089 165.268 86.6892 166.382C86.4461 165.679 86.1932 164.998 85.965 164.274C85.469 162.841 85.0524 161.401 84.5812 159.854C84.3778 159.098 84.1794 158.333 83.976 157.564C83.7727 156.795 83.6338 155.977 83.4552 155.173C83.0882 153.307 82.8203 151.402 82.5922 149.48C81.1885 149.851 76.1441 151.111 73.6293 150.806C71.1145 150.501 67.9798 149.511 66.6455 147.42C65.3112 145.329 66.0404 142.664 68.5551 141.674C72.0272 140.299 77.9297 143.495 80.1964 145.767C80.3403 145.908 81.7589 147.699 82.5178 148.697C82.3938 147.539 82.2648 146.381 82.1805 145.206C81.9374 141.815 81.8134 138.372 81.6845 134.938C81.6448 133.886 81.5853 132.838 81.5357 131.791C81.0397 131.928 75.0876 133.559 72.2603 133.21C69.7356 132.918 66.6108 131.915 65.2765 129.824C63.9423 127.733 64.6714 125.068 67.1862 124.078C70.683 122.703 76.5607 125.899 78.8275 128.171C79.0011 128.343 81.0397 130.92 81.5257 131.601C81.4067 129.289 81.2678 126.991 81.0297 124.728C80.7228 121.671 80.1909 118.635 79.4375 115.64C79.2094 115.707 73.0242 117.408 70.1126 117.072C67.5879 116.776 64.4631 115.777 63.1338 113.687C61.8045 111.596 62.5237 108.931 65.0434 107.941C68.5155 106.566 74.413 109.762 76.6847 112.034C76.8583 112.21 79.0556 114.986 79.4128 115.516C79.3681 115.344 79.3433 115.158 79.2937 114.986C78.4501 112 77.3081 109.087 75.8812 106.283C75.1173 104.727 74.289 103.273 73.4458 101.863C72.3298 102.305 67.211 104.175 64.5573 104.126C62.0078 104.078 58.7788 103.388 57.1966 101.443C55.6143 99.4984 56.0111 96.7757 58.387 95.5469C61.6904 93.8364 67.9302 96.4309 70.4648 98.473C70.5987 98.5835 71.8635 99.8476 72.7662 100.776C72.3744 100.153 71.9825 99.5028 71.5957 98.9105C70.1473 96.7006 68.6643 94.7248 67.3399 93.001C66.5761 92.0242 65.8519 91.1579 65.1823 90.349C63.848 90.2562 58.4663 89.8186 56.1698 88.7092C53.8733 87.5998 51.428 85.6815 51.0262 83.3079C50.6245 80.9344 52.3654 78.6758 55.1133 78.5741Z" fill="#08C0D8"/>
<path d="M73.6241 101.253C73.5646 101.284 72.6767 97.2264 72.6321 96.9657C72.3642 93.9335 73.8523 87.94 77.3838 86.6494C79.9284 85.7168 82.6068 87.1444 83.3359 89.3986C84.0651 91.6528 82.7506 94.4065 81.2428 96.2319C79.5067 98.3801 73.6291 101.249 73.6241 101.253Z" fill="#08C0D8"/>
<path d="M71.5114 164.654C71.5114 164.654 56.4724 164.486 52.9557 159.474H13.6719C13.6719 159.474 16.8662 164.61 21.8262 164.654H71.5114Z" fill="white" stroke="#263238" stroke-width="0.496008" stroke-miterlimit="10"/>
<path d="M51.8145 161.127H19.812C19.812 161.127 20.4073 162.285 18.7754 162.921C19.8041 163.769 21.0952 164.32 22.4806 164.504H63.2227C63.2227 164.504 58.0344 164.062 55.2221 162.603C55.2221 162.603 51.9633 163.028 51.8145 161.127Z" fill="white" stroke="#263238" stroke-width="0.496008" stroke-miterlimit="10"/>
<path d="M65.5789 204.721H155.862V194.767H65.5789V204.721Z" fill="#263238" stroke="#263238" stroke-width="0.496008" stroke-miterlimit="10"/>
<path d="M15.8944 204.721H106.178V194.767H15.8944V204.721Z" fill="white" stroke="#263238" stroke-width="0.496008" stroke-miterlimit="10"/>
<path d="M105.552 197.424H83.5049" stroke="#263238" stroke-width="0.496008" stroke-miterlimit="10"/>
<path d="M101.202 199.638H69.2197" stroke="#263238" stroke-width="0.496008" stroke-miterlimit="10"/>
<path d="M88.4697 201.627H94.0597" stroke="#263238" stroke-width="0.496008" stroke-miterlimit="10"/>
<path d="M96.2373 201.627H105.24" stroke="#263238" stroke-width="0.496008" stroke-miterlimit="10"/>
<path d="M16.4248 201.185H44.6824" stroke="#263238" stroke-width="0.496008" stroke-miterlimit="10"/>
<path d="M18.9102 199.859H22.6352" stroke="#263238" stroke-width="0.496008" stroke-miterlimit="10"/>
<path d="M40.0245 199.638H27.6045" stroke="#263238" stroke-width="0.496008" stroke-miterlimit="10"/>
<path d="M16.4248 196.982H27.2923" stroke="#263238" stroke-width="0.496008" stroke-miterlimit="10"/>
<path d="M154.617 198.971H149.027" stroke="#8A8A8A" stroke-width="0.496008" stroke-miterlimit="10"/>
<path d="M155.863 201.185H138.473" stroke="#8A8A8A" stroke-width="0.496008" stroke-miterlimit="10"/>
<path d="M107.104 202.511H115.492" stroke="#8A8A8A" stroke-width="0.496008" stroke-miterlimit="10"/>
<path d="M106.173 198.971H128.845" stroke="#8A8A8A" stroke-width="0.496008" stroke-miterlimit="10"/>
<path d="M148.407 196.098H135.367" stroke="#8A8A8A" stroke-width="0.496008" stroke-miterlimit="10"/>
<path d="M57.1021 204.5H67.6621V194.767H57.1021V204.5Z" fill="white" stroke="#263238" stroke-width="0.496008" stroke-miterlimit="10"/>
<path d="M64.4188 194.688H154.702V184.734H64.4188V194.688Z" fill="#263238" stroke="#263238" stroke-width="0.496008" stroke-miterlimit="10"/>
<path d="M14.7332 194.688H105.017V184.734H14.7332V194.688Z" fill="white" stroke="#263238" stroke-width="0.496008" stroke-miterlimit="10"/>
<path d="M104.391 187.386H82.3438" stroke="#263238" stroke-width="0.496008" stroke-miterlimit="10"/>
<path d="M100.047 189.596H68.0596" stroke="#263238" stroke-width="0.496008" stroke-miterlimit="10"/>
<path d="M87.3145 191.589H92.9045" stroke="#263238" stroke-width="0.496008" stroke-miterlimit="10"/>
<path d="M95.0771 191.589H104.085" stroke="#263238" stroke-width="0.496008" stroke-miterlimit="10"/>
<path d="M15.2637 191.147H43.5262" stroke="#263238" stroke-width="0.496008" stroke-miterlimit="10"/>
<path d="M17.749 189.817H21.474" stroke="#263238" stroke-width="0.496008" stroke-miterlimit="10"/>
<path d="M38.8693 189.596H26.4443" stroke="#263238" stroke-width="0.496008" stroke-miterlimit="10"/>
<path d="M15.2637 186.944H26.1362" stroke="#263238" stroke-width="0.496008" stroke-miterlimit="10"/>
<path d="M153.462 188.933H147.872" stroke="#8A8A8A" stroke-width="0.496008" stroke-miterlimit="10"/>
<path d="M154.702 191.147H137.312" stroke="#8A8A8A" stroke-width="0.496008" stroke-miterlimit="10"/>
<path d="M105.949 192.473H114.332" stroke="#8A8A8A" stroke-width="0.496008" stroke-miterlimit="10"/>
<path d="M105.017 188.933H127.684" stroke="#8A8A8A" stroke-width="0.496008" stroke-miterlimit="10"/>
<path d="M147.252 186.06H134.207" stroke="#8A8A8A" stroke-width="0.496008" stroke-miterlimit="10"/>
<path d="M55.9468 194.467H66.5068V184.734H55.9468V194.467Z" fill="white" stroke="#263238" stroke-width="0.496008" stroke-miterlimit="10"/>
<path d="M68.0887 184.65H158.372V174.696H68.0887V184.65Z" fill="#263238" stroke="#263238" stroke-width="0.496008" stroke-miterlimit="10"/>
<path d="M18.4041 184.65H108.688V174.696H18.4041V184.65Z" fill="white" stroke="#263238" stroke-width="0.496008" stroke-miterlimit="10"/>
<path d="M108.062 177.348H86.0146" stroke="#263238" stroke-width="0.496008" stroke-miterlimit="10"/>
<path d="M103.712 179.558H71.7295" stroke="#263238" stroke-width="0.496008" stroke-miterlimit="10"/>
<path d="M90.9795 181.552H96.5695" stroke="#263238" stroke-width="0.496008" stroke-miterlimit="10"/>
<path d="M98.7471 181.552H107.75" stroke="#263238" stroke-width="0.496008" stroke-miterlimit="10"/>
<path d="M18.9346 181.109H47.1921" stroke="#263238" stroke-width="0.496008" stroke-miterlimit="10"/>
<path d="M21.4199 179.779H25.1449" stroke="#263238" stroke-width="0.496008" stroke-miterlimit="10"/>
<path d="M42.5343 179.558H30.1143" stroke="#263238" stroke-width="0.496008" stroke-miterlimit="10"/>
<path d="M18.9346 176.906H29.8021" stroke="#263238" stroke-width="0.496008" stroke-miterlimit="10"/>
<path d="M157.127 178.895H151.537" stroke="#8A8A8A" stroke-width="0.496008" stroke-miterlimit="10"/>
<path d="M158.372 181.109H140.982" stroke="#8A8A8A" stroke-width="0.496008" stroke-miterlimit="10"/>
<path d="M109.614 182.436H118.002" stroke="#8A8A8A" stroke-width="0.496008" stroke-miterlimit="10"/>
<path d="M108.683 178.895H131.355" stroke="#8A8A8A" stroke-width="0.496008" stroke-miterlimit="10"/>
<path d="M150.917 176.022H137.877" stroke="#8A8A8A" stroke-width="0.496008" stroke-miterlimit="10"/>
<path d="M59.6119 184.429H70.1719V174.696H59.6119V184.429Z" fill="white" stroke="#263238" stroke-width="0.496008" stroke-miterlimit="10"/>
<path d="M65.287 174.608H155.57V164.654H65.287V174.608Z" fill="#263238" stroke="#263238" stroke-width="0.496008" stroke-miterlimit="10"/>
<path d="M15.6014 174.608H105.885V164.654H15.6014V174.608Z" fill="white" stroke="#263238" stroke-width="0.496008" stroke-miterlimit="10"/>
<path d="M105.264 167.311H83.2119" stroke="#263238" stroke-width="0.496008" stroke-miterlimit="10"/>
<path d="M100.914 169.521H68.9268" stroke="#263238" stroke-width="0.496008" stroke-miterlimit="10"/>
<path d="M88.1826 171.509H93.7726" stroke="#263238" stroke-width="0.496008" stroke-miterlimit="10"/>
<path d="M95.9443 171.509H104.952" stroke="#263238" stroke-width="0.496008" stroke-miterlimit="10"/>
<path d="M16.1318 171.067H44.3944" stroke="#263238" stroke-width="0.496008" stroke-miterlimit="10"/>
<path d="M18.6172 169.741H22.3472" stroke="#263238" stroke-width="0.496008" stroke-miterlimit="10"/>
<path d="M39.7375 169.521H27.3125" stroke="#263238" stroke-width="0.496008" stroke-miterlimit="10"/>
<path d="M16.1318 166.868H27.0043" stroke="#263238" stroke-width="0.496008" stroke-miterlimit="10"/>
<path d="M154.33 168.857H148.74" stroke="#8A8A8A" stroke-width="0.496008" stroke-miterlimit="10"/>
<path d="M155.57 171.067H138.18" stroke="#8A8A8A" stroke-width="0.496008" stroke-miterlimit="10"/>
<path d="M106.817 172.398H115.2" stroke="#8A8A8A" stroke-width="0.496008" stroke-miterlimit="10"/>
<path d="M105.885 168.857H128.552" stroke="#8A8A8A" stroke-width="0.496008" stroke-miterlimit="10"/>
<path d="M148.12 165.98H135.075" stroke="#8A8A8A" stroke-width="0.496008" stroke-miterlimit="10"/>
<path d="M56.815 174.387H67.375V164.654H56.815V174.387Z" fill="white" stroke="#263238" stroke-width="0.496008" stroke-miterlimit="10"/>
<path d="M227.431 52.4302H141.007V204.726H227.431V52.4302Z" fill="#263238" stroke="#263238" stroke-width="0.496008" stroke-miterlimit="10"/>
<path d="M218.087 53.124V79.4893" stroke="#8A8A8A" stroke-width="0.496008" stroke-miterlimit="10"/>
<path d="M223.538 59.7144V70.8174" stroke="#8A8A8A" stroke-width="0.496008" stroke-miterlimit="10"/>
<path d="M220.815 57.2876V96.8333" stroke="#8A8A8A" stroke-width="0.496008" stroke-miterlimit="10"/>
<path d="M225.487 52.4302V104.122" stroke="#8A8A8A" stroke-width="0.496008" stroke-miterlimit="10"/>
<path d="M218.865 204.377V177.317" stroke="#8A8A8A" stroke-width="0.496008" stroke-miterlimit="10"/>
<path d="M221.98 204.726V198.825" stroke="#8A8A8A" stroke-width="0.496008" stroke-miterlimit="10"/>
<path d="M222.76 196.743V172.809" stroke="#8A8A8A" stroke-width="0.496008" stroke-miterlimit="10"/>
<path d="M219.258 173.847V134.646" stroke="#8A8A8A" stroke-width="0.496008" stroke-miterlimit="10"/>
<path d="M215.364 52.4302H128.939V204.726H215.364V52.4302Z" fill="#08C0D8" stroke="#263238" stroke-width="0.496008" stroke-miterlimit="10"/>
<path d="M207.968 63.2059C206.279 63.2025 204.655 62.6231 203.43 61.5867C202.206 60.5502 201.472 59.1353 201.381 57.6323H142.931C142.843 59.1376 142.109 60.555 140.881 61.5921C139.654 62.6292 138.026 63.2069 136.335 63.2059C135.944 63.2051 135.553 63.1725 135.169 63.1087V190.944C135.554 190.882 135.944 190.85 136.335 190.847C137.477 190.847 138.601 191.11 139.595 191.612C140.589 192.114 141.421 192.837 142.009 193.71C142.597 194.583 142.921 195.577 142.95 196.595C142.978 197.613 142.711 198.62 142.173 199.519H202.13C201.591 198.62 201.322 197.613 201.35 196.594C201.378 195.576 201.701 194.581 202.29 193.708C202.878 192.834 203.71 192.111 204.705 191.61C205.701 191.108 206.825 190.845 207.968 190.847C208.359 190.85 208.749 190.882 209.134 190.944V63.0866C208.75 63.1579 208.36 63.1978 207.968 63.2059ZM170.4 151.646C156.745 151.646 145.679 140.932 145.679 127.711C145.679 114.491 156.745 103.773 170.4 103.773C184.055 103.773 195.121 114.491 195.121 127.711C195.121 140.932 184.051 151.646 170.4 151.646Z" fill="white" stroke="#263238" stroke-width="0.496008" stroke-miterlimit="10"/>
<path d="M227.273 119.384H129.326V134.996H227.273V119.384Z" fill="white" stroke="#263238" stroke-width="0.496008" stroke-miterlimit="10"/>
<path d="M227.273 119.384H215.553V134.996H227.273V119.384Z" fill="#3D3D3D" stroke="#8A8A8A" stroke-width="0.496008" stroke-miterlimit="10"/>
<path d="M34.5635 195.254L31.6767 199.112L26.0371 203.09V204.73H45.3269L44.6672 198.984V196.412C44.6672 196.412 36.7955 193.379 34.5635 195.254Z" fill="#263238" stroke="#263238" stroke-width="0.496008" stroke-miterlimit="10"/>
<path d="M45.1533 203.205H26.0371V204.726H45.3269L45.1533 203.205Z" fill="white" stroke="#263238" stroke-width="0.496008" stroke-miterlimit="10"/>
<path d="M66.4169 195.254L69.4922 199.112L75.5087 203.09V204.73H54.9492L55.6486 198.984V196.412C55.6486 196.412 64.041 193.379 66.4169 195.254Z" fill="#263238" stroke="#263238" stroke-width="0.496008" stroke-miterlimit="10"/>
<path d="M55.1327 203.205H75.5087V204.726H54.9492L55.1327 203.205Z" fill="white" stroke="#263238" stroke-width="0.496008" stroke-miterlimit="10"/>
<path d="M25.958 115.22C25.958 115.22 30.4618 160.517 30.7842 169.118C31.1066 177.719 34.162 189.331 34.162 189.331L32.7384 191.337L34.1868 195.779C34.1868 195.779 37.5646 195.063 39.3353 195.638C41.1061 196.213 44.2954 196.929 44.2954 196.929C44.2954 196.929 45.9074 193.057 46.0662 191.337C46.2249 189.618 44.1466 185.459 44.1466 185.459L43.8242 133.714H46.7209L54.1114 188.469L53.789 191.766L55.2374 196.929C55.2374 196.929 63.7637 195.351 64.4036 195.205C64.8923 195.139 65.3919 195.189 65.8519 195.351C65.8519 195.351 66.8439 193.485 66.8439 192.911C66.8439 192.336 65.5543 189.043 65.5543 189.043L65.2319 163.385V114.792L25.9828 114.076L25.958 115.22Z" fill="#08C0D8" stroke="#263238" stroke-width="0.496008" stroke-miterlimit="10"/>
<path d="M63.8484 135.226L64.7263 152.362L60.9814 152.662V154.789L63.7045 154.939" stroke="#263238" stroke-width="0.496008" stroke-linecap="round" stroke-linejoin="round"/>
<path d="M63.1934 122.478L63.7638 133.546" stroke="#263238" stroke-width="0.496008" stroke-linecap="round" stroke-linejoin="round"/>
<path d="M61.5566 164.959C61.6806 168.022 61.9534 170.678 62.5139 170.864C63.878 171.306 64.2152 171.775 64.2152 171.775" stroke="#263238" stroke-width="0.496008" stroke-linecap="round" stroke-linejoin="round"/>
<path d="M61.5065 155.394C61.5065 155.394 61.4172 159.266 61.5065 163.138" stroke="#263238" stroke-width="0.496008" stroke-linecap="round" stroke-linejoin="round"/>
<path d="M39.876 132.185L46.6812 132.64" stroke="#263238" stroke-width="0.496008" stroke-linecap="round" stroke-linejoin="round"/>
<path d="M42.0879 117.625L42.2565 126.116L45.3219 128.092" stroke="#263238" stroke-width="0.496008" stroke-linecap="round" stroke-linejoin="round"/>
<path d="M45.3223 120.657L45.8332 131.124" stroke="#263238" stroke-width="0.496008" stroke-linecap="round" stroke-linejoin="round"/>
<path d="M43.2188 169.202L43.4469 179.664" stroke="#263238" stroke-width="0.496008" stroke-linecap="round" stroke-linejoin="round"/>
<path d="M42.4258 132.79L43.1648 166.616" stroke="#263238" stroke-width="0.496008" stroke-linecap="round" stroke-linejoin="round"/>
<path d="M56.2148 122.023C56.2148 122.023 58.6006 126.421 63.025 125.055" stroke="#263238" stroke-width="0.496008" stroke-linecap="round" stroke-linejoin="round"/>
<path d="M32.3864 122.023C32.3864 122.023 30.6801 125.36 27.957 125.815" stroke="#263238" stroke-width="0.496008" stroke-linecap="round" stroke-linejoin="round"/>
<path d="M42.4951 64.6777L37.3812 66.0568L33.0957 115.03L55.6988 115.353L56.8892 64.996L42.4951 64.6777Z" fill="white" stroke="#263238" stroke-width="0.496008" stroke-miterlimit="10"/>
<path d="M40.6746 62.7638H39.4743L38.8691 64.1606L39.1122 75.9841L46.592 71.6878L53.9478 77.92L54.915 63.8379C54.915 63.8379 55.2771 63.1926 54.1908 62.7638C53.1046 62.3351 52.7425 62.2246 52.7425 62.2246L40.6746 62.7638Z" fill="white" stroke="#263238" stroke-width="0.496008" stroke-miterlimit="10"/>
<path d="M39.9551 59.3163L40.3171 64.1783C40.3171 64.1783 43.7892 70.9498 46.1056 71.9178C48.4219 72.8857 53.7094 63.8557 53.7094 63.8557L53.3473 58.481H39.8311L39.9551 59.3163Z" fill="white" stroke="#263238" stroke-width="0.496008" stroke-miterlimit="10"/>
<path d="M39.9551 59.3164C39.9551 59.3164 44.2951 67.7144 46.8297 68.0282C49.3643 68.342 53.4663 60.2843 53.4663 59.5329C53.4663 58.7815 39.9551 59.3164 39.9551 59.3164Z" fill="#263238" stroke="#263238" stroke-width="0.496008" stroke-miterlimit="10"/>
<path d="M37.6637 52.1206C37.6637 52.1206 35.5705 50.5912 35.2828 52.7128C34.9951 54.8344 38.0456 56.7881 38.0456 56.7881L37.6637 52.1206Z" fill="white" stroke="#263238" stroke-width="0.496008" stroke-miterlimit="10"/>
<path d="M54.6768 52.1206C54.6768 52.1206 56.7749 50.5912 57.0626 52.7128C57.3503 54.8344 54.2998 56.7881 54.2998 56.7881L54.6768 52.1206Z" fill="white" stroke="#263238" stroke-width="0.496008" stroke-miterlimit="10"/>
<path d="M37.2822 52.3725C37.2822 52.3725 38.428 58.3174 39.3804 59.418C40.3327 60.5186 43.2839 64.3419 46.0467 65.0226C48.8095 65.7033 53.0999 60.9473 53.9531 59.334C54.8062 57.7207 55.0988 50.5913 55.0988 50.5913L55.0046 46.7724C55.0046 46.7724 54.7169 43.9701 53.4769 42.4408C52.2369 40.9115 46.9048 39.8949 43.3831 41.106C39.8615 42.317 36.9053 47.789 36.9053 48.894C36.9053 49.999 37.2822 52.3725 37.2822 52.3725Z" fill="white" stroke="#263238" stroke-width="0.496008" stroke-miterlimit="10"/>
<path d="M43.5708 45.7514C43.5708 45.7514 40.5948 48.81 39.2853 49.4023C38.6903 49.6466 38.1167 49.9303 37.5691 50.2509L37.7576 53.8179L36.2349 48.9559C36.2349 48.9559 34.3302 43.7977 34.7221 41.5082C35.1139 39.2186 43.7692 37.0086 46.8197 36.16C49.8701 35.3113 51.011 37.0086 53.0099 38.37C55.0088 39.7313 57.1069 40.7479 56.8242 43.0419C56.5779 44.6375 56.1303 46.2033 55.4899 47.7094C55.4899 47.7094 54.9939 54.0742 54.9939 54.3394C54.9939 54.6046 54.1358 48.0586 54.1358 48.0586C53.6494 47.9446 53.2105 47.7073 52.8724 47.3754C52.5343 47.0436 52.3116 46.6314 52.2311 46.189C51.9779 45.069 51.8122 43.9348 51.7351 42.7944C51.7351 42.7944 50.4951 45.0884 49.2551 46.189C48.0151 47.2895 44.9696 48.3106 44.4934 48.2266C44.0173 48.1426 44.9894 46.105 44.9894 46.105L43.2732 47.5503L43.5708 45.7514Z" fill="#263238" stroke="#263238" stroke-width="0.496008" stroke-miterlimit="10"/>
<path d="M44.335 57.6367C44.8068 58.0108 45.356 58.2991 45.9519 58.4854C46.7158 58.6533 48.0501 57.6367 48.432 57.3804" stroke="#263238" stroke-width="0.496008" stroke-miterlimit="10"/>
<path d="M44.0479 60.0147C44.0479 60.0147 46.2402 61.5396 49.1915 59.7583L44.0479 60.0147Z" fill="white"/>
<path d="M44.0479 60.0147C44.0479 60.0147 46.2402 61.5396 49.1915 59.7583" stroke="#263238" stroke-width="0.496008" stroke-miterlimit="10"/>
<path d="M42.5692 54.5781C42.9117 54.5781 43.1892 54.1606 43.1892 53.6455C43.1892 53.1304 42.9117 52.7129 42.5692 52.7129C42.2268 52.7129 41.9492 53.1304 41.9492 53.6455C41.9492 54.1606 42.2268 54.5781 42.5692 54.5781Z" fill="#263238"/>
<path d="M49.8114 54.5781C50.1538 54.5781 50.4314 54.1606 50.4314 53.6455C50.4314 53.1304 50.1538 52.7129 49.8114 52.7129C49.469 52.7129 49.1914 53.1304 49.1914 53.6455C49.1914 54.1606 49.469 54.5781 49.8114 54.5781Z" fill="#263238"/>
<path d="M48.333 50.6754C48.9471 50.3887 49.6476 50.2834 50.3332 50.3748C51.0189 50.4662 51.6542 50.7494 52.1473 51.1837" stroke="#263238" stroke-width="0.496008" stroke-miterlimit="10"/>
<path d="M43.2838 50.5913C42.7985 50.3352 42.2277 50.2391 41.671 50.3199C41.1144 50.4007 40.6072 50.6532 40.2383 51.0333" stroke="#263238" stroke-width="0.496008" stroke-miterlimit="10"/>
<path d="M50.0488 55.2588L52.1469 54.8345" stroke="#263238" stroke-width="0.496008" stroke-miterlimit="10"/>
<path d="M40.4268 54.7505L42.1429 55.2588" stroke="#263238" stroke-width="0.496008" stroke-miterlimit="10"/>
<path d="M38.9876 75.1397L37.9014 121.55L25.5012 121.015L24.7522 119.738C24.7522 119.738 23.0658 119.738 22.8227 118.553C22.5797 117.368 24.5092 91.3567 24.5092 91.3567L13.8896 90.4948L21.0074 78.1188C21.0074 78.1188 23.1799 69.5175 23.661 68.8722C24.1421 68.2268 39.2257 63.6035 39.2257 63.6035L38.9876 75.1397Z" fill="#263238" stroke="#263238" stroke-width="0.496008" stroke-miterlimit="10"/>
<path d="M54.4338 63.3296L52.6631 121.674L68.5849 121.528L69.2298 119.38L70.8368 118.376V113.788C70.8368 111.494 67.7814 94.8663 67.7814 94.8663C67.7814 94.8663 75.8267 93.8629 75.9854 92.4309C76.1441 90.9988 72.6076 69.354 70.6781 67.7761C68.7486 66.1982 54.4338 63.3296 54.4338 63.3296Z" fill="#263238" stroke="#263238" stroke-width="0.496008" stroke-miterlimit="10"/>
<path d="M58.4268 96.5988L60.5447 102.035C60.5447 102.035 61.7699 99.41 61.5863 97.7569C61.4028 96.1038 61.3978 95.6043 60.8423 95.5204C60.2868 95.4364 58.5309 95.1093 58.4268 96.5988Z" fill="white" stroke="#263238" stroke-width="0.496008" stroke-miterlimit="10"/>
<path d="M37.2617 82.4726L44.0421 94.4773L51.1946 91.3303L45.1582 78.667L37.2617 82.4726Z" fill="#08C0D8" stroke="#263238" stroke-width="0.496008" stroke-miterlimit="10"/>
<path d="M49.0228 90.8485C48.9416 90.6573 48.9481 90.4454 49.0409 90.2584C49.1337 90.0715 49.3054 89.9246 49.5188 89.8496C49.5583 89.8454 49.5983 89.8454 49.6378 89.8496L45.1737 80.5278C45.1331 80.6149 45.071 80.6927 44.992 80.7555C44.913 80.8182 44.8191 80.8643 44.7174 80.8903C44.5649 80.9219 44.4052 80.9118 44.2592 80.8614C44.1132 80.8109 43.9877 80.7224 43.899 80.6074L39.1869 82.866C39.2477 82.9472 39.2929 83.0368 39.3208 83.1312C39.3866 83.3004 39.3882 83.4841 39.3255 83.6542C39.2628 83.8242 39.1392 83.9713 38.9736 84.0727L43.6807 92.3779C43.7649 92.2946 43.8729 92.2335 43.9932 92.2011C44.1929 92.1673 44.3996 92.1981 44.576 92.2881C44.7524 92.378 44.887 92.5212 44.9555 92.6917L49.0376 90.8971L49.0228 90.8485ZM44.9952 88.7004C44.1272 88.917 43.1897 88.3468 42.8971 87.423C42.6044 86.4992 43.0657 85.5711 43.9288 85.3545C44.7918 85.1379 45.7342 85.7081 46.0269 86.6319C46.3195 87.5556 45.8582 88.4794 44.9952 88.7004Z" fill="white" stroke="#263238" stroke-width="0.496008" stroke-miterlimit="10"/>
<path d="M40.1641 80.9963L43.7849 94.0397L51.5425 92.3866L48.8095 78.8481L40.1641 80.9963Z" fill="#08C0D8" stroke="#263238" stroke-width="0.496008" stroke-miterlimit="10"/>
<path d="M49.543 91.4942C49.5262 91.3929 49.5319 91.2896 49.56 91.1903C49.588 91.091 49.6378 90.9976 49.7065 90.9154C49.7752 90.8333 49.8614 90.764 49.9601 90.7117C50.0589 90.6593 50.1683 90.6248 50.2821 90.6102C50.3216 90.6059 50.3616 90.6059 50.4011 90.6102L48.4171 80.6431C48.355 80.7195 48.2748 80.7829 48.1823 80.8287C48.0897 80.8745 47.987 80.9017 47.8814 80.9083C47.7237 80.9074 47.5699 80.865 47.4393 80.7863C47.3086 80.7077 47.207 80.5963 47.1473 80.4663L41.9591 81.7702C42 81.8619 42.0235 81.959 42.0285 82.0575C42.0501 82.2356 42.0056 82.4151 41.9016 82.5684C41.7977 82.7217 41.6401 82.8404 41.4531 82.9062L43.958 91.9362C44.0602 91.8725 44.1806 91.8357 44.3052 91.8301C44.5078 91.8343 44.7018 91.9038 44.8514 92.0257C45.001 92.1476 45.0959 92.3137 45.1186 92.4931L49.548 91.5517L49.543 91.4942ZM46.1305 88.5947C45.2327 88.6389 44.4589 87.8963 44.4044 86.9372C44.3498 85.978 45.0293 85.1692 45.9271 85.125C46.8249 85.0808 47.5937 85.8278 47.6532 86.7869C47.7127 87.746 47.0481 88.5549 46.1305 88.5947Z" fill="white" stroke="#263238" stroke-width="0.496008" stroke-miterlimit="10"/>
<path d="M44.4544 79.9888L43.6211 93.4035L51.582 93.8543L53.4272 80.1921L44.4544 79.9888Z" fill="#08C0D8" stroke="#263238" stroke-width="0.496008" stroke-miterlimit="10"/>
<path d="M49.9643 92.4708C50.0009 92.2684 50.1257 92.0872 50.3114 91.9663C50.4971 91.8455 50.7289 91.7949 50.9563 91.8254C50.9977 91.8341 51.0377 91.8475 51.0753 91.8652L52.4344 81.8053C52.3504 81.8633 52.2529 81.9037 52.149 81.9236C52.0451 81.9435 51.9375 81.9423 51.8342 81.9202C51.6837 81.8799 51.5502 81.8002 51.4511 81.6914C51.352 81.5827 51.292 81.4499 51.2787 81.3103L45.9169 81.1909C45.9265 81.2875 45.9164 81.3848 45.8871 81.4782C45.8497 81.6544 45.7483 81.8147 45.5987 81.9345C45.449 82.0543 45.2593 82.1269 45.0588 82.1412L44.4834 91.4232C44.6049 91.3921 44.7339 91.3921 44.8554 91.4232C45.0479 91.4818 45.2101 91.6004 45.3122 91.7572C45.4143 91.9139 45.4494 92.0983 45.4109 92.2763L49.9593 92.5326C49.9551 92.512 49.9568 92.4907 49.9643 92.4708ZM47.6727 88.8154C46.8047 88.6209 46.3087 87.7104 46.5716 86.7778C46.8345 85.8452 47.7521 85.2485 48.6251 85.4518C49.498 85.6551 49.9841 86.5612 49.7262 87.4938C49.4683 88.4265 48.5457 89.0099 47.6727 88.8154Z" fill="white" stroke="#263238" stroke-width="0.496008" stroke-miterlimit="10"/>
<path d="M60.8423 93.1205C59.9654 93.0032 59.0973 92.8378 58.2432 92.6255C57.8712 92.462 55.1779 91.631 53.0401 90.6409C50.9023 89.6508 49.1415 90.6409 46.096 91.136C43.0505 91.631 42.1924 91.799 42.1924 92.462C42.1924 93.125 43.7746 93.2885 43.7746 93.2885C43.7746 93.2885 42.2866 93.452 43.0306 94.3626C43.4689 94.9036 44.0864 95.3086 44.7964 95.5206C45.2078 96.128 45.7427 96.6616 46.3737 97.0941C47.3013 97.6731 47.951 98.1726 47.951 98.1726C48.5327 98.8181 49.306 99.3051 50.1831 99.5782C51.4826 99.9097 58.8186 97.9207 58.8186 97.9207C58.8186 97.9207 61.0456 98.4997 61.6061 97.4256C62.1666 96.3516 60.8423 93.1205 60.8423 93.1205Z" fill="white" stroke="#263238" stroke-width="0.496008" stroke-linecap="round" stroke-linejoin="round"/>
<path d="M43.7549 93.2885C43.7549 93.2885 49.3251 93.1205 51.0908 92.6255" stroke="#263238" stroke-width="0.496008" stroke-linecap="round" stroke-linejoin="round"/>
<path d="M44.7764 95.5204C46.3117 95.7395 47.8641 95.8504 49.419 95.8519C50.3346 95.8357 51.2299 95.6088 52.0181 95.1934" stroke="#263238" stroke-width="0.496008" stroke-linecap="round" stroke-linejoin="round"/>
<path d="M47.123 97.5938C47.123 97.5938 50.3719 98.4777 52.5791 97.8413" stroke="#263238" stroke-width="0.496008" stroke-linecap="round" stroke-linejoin="round"/>
<path d="M63.5999 78.9546L65.3707 91.282L60.3809 92.5726C60.3809 92.5726 61.1894 96.2987 60.8769 98.0225C60.6671 99.3522 60.5594 100.693 60.5545 102.036C60.5545 102.036 66.0105 100.458 69.562 100.171C73.1134 99.8833 76.1589 98.4512 77.1211 96.1572C78.0834 93.8632 75.0329 85.9912 75.0329 85.9912" fill="#263238"/>
<path d="M63.5999 78.9546L65.3707 91.282L60.3809 92.5726C60.3809 92.5726 61.1894 96.2987 60.8769 98.0225C60.6671 99.3522 60.5594 100.693 60.5545 102.036C60.5545 102.036 66.0105 100.458 69.562 100.171C73.1134 99.8833 76.1589 98.4512 77.1211 96.1572C78.0834 93.8632 75.0329 85.9912 75.0329 85.9912" stroke="#263238" stroke-width="0.496008" stroke-miterlimit="10"/>
<path d="M62.9404 92.2101L65.3709 91.2819L71.5214 89.8101" stroke="#6B6B6B" stroke-width="0.496008" stroke-miterlimit="10"/>
<path d="M65.3706 91.2816L63.4609 76.7222" stroke="#6B6B6B" stroke-width="0.496008" stroke-miterlimit="10"/>
<path d="M33.9185 90.999C33.9185 90.999 32.8075 86.6143 32.3412 85.7834C31.875 84.9524 29.3652 87.2773 29.1816 88.0199C28.9981 88.7625 33.1745 91.083 33.9185 90.999Z" fill="white" stroke="#263238" stroke-width="0.496008" stroke-miterlimit="10"/>
<path d="M31.4935 81.77L29.0928 84.2806C29.0928 84.2806 29.7624 87.958 30.2981 88.1039C30.8338 88.2497 34.6629 85.6198 34.6629 85.6198L31.4935 81.77Z" fill="white" stroke="#263238" stroke-width="0.496008" stroke-miterlimit="10"/>
<path d="M35.9527 76.7357C35.9527 76.7357 31.7714 80.3778 31.4886 81.7834C31.2059 83.1889 34.182 85.8409 34.554 86.0884C34.926 86.336 37.6193 84.4309 37.7086 84.0994C37.7979 83.7679 35.9477 81.2043 35.9477 81.2043C36.8 81.5764 37.628 81.9911 38.4278 82.4464C38.7055 82.6939 40.4713 84.9304 41.1211 84.7624C41.7709 84.5945 41.4931 83.5204 41.1211 82.5303C40.7491 81.5403 36.7562 78.2253 36.7562 78.2253L39.4496 78.8043C39.4496 78.8043 42.6091 81.5358 43.3531 81.5358C44.0972 81.5358 43.7251 80.8728 43.2589 80.2938C42.7927 79.7148 40.5656 77.3987 40.01 76.8197C39.4545 76.2407 37.3167 75.9092 37.034 75.9092C36.7513 75.9092 35.9527 76.7357 35.9527 76.7357Z" fill="white" stroke="#263238" stroke-width="0.496008" stroke-linecap="round" stroke-linejoin="round"/>
<path d="M35.9529 81.2044L34.6533 80.0464" stroke="#263238" stroke-width="0.496008" stroke-linecap="round" stroke-linejoin="round"/>
<path d="M32.9814 81.4517L36.3245 85.0937" stroke="#263238" stroke-width="0.496008" stroke-linecap="round" stroke-linejoin="round"/>
<path d="M28.9985 83.8828C28.9985 83.8828 29.6483 85.8674 30.0203 87.1094C30.3923 88.3514 33.9189 90.999 33.9189 90.999C33.9189 90.999 28.9043 95.7151 24.4452 97.7837C19.9861 99.8523 14.7482 98.8136 13.1709 97.1605C11.5936 95.5074 12.2434 90.7073 13.5429 89.7128C14.8425 88.7183 22.4016 87.4409 24.2617 86.5304C26.1217 85.6199 28.9985 83.8828 28.9985 83.8828Z" fill="#263238" stroke="#263238" stroke-width="0.496008" stroke-miterlimit="10"/>
<path d="M28.999 83.8828L16.7773 89.2045" stroke="#6B6B6B" stroke-width="0.496008" stroke-miterlimit="10"/>
<path d="M27.4111 84.581V79.498" stroke="#6B6B6B" stroke-width="0.496008" stroke-miterlimit="10"/>
<path d="M108.746 196.381C108.746 196.381 107.258 196.756 103.29 194.135C99.3223 191.514 94.6797 187.77 94.6797 187.77C94.6797 187.77 99.2628 187.222 101.381 186.228C103.712 185.127 106.44 182.528 106.44 182.528C106.44 182.528 115.681 193.76 127.238 193.013C127.037 193.97 126.568 194.867 125.874 195.62C125.181 196.372 124.285 196.956 123.27 197.318C119.669 198.626 108.746 196.381 108.746 196.381Z" fill="#08C0D8" stroke="#263238" stroke-width="0.496008" stroke-linejoin="round"/>
<path d="M123.741 194.299C123.741 194.299 113.93 192.005 108.628 186.988C108.372 187.05 108.105 187.061 107.844 187.02C107.583 186.978 107.336 186.885 107.121 186.748C106.905 186.611 106.726 186.433 106.598 186.227C106.469 186.021 106.393 185.792 106.376 185.556C104.522 187.107 102.146 188.069 99.6154 188.292C99.6154 188.292 99.7741 189.295 99.293 189.583C99.293 189.583 106.852 195.461 111.197 196.177C114.213 196.715 117.3 196.864 120.363 196.619C121.686 196.495 122.929 195.993 123.905 195.187C123.905 195.187 122.293 194.874 123.741 194.299ZM114.476 193.976C114.124 194.75 112.373 194.86 110.562 194.188C108.752 193.517 107.586 192.381 107.914 191.612C108.241 190.842 110.017 190.728 111.827 191.399C113.638 192.071 114.823 193.207 114.476 193.976Z" fill="white" stroke="#263238" stroke-width="0.496008" stroke-miterlimit="10"/>
<path d="M107.259 196.146C107.259 196.146 112.318 198.003 116.311 198.003C118.648 198.015 120.978 197.785 123.255 197.318C123.255 197.318 121.891 197.981 119.674 196.712C118.409 195.987 117.596 194.374 117.596 194.374C114.259 195.389 110.78 195.985 107.259 196.146Z" fill="#08C0D8" stroke="#263238" stroke-width="0.496008" stroke-linejoin="round"/>
<path d="M164.091 177.268C164.091 177.268 173.302 174.568 178.688 171.363L184.417 179.761C184.417 179.761 170.717 189.269 167.121 186.767L164.091 177.268Z" fill="#08C0D8" stroke="#263238" stroke-width="0.496008" stroke-linejoin="round"/>
<path d="M180.489 179.271C180.501 179.028 180.6 178.796 180.773 178.609C180.946 178.422 181.182 178.289 181.446 178.232L178.902 174.471C178.689 174.535 178.467 174.568 178.242 174.568C177.97 174.581 177.697 174.535 177.449 174.433C177.201 174.331 176.985 174.177 176.819 173.984C172.062 176.95 164.766 178.471 164.766 178.471L166.224 183.576C166.224 183.576 166.001 186.378 169.929 185.675C172.975 185.132 178.703 181.697 181.139 180.199C180.947 180.11 180.786 179.977 180.672 179.814C180.558 179.65 180.495 179.463 180.489 179.271ZM170.673 183.028C168.952 183.377 167.35 182.855 167.092 181.861C166.834 180.866 168.024 179.77 169.746 179.417C171.467 179.063 173.074 179.589 173.332 180.583C173.59 181.578 172.399 182.674 170.673 183.028Z" fill="white" stroke="#263238" stroke-width="0.496008" stroke-miterlimit="10"/>
<path d="M162.742 173.467L169.031 184.575C169.031 184.575 166.898 185.574 167.121 186.785L161.06 176.177C161.06 176.177 160.272 174.466 162.742 173.467Z" fill="#08C0D8" stroke="#263238" stroke-width="0.496008" stroke-linejoin="round"/>
<path d="M161.596 177.109L166.268 185.277C166.467 184.885 166.82 184.571 167.26 184.393L162.067 176.27L161.596 177.109Z" fill="white" stroke="#263238" stroke-width="0.496008" stroke-miterlimit="10"/>
<path d="M94.4863 115.269L94.5855 136.561L107.055 136.512L107.095 114.788L94.4863 115.269Z" fill="#08C0D8" stroke="#263238" stroke-width="0.496008" stroke-miterlimit="10"/>
<path d="M104.322 134.47C104.333 134.311 104.379 134.155 104.458 134.012C104.537 133.869 104.647 133.742 104.782 133.637C104.917 133.533 105.074 133.453 105.244 133.404C105.413 133.354 105.593 133.334 105.771 133.347C105.833 133.359 105.895 133.375 105.954 133.396L105.93 117.188C105.819 117.276 105.688 117.342 105.546 117.379C105.403 117.417 105.253 117.425 105.106 117.404C104.888 117.356 104.69 117.253 104.536 117.106C104.383 116.959 104.281 116.775 104.243 116.578L96.7236 116.865C96.7481 117.003 96.7481 117.143 96.7236 117.28C96.6986 117.532 96.5801 117.769 96.387 117.954C96.1939 118.139 95.9371 118.261 95.6572 118.301V133.329C95.8396 133.264 96.0385 133.244 96.2326 133.272C96.5417 133.352 96.8099 133.525 96.991 133.763C97.1721 134 97.2547 134.286 97.2246 134.571L104.347 134.545C104.322 134.51 104.318 134.487 104.322 134.47ZM100.196 128.874C98.8118 128.649 97.8992 127.248 98.1571 125.74C98.415 124.233 99.7592 123.194 101.133 123.424C102.507 123.654 103.435 125.051 103.172 126.558C102.909 128.065 101.565 129.104 100.196 128.874Z" fill="white" stroke="#263238" stroke-width="0.496008" stroke-miterlimit="10"/>
<path d="M211.082 25.1807L193.692 40.6772L202.769 48.7658L220.616 33.0483L211.082 25.1807Z" fill="#08C0D8" stroke="#263238" stroke-width="0.496008" stroke-miterlimit="10"/>
<path d="M202.462 45.5261C202.601 45.4158 202.763 45.3315 202.938 45.2781C203.114 45.2248 203.3 45.2034 203.485 45.2154C203.67 45.2273 203.851 45.2723 204.016 45.3477C204.181 45.4231 204.327 45.5274 204.446 45.6542C204.484 45.7043 204.515 45.7576 204.541 45.8134L217.809 34.0341C217.655 34.027 217.506 33.9891 217.371 33.9233C217.236 33.8575 217.12 33.7654 217.03 33.6539C216.911 33.4765 216.853 33.272 216.863 33.0654C216.872 32.8589 216.95 32.6594 217.085 32.4915L211.391 27.7842C211.293 27.8997 211.178 28.0024 211.048 28.0892C210.824 28.2559 210.542 28.3504 210.25 28.3576C209.958 28.3648 209.671 28.2843 209.436 28.1289L197.101 39.0021C197.286 39.0706 197.445 39.1839 197.562 39.3292C197.725 39.5881 197.78 39.8899 197.719 40.1817C197.657 40.4734 197.482 40.7365 197.225 40.9248L202.408 45.5482L202.462 45.5261ZM204.05 38.7723C203.226 37.7071 203.717 36.0938 205.141 35.17C206.564 34.2462 208.39 34.37 209.208 35.4352C210.027 36.5004 209.536 38.1181 208.112 39.0375C206.688 39.9569 204.853 39.8198 204.05 38.7502V38.7723Z" fill="white" stroke="#263238" stroke-width="0.496008" stroke-miterlimit="10"/>
<path d="M91.267 90.1413L115.462 81.6151L110.468 70.3618L85.7217 78.9322L91.267 90.1413Z" fill="#08C0D8" stroke="#263238" stroke-width="0.496008" stroke-miterlimit="10"/>
<path d="M109.223 73.6414C108.345 73.8138 107.517 73.4293 107.373 72.7574C107.368 72.6942 107.368 72.6307 107.373 72.5674L88.9262 79.0117C89.0719 79.0765 89.1994 79.1698 89.299 79.2846C89.3986 79.3994 89.4679 79.5328 89.5015 79.6747C89.5327 79.891 89.4925 80.1106 89.386 80.3068C89.2794 80.503 89.111 80.6674 88.9014 80.7797L92.1998 87.5158C92.3554 87.4401 92.5225 87.3851 92.6958 87.3523C92.992 87.2745 93.3089 87.2875 93.5958 87.3893C93.8827 87.491 94.123 87.6757 94.2781 87.9136L111.385 81.982C111.237 81.847 111.135 81.6766 111.093 81.4914C111.054 81.1784 111.141 80.8633 111.34 80.6025C111.538 80.3417 111.834 80.1523 112.174 80.0681L109.317 73.637L109.223 73.6414ZM104.501 79.604C104.793 80.93 103.558 82.3312 101.738 82.698C99.9177 83.0649 98.2114 82.256 97.9188 80.93C97.6262 79.604 98.8612 78.2073 100.682 77.836C102.502 77.4647 104.208 78.2603 104.501 79.604Z" fill="white" stroke="#263238" stroke-width="0.496008" stroke-miterlimit="10"/>
<path d="M176.665 25.1101C176.665 25.1101 178.153 25.4592 180.068 29.5301C181.982 33.6009 183.818 38.9226 183.818 38.9226C183.818 38.9226 179.562 37.3048 177.171 37.1943C174.532 37.075 170.698 38.0783 170.698 38.0783C170.698 38.0783 169.21 24.2128 158.849 19.5939C159.57 18.855 160.49 18.2916 161.522 17.9568C162.555 17.622 163.666 17.5268 164.751 17.68C168.57 18.2016 176.665 25.1101 176.665 25.1101Z" fill="#08C0D8" stroke="#263238" stroke-width="0.496008" stroke-linejoin="round"/>
<path d="M162.588 20.0623C162.588 20.0623 169.701 26.5199 171.382 33.2339C171.637 33.2978 171.873 33.4112 172.072 33.566C172.272 33.7209 172.43 33.9132 172.537 34.1292C172.643 34.3452 172.694 34.5794 172.687 34.8152C172.679 35.0509 172.613 35.2822 172.493 35.4925C174.976 35.0123 177.567 35.2765 179.864 36.2439C179.864 36.2439 180.3 35.3069 180.881 35.2803C180.881 35.2803 177.756 26.7851 174.433 24.1906C172.145 22.3561 169.574 20.8231 166.799 19.638C165.59 19.1454 164.235 19.0122 162.935 19.2578C162.935 19.2578 164.18 20.2302 162.588 20.0623ZM170.365 24.5618C171.104 24.0624 172.667 24.7784 173.837 26.1663C175.008 27.5542 175.375 29.0835 174.631 29.5874C173.887 30.0913 172.329 29.3708 171.159 27.9829C169.988 26.595 169.636 25.0657 170.365 24.5618Z" fill="white" stroke="#263238" stroke-width="0.496008" stroke-miterlimit="10"/>
<path d="M177.811 25.9898C177.811 25.9898 174.527 22.1002 171.095 20.2659C169.099 19.1892 166.97 18.3216 164.751 17.6802C164.751 17.6802 166.303 17.7332 167.479 19.8327C168.149 21.035 167.925 22.7897 167.925 22.7897C171.371 23.4442 174.698 24.5211 177.811 25.9898Z" fill="#08C0D8" stroke="#263238" stroke-width="0.496008" stroke-linejoin="round"/>
<path d="M48.3079 13.9673L50.7037 21.7907C50.7037 21.7907 38.73 29.6936 20.6406 27.4792L21.6326 19.0238C21.6326 19.0238 28.7256 20.2879 35.1985 19.1033C41.6714 17.9188 48.3079 13.9673 48.3079 13.9673Z" fill="#08C0D8" stroke="#263238" stroke-width="0.496008" stroke-miterlimit="10"/>
<path d="M46.9393 21.4458C46.9642 21.2534 47.0546 21.0724 47.1982 20.9271C47.3418 20.7817 47.5318 20.6789 47.7428 20.6325L46.3292 17.154C46.1229 17.2155 45.9068 17.2468 45.6893 17.2468C45.3151 17.2523 44.9486 17.1517 44.6427 16.9595C42.6587 17.8877 38.9337 19.5054 35.2186 20.1905C31.8346 20.7316 28.3833 20.8565 24.9611 20.5618C24.8286 20.6883 24.6655 20.7863 24.4842 20.8483C24.3029 20.9104 24.1081 20.9348 23.9146 20.9198L23.4434 25.658C23.5624 25.658 23.6864 25.658 23.8104 25.658C24.8024 25.658 25.5812 25.9232 25.5812 26.2503C25.575 26.3028 25.5552 26.3533 25.5233 26.3978C25.4915 26.4423 25.4484 26.4795 25.3976 26.5067C36.8901 26.8956 44.9354 23.3552 47.3757 22.1176C47.2462 22.0466 47.1385 21.9481 47.0623 21.8308C46.9861 21.7135 46.9438 21.5812 46.9393 21.4458ZM35.5658 23.9166C33.8099 24.2304 32.2723 23.9652 32.1285 23.3243C31.9846 22.6834 33.2891 21.9143 35.045 21.6005C36.8009 21.2867 38.3385 21.5519 38.4823 22.1928C38.6262 22.8337 37.3217 23.6027 35.5658 23.9166Z" fill="white" stroke="#263238" stroke-width="0.496008" stroke-miterlimit="10"/>
<path d="M209.853 188.19L212.244 196.014C212.244 196.014 200.275 203.917 182.181 201.702L183.173 193.247C183.173 193.247 190.266 194.511 196.743 193.326C203.221 192.142 209.853 188.19 209.853 188.19Z" fill="#08C0D8" stroke="#263238" stroke-width="0.496008" stroke-miterlimit="10"/>
<path d="M208.479 195.673C208.503 195.48 208.593 195.298 208.736 195.152C208.88 195.006 209.071 194.902 209.282 194.856L207.869 191.386C207.662 191.444 207.446 191.474 207.229 191.474C206.847 191.483 206.472 191.384 206.158 191.191C204.218 192.115 200.473 193.733 196.763 194.418C193.379 194.959 189.928 195.084 186.506 194.789C186.373 194.916 186.21 195.014 186.029 195.076C185.847 195.138 185.653 195.162 185.459 195.147L185.013 199.886C185.132 199.886 185.256 199.886 185.385 199.886C186.377 199.886 187.15 200.146 187.15 200.473C187.144 200.526 187.125 200.576 187.093 200.621C187.061 200.665 187.018 200.703 186.967 200.73C198.459 201.123 206.505 197.583 208.95 196.341C208.815 196.274 208.701 196.178 208.618 196.061C208.536 195.944 208.488 195.811 208.479 195.673ZM197.105 198.14C195.35 198.453 193.812 198.188 193.668 197.552C193.524 196.915 194.829 196.137 196.585 195.824C198.34 195.51 199.878 195.779 200.022 196.416C200.166 197.052 198.861 197.83 197.105 198.14Z" fill="white" stroke="#263238" stroke-width="0.496008" stroke-miterlimit="10"/>
<path d="M84.4424 23.9388C84.4424 23.9388 93.6483 21.2382 99.0399 18.0337L104.769 26.4317C104.769 26.4317 91.069 35.948 87.473 33.4462L84.4424 23.9388Z" fill="#08C0D8" stroke="#263238" stroke-width="0.496008" stroke-linejoin="round"/>
<path d="M100.835 25.9411C100.847 25.6985 100.948 25.4662 101.122 25.2789C101.295 25.0916 101.532 24.9595 101.797 24.9024L99.2475 21.141C99.0369 21.2059 98.8156 21.2388 98.5927 21.2382C98.3201 21.2513 98.0481 21.2049 97.8 21.1033C97.552 21.0016 97.3355 20.8477 97.1692 20.6548C92.4125 23.6206 85.1162 25.1411 85.1162 25.1411L86.5745 30.2462C86.5745 30.2462 86.3513 33.0485 90.2796 32.3457C93.3202 31.802 99.0491 28.3677 101.489 26.8693C101.297 26.7809 101.135 26.6481 101.02 26.4849C100.905 26.3216 100.841 26.1338 100.835 25.9411ZM91.0237 29.6981C89.3025 30.0473 87.6954 29.5257 87.4425 28.5312C87.1895 27.5367 88.375 26.4406 90.0961 26.087C91.8173 25.7334 93.4243 26.2593 93.6823 27.2583C93.9402 28.2572 92.7547 29.3445 91.0237 29.6981Z" fill="white" stroke="#263238" stroke-width="0.496008" stroke-miterlimit="10"/>
<path d="M83.0926 20.1377L89.382 31.2452C89.382 31.2452 87.2492 32.2441 87.4724 33.4552L81.4062 22.8472C81.4062 22.8472 80.6225 21.1366 83.0926 20.1377Z" fill="#08C0D8" stroke="#263238" stroke-width="0.496008" stroke-linejoin="round"/>
<path d="M81.9473 23.7797L86.6147 31.9479C86.8135 31.5554 87.1663 31.2411 87.6067 31.0639L82.4185 22.9399L81.9473 23.7797Z" fill="white" stroke="#263238" stroke-width="0.496008" stroke-miterlimit="10"/>
<path d="M161.457 73.2041L144.067 88.7006L153.144 96.7848L170.996 81.0673L161.457 73.2041Z" fill="#08C0D8" stroke="#263238" stroke-width="0.496008" stroke-miterlimit="10"/>
<path d="M152.841 93.5274C152.98 93.4172 153.141 93.3328 153.317 93.2795C153.493 93.2261 153.679 93.2048 153.864 93.2167C154.049 93.2287 154.229 93.2737 154.394 93.3491C154.56 93.4245 154.706 93.5287 154.825 93.6556C154.861 93.7058 154.891 93.7591 154.914 93.8147L168.198 82.0487C168.044 82.0429 167.895 82.0056 167.761 81.9396C167.626 81.8737 167.511 81.7809 167.424 81.6685C167.304 81.4915 167.245 81.2872 167.254 81.0807C167.263 80.8742 167.339 80.6745 167.473 80.5061L161.779 75.8076C161.683 75.9228 161.568 76.0242 161.437 76.1082C161.213 76.2763 160.932 76.3721 160.64 76.3801C160.347 76.3881 160.06 76.3079 159.825 76.1524L147.489 87.0212C147.674 87.0916 147.834 87.2064 147.951 87.3527C148.114 87.6116 148.169 87.9134 148.107 88.2051C148.046 88.4969 147.871 88.7599 147.613 88.9483L152.772 93.5672L152.841 93.5274ZM154.423 86.7736C153.605 85.704 154.096 84.0951 155.52 83.1713C156.943 82.2476 158.764 82.3713 159.582 83.4365C160.4 84.5018 159.914 86.1151 158.486 87.0388C157.057 87.9626 155.252 87.8389 154.423 86.7736Z" fill="white" stroke="#263238" stroke-width="0.496008" stroke-miterlimit="10"/>
<path d="M193.246 111.013L217.01 113.223L218.299 102.173L194.069 99.7905L193.246 111.013Z" fill="#08C0D8" stroke="#263238" stroke-width="0.496008" stroke-miterlimit="10"/>
<path d="M215.726 104.37C215.55 104.343 215.382 104.285 215.231 104.2C215.08 104.115 214.95 104.004 214.848 103.874C214.746 103.743 214.674 103.596 214.637 103.441C214.599 103.285 214.597 103.125 214.629 102.968C214.651 102.913 214.677 102.86 214.709 102.809L196.619 101.081C196.707 101.189 196.767 101.312 196.793 101.443C196.82 101.574 196.813 101.709 196.773 101.837C196.698 102.022 196.565 102.184 196.389 102.303C196.213 102.423 196.002 102.494 195.781 102.509L195.285 109.214C195.442 109.209 195.599 109.224 195.751 109.258C196.03 109.308 196.282 109.44 196.467 109.632C196.652 109.824 196.76 110.066 196.773 110.319L213.523 111.959C213.469 111.791 213.469 111.613 213.523 111.446C213.643 111.178 213.864 110.955 214.149 110.818C214.434 110.681 214.764 110.637 215.081 110.695L215.815 104.383L215.726 104.37ZM209.039 107.464C208.638 108.666 206.976 109.324 205.324 108.931C203.673 108.538 202.656 107.238 203.058 106.036C203.459 104.834 205.126 104.175 206.778 104.568C208.429 104.962 209.441 106.235 209.039 107.441V107.464Z" fill="white" stroke="#263238" stroke-width="0.496008" stroke-miterlimit="10"/>
<path d="M220.318 131.022C220.318 131.022 221.806 131.371 223.721 135.442C225.635 139.513 227.466 144.835 227.466 144.835C227.466 144.835 223.215 143.217 220.819 143.106C218.185 142.987 214.371 143.99 214.371 143.99C214.371 143.99 212.883 130.125 202.521 125.506C203.245 124.773 204.166 124.216 205.198 123.886C206.229 123.557 207.338 123.466 208.419 123.623C212.218 124.114 220.318 131.022 220.318 131.022Z" fill="#08C0D8" stroke="#263238" stroke-width="0.496008" stroke-linejoin="round"/>
<path d="M206.237 125.97C206.237 125.97 213.355 132.414 215.036 139.146C215.292 139.209 215.528 139.321 215.728 139.476C215.928 139.63 216.087 139.822 216.194 140.038C216.3 140.254 216.351 140.488 216.343 140.724C216.335 140.959 216.268 141.191 216.148 141.4C218.627 140.917 221.217 141.178 223.513 142.143C223.513 142.143 223.955 141.206 224.53 141.179C224.53 141.179 221.41 132.684 218.082 130.09C215.799 128.252 213.231 126.715 210.458 125.528C209.249 125.036 207.895 124.902 206.594 125.148C206.594 125.148 207.829 126.142 206.237 125.97ZM214.015 130.47C214.759 129.97 216.316 130.686 217.487 132.074C218.657 133.462 219.024 134.991 218.28 135.495C217.536 135.999 215.979 135.279 214.808 133.891C213.638 132.503 213.286 130.978 214.015 130.474V130.47Z" fill="white" stroke="#263238" stroke-width="0.496008" stroke-miterlimit="10"/>
<path d="M221.459 131.902C221.459 131.902 218.176 127.999 214.748 126.178C212.75 125.107 210.62 124.245 208.399 123.61C208.399 123.61 209.957 123.663 211.127 125.762C211.802 126.965 211.574 128.719 211.574 128.719C215.018 129.368 218.345 130.439 221.459 131.902Z" fill="#08C0D8" stroke="#263238" stroke-width="0.496008" stroke-linejoin="round"/>
<path d="M208.821 79.9271C208.821 79.9271 200.79 84.767 196.584 89.1605L188.484 82.4686C188.484 82.4686 198.747 69.9865 202.973 71.5202L208.821 79.9271Z" fill="#08C0D8" stroke="#263238" stroke-width="0.496008" stroke-linejoin="round"/>
<path d="M192.453 81.9955C192.515 82.2311 192.49 82.4785 192.381 82.7002C192.272 82.922 192.085 83.1059 191.848 83.2243L195.449 86.2255C195.634 86.1126 195.838 86.0275 196.054 85.9735C196.312 85.8944 196.587 85.8723 196.857 85.9093C197.127 85.9463 197.382 86.0411 197.601 86.1857C201.272 82.1768 207.824 78.9369 207.824 78.9369L204.848 74.3799C204.848 74.3799 204.203 71.6306 200.637 73.2616C197.879 74.5257 193.415 79.2065 191.535 81.2618C191.748 81.2992 191.946 81.3871 192.107 81.5162C192.269 81.6454 192.388 81.811 192.453 81.9955ZM200.741 75.9932C202.289 75.2329 203.995 75.3479 204.545 76.2407C205.096 77.1335 204.288 78.4816 202.74 79.2375C201.192 79.9933 199.486 79.8828 198.931 78.9855C198.375 78.0883 199.174 76.749 200.726 75.9932H200.741Z" fill="white" stroke="#263238" stroke-width="0.496008" stroke-miterlimit="10"/>
<path d="M211.301 83.2551L201.847 74.1013C201.847 74.1013 203.593 72.6206 203.007 71.52L212.094 80.2451C212.094 80.2451 213.354 81.6904 211.301 83.2551Z" fill="#08C0D8" stroke="#263238" stroke-width="0.496008" stroke-linejoin="round"/>
<path d="M211.272 79.4718L204.278 72.7534C204.214 73.1804 203.98 73.5726 203.618 73.8584L211.058 80.3956L211.272 79.4718Z" fill="white" stroke="#263238" stroke-width="0.496008" stroke-miterlimit="10"/>
<path d="M5.28906 204.726H242.549" stroke="#263238" stroke-width="0.496008" stroke-linecap="round" stroke-linejoin="round"/>
</svg>
