<svg width="221" height="221" viewBox="0 0 221 221" fill="none" xmlns="http://www.w3.org/2000/svg">
<path d="M160.283 16.3984C136.415 17.636 128.989 38.3834 126.006 48.3992C121.122 64.7973 117.745 72.8948 105.47 73.7169C92.6525 74.5788 88.0468 63.5863 74.5305 52.333C58.8085 39.2277 33.3316 40.1161 17.6804 70.3931C0.146272 104.339 19.7843 138.642 52.9034 163.92C71.8343 178.374 90.8624 181.158 118.828 175.196C167.58 164.795 198.604 126.209 206.162 81.6817C210.459 56.4126 199.616 14.3563 160.283 16.3984Z" fill="#08C0D8"/>
<path opacity="0.7" d="M160.283 16.3984C136.415 17.636 128.989 38.3834 126.006 48.3992C121.122 64.7973 117.745 72.8948 105.47 73.7169C92.6525 74.5788 88.0468 63.5863 74.5305 52.333C58.8085 39.2277 33.3316 40.1161 17.6804 70.3931C0.146272 104.339 19.7843 138.642 52.9034 163.92C71.8343 178.374 90.8624 181.158 118.828 175.196C167.58 164.795 198.604 126.209 206.162 81.6817C210.459 56.4126 199.616 14.3563 160.283 16.3984Z" fill="white"/>
<path d="M82.667 176.332H61.5615V205.141H82.667V176.332Z" fill="#08C0D8"/>
<path opacity="0.4" d="M82.667 176.332H61.5615V205.141H82.667V176.332Z" fill="black"/>
<path d="M119.366 136.317H98.2607V205.141H119.366V136.317Z" fill="#08C0D8"/>
<path opacity="0.3" d="M119.366 136.317H98.2607V205.141H119.366V136.317Z" fill="black"/>
<path d="M156.972 120.344H135.866V205.141H156.972V120.344Z" fill="#08C0D8"/>
<path opacity="0.2" d="M156.972 120.344H135.866V205.141H156.972V120.344Z" fill="black"/>
<path d="M194.577 92.4136H173.472V205.141H194.577V92.4136Z" fill="#08C0D8"/>
<path opacity="0.1" d="M194.577 92.4136H173.472V205.141H194.577V92.4136Z" fill="black"/>
<path d="M76.3419 42.8212C76.3687 42.6294 76.3819 42.4359 76.3817 42.2422C76.3679 41.1493 75.9497 40.1002 75.2077 39.2976C74.4657 38.495 73.4527 37.9957 72.3642 37.8963C71.2757 37.7968 70.189 38.1042 69.3139 38.7591C68.4387 39.414 67.8373 40.3699 67.6257 41.4422H67.5461C66.8999 41.4407 66.2654 41.6141 65.7097 41.9441C65.1541 42.274 64.6982 42.7482 64.3902 43.3163C63.8496 43.017 63.2401 42.8646 62.6222 42.8743C61.668 42.879 60.7547 43.2625 60.0833 43.9406C59.4119 44.6186 59.0373 45.5356 59.042 46.4898C59.0467 47.4441 59.4303 48.3573 60.1083 49.0288C60.7864 49.7002 61.7034 50.0747 62.6576 50.07L76.2491 50.0037C77.1825 49.9838 78.0716 49.6018 78.7286 48.9384C79.3856 48.275 79.7589 47.3823 79.7698 46.4487C79.7807 45.5151 79.4283 44.6139 78.787 43.9354C78.1457 43.2568 77.2658 42.8541 76.3331 42.8124L76.3419 42.8212Z" fill="white"/>
<path d="M71.3478 37.8442C70.4317 37.9677 69.5774 38.3753 68.9051 39.0095C68.2328 39.6438 67.7762 40.4729 67.5996 41.3802H67.52C66.8729 41.3817 66.2382 41.5584 65.6834 41.8914C65.1285 42.2245 64.6742 42.7016 64.3686 43.272C63.8263 42.977 63.2179 42.8249 62.6006 42.83" stroke="#263238" stroke-width="0.308921" stroke-linecap="round" stroke-linejoin="round"/>
<path d="M76.3243 41.6851C76.192 40.6086 75.6685 39.6183 74.8535 38.9028C74.0385 38.1872 72.9888 37.7962 71.9043 37.8043" stroke="#263238" stroke-width="0.308921" stroke-linecap="round" stroke-linejoin="round"/>
<path d="M76.2354 49.9726C77.1688 49.9526 78.0579 49.5706 78.7149 48.9073C79.3718 48.2439 79.7452 47.3511 79.7561 46.4175C79.767 45.484 79.4146 44.5827 78.7733 43.9042C78.132 43.2257 77.252 42.823 76.3193 42.7812" stroke="#263238" stroke-width="0.308921" stroke-linecap="round" stroke-linejoin="round"/>
<path d="M74.3887 49.9814H75.6661" stroke="#263238" stroke-width="0.308921" stroke-linecap="round" stroke-linejoin="round"/>
<path d="M61.9854 42.8965C61.1037 43.062 60.3155 43.5506 59.7751 44.2665C59.2346 44.9825 58.9807 45.8744 59.0631 46.7676C59.1454 47.6609 59.5581 48.4913 60.2204 49.0964C60.8827 49.7015 61.7469 50.0377 62.6439 50.0392L73.7691 49.9862" stroke="#263238" stroke-width="0.308921" stroke-linecap="round" stroke-linejoin="round"/>
<path d="M167.168 21.6584C167.196 21.443 167.211 21.226 167.212 21.0087C167.207 19.7822 166.744 18.6019 165.915 17.6982C165.086 16.7946 163.95 16.2326 162.728 16.1221C161.507 16.0116 160.288 16.3605 159.31 17.1007C158.332 17.8409 157.665 18.9191 157.44 20.1247H157.351C156.626 20.1249 155.915 20.3215 155.292 20.6935C154.669 21.0654 154.159 21.5989 153.815 22.2374C153.217 21.9037 152.542 21.7301 151.857 21.7336C150.815 21.7724 149.829 22.2149 149.107 22.9674C148.386 23.7199 147.985 24.7235 147.989 25.7662C147.994 26.8089 148.404 27.809 149.132 28.5552C149.86 29.3013 150.85 29.735 151.893 29.7647L167.075 29.694C168.141 29.7063 169.168 29.2948 169.93 28.55C170.692 27.8052 171.127 26.7882 171.14 25.7226C171.152 24.657 170.74 23.6302 169.996 22.868C169.251 22.1058 168.234 21.6707 167.168 21.6584Z" fill="white"/>
<path d="M161.617 16.1245C160.59 16.2646 159.634 16.7242 158.884 17.4382C158.133 18.1522 157.626 19.0844 157.435 20.1025H157.351C156.626 20.1028 155.915 20.2993 155.292 20.6713C154.67 21.0432 154.159 21.5768 153.815 22.2153C153.217 21.8828 152.542 21.7093 151.857 21.7114" stroke="#263238" stroke-width="0.355323" stroke-linecap="round" stroke-linejoin="round"/>
<path d="M167.169 20.4073C167.023 19.2089 166.441 18.106 165.535 17.3083C164.629 16.5105 163.461 16.0734 162.254 16.0802" stroke="#263238" stroke-width="0.355323" stroke-linecap="round" stroke-linejoin="round"/>
<path d="M167.076 29.6584C168.082 29.5884 169.025 29.1421 169.717 28.4085C170.409 27.6748 170.799 26.7075 170.811 25.6991C170.822 24.6906 170.453 23.715 169.777 22.9662C169.102 22.2174 168.169 21.7505 167.165 21.6582" stroke="#263238" stroke-width="0.355323" stroke-linecap="round" stroke-linejoin="round"/>
<path d="M165.007 29.667H166.434" stroke="#263238" stroke-width="0.355323" stroke-linecap="round" stroke-linejoin="round"/>
<path d="M151.164 21.7642C150.184 21.9506 149.308 22.4955 148.708 23.2926C148.108 24.0897 147.826 25.0818 147.917 26.0754C148.009 27.069 148.467 27.9928 149.203 28.6667C149.939 29.3406 150.9 29.7161 151.898 29.7202L164.313 29.6627" stroke="#263238" stroke-width="0.355323" stroke-linecap="round" stroke-linejoin="round"/>
<path d="M135.933 29.9237C136.493 28.3238 137.537 26.9376 138.919 25.9565C140.302 24.9755 141.955 24.4481 143.65 24.4473C144.338 24.4469 145.024 24.5315 145.692 24.6992C146.355 23.8347 147.262 23.1879 148.295 22.8418C149.329 22.4958 150.442 22.4661 151.492 22.7567C152.542 23.0473 153.482 23.6449 154.191 24.4729C154.899 25.3009 155.344 26.3217 155.469 27.4043C157.14 27.6706 158.65 28.5561 159.698 29.8848C160.746 31.2135 161.255 32.888 161.125 34.5753C160.995 36.2625 160.234 37.8388 158.994 38.9908C157.755 40.1428 156.127 40.786 154.435 40.7924L136.755 40.819C135.375 40.8194 134.045 40.2982 133.033 39.3599C132.021 38.4216 131.401 37.1355 131.297 35.7592C131.193 34.383 131.613 33.0183 132.472 31.9386C133.332 30.8589 134.568 30.1439 135.933 29.9369V29.9237Z" fill="white"/>
<path d="M155.46 27.519C157.131 27.7854 158.641 28.6713 159.689 30.0005C160.737 31.3297 161.246 33.0047 161.115 34.6922C160.984 36.3798 160.223 37.9562 158.983 39.1078C157.742 40.2594 156.114 40.9018 154.421 40.9072" stroke="#263238" stroke-width="0.355323" stroke-linecap="round" stroke-linejoin="round"/>
<path d="M143.649 24.5753C144.338 24.5753 145.024 24.6599 145.691 24.8273C146.301 24.033 147.117 23.4214 148.051 23.059C148.984 22.6965 149.999 22.5972 150.986 22.7718C151.972 22.9464 152.891 23.3882 153.643 24.0492C154.395 24.7101 154.952 25.5648 155.252 26.5201" stroke="#263238" stroke-width="0.355323" stroke-linecap="round" stroke-linejoin="round"/>
<path d="M131.508 33.8484C131.813 32.8642 132.39 31.986 133.172 31.3145C133.954 30.643 134.909 30.2053 135.928 30.0516C136.422 28.6413 137.293 27.3931 138.446 26.4426C139.599 25.492 140.991 24.8753 142.469 24.6592" stroke="#263238" stroke-width="0.355323" stroke-linecap="round" stroke-linejoin="round"/>
<path d="M150.615 40.9117H136.745C135.3 40.9129 133.913 40.3416 132.887 39.3228C131.862 38.304 131.282 36.9206 131.273 35.4751" stroke="#263238" stroke-width="0.355323" stroke-linecap="round" stroke-linejoin="round"/>
<path d="M152.75 40.9072H152.074" stroke="#263238" stroke-width="0.355323" stroke-linecap="round" stroke-linejoin="round"/>
<path d="M208.867 58.7063L200.955 40.2837L182.533 48.1911L185.211 54.4277L192.99 51.0906L179.655 84.4925L159.849 109.205L129.705 118.88L129.417 118.973L101.691 133.709L82.8528 140.865L77.204 169.997H62.9186L51.0509 197.901H14.1748V204.69H55.5372L67.4093 176.787H82.7997L88.7932 145.864L104.498 139.902L132.065 125.249L163.867 115.044L185.582 87.949L199.293 53.6056L202.63 61.3804L208.867 58.7063Z" fill="#08C0D8"/>
<path d="M13.583 205.141H200.894" stroke="#263238" stroke-width="0.473764" stroke-linecap="round" stroke-linejoin="round"/>
<path d="M103.428 128.675L103.304 130.717C103.304 130.717 101.536 131.933 100.152 132.786C99.2683 133.329 98.4639 133.466 98.57 133.895C98.8352 134.991 102.645 133.754 104.55 133.294C106.455 132.834 108.97 132.852 107.127 131.115C106.929 130.903 106.745 130.678 106.575 130.443L106.632 128.361L103.428 128.675Z" fill="#263238" stroke="#263238" stroke-width="0.473764" stroke-linecap="round" stroke-linejoin="round"/>
<path d="M127.906 113.077C127.906 113.077 128.441 115.216 128.348 115.937C128.229 116.671 128.251 117.421 128.415 118.147C128.781 119.38 129.559 118.889 131.257 118.474C133.06 118.032 134.532 117.908 134.39 117.073C134.249 116.237 131.99 116.074 131.522 115.419C131.053 114.765 130.779 112.361 130.779 112.361L127.906 113.077Z" fill="#263238" stroke="#263238" stroke-width="0.473764" stroke-linecap="round" stroke-linejoin="round"/>
<path d="M109.926 97.0634C109.926 97.0634 104.233 109.077 103.393 114.558C102.553 120.039 103.057 129.542 103.057 129.542C103.057 129.542 104.533 130.426 107.035 129.577C107.035 129.577 108.114 115.813 108.927 114.222C109.74 112.631 115.853 103.923 116.971 103.419C118.09 102.915 124.136 107.03 125.002 108.524C125.869 110.018 127.92 115.265 127.92 115.265C127.92 115.265 129.506 116.043 131.548 114.226C131.548 114.226 131.155 107.495 129.268 104.851C127.38 102.208 121.466 95.7285 121.466 95.7285L109.926 97.0634Z" fill="#999999" stroke="#263238" stroke-width="0.473764" stroke-linecap="round" stroke-linejoin="round"/>
<path opacity="0.3" d="M128.94 108.891C126.814 109.563 124.874 107.008 123.747 105.885C122.62 104.763 120.485 101.403 119.199 102.164C117.913 102.924 116.989 102.716 114.779 102.221C112.569 101.726 109.382 111.945 107.764 113.271C106.146 114.597 106.849 113.656 105.97 121.559C105.351 127.119 103.848 128.502 103.013 128.834C103.013 129.276 103.048 129.559 103.048 129.559C103.048 129.559 104.524 130.443 107.026 129.594C107.026 129.594 108.105 115.83 108.918 114.239C109.731 112.648 115.844 103.94 116.962 103.437C118.08 102.933 124.127 107.048 124.993 108.542C125.86 110.036 127.911 115.282 127.911 115.282C127.911 115.282 129.497 116.06 131.539 114.243C131.39 111.981 131.021 109.738 130.439 107.547C130.32 107.878 130.121 108.173 129.859 108.408C129.598 108.642 129.282 108.808 128.94 108.891Z" fill="black"/>
<path d="M104.312 113.943C104.174 114.759 104.244 115.597 104.515 116.379" stroke="#263238" stroke-width="0.355323" stroke-linecap="round" stroke-linejoin="round"/>
<path d="M125.886 106.686C125.886 106.686 124.52 107.013 125.4 109.338" stroke="#263238" stroke-width="0.355323" stroke-linecap="round" stroke-linejoin="round"/>
<path d="M112.418 100.648C112.418 100.648 116.529 102.208 116.122 102.774C115.715 103.34 113.66 102.982 113.66 102.982" stroke="#263238" stroke-width="0.355323" stroke-linecap="round" stroke-linejoin="round"/>
<path d="M118.103 101.983C118.976 101.532 119.778 100.954 120.48 100.268" stroke="#263238" stroke-width="0.355323" stroke-linecap="round" stroke-linejoin="round"/>
<path d="M129.608 107.485C129.608 107.485 128.688 108.484 127.773 108.241" stroke="#263238" stroke-width="0.355323" stroke-linecap="round" stroke-linejoin="round"/>
<path d="M107.733 114.61C107.733 114.61 106.235 114.915 106.054 115.366" stroke="#263238" stroke-width="0.355323" stroke-linecap="round" stroke-linejoin="round"/>
<path d="M100.617 84.3203L98.2522 86.4021C96.9557 86.805 95.7438 87.4417 94.6764 88.2806C92.6343 89.7834 87.3259 93.8012 87.3259 93.8012C86.694 94.0076 86.0445 94.1556 85.3855 94.2432C84.5015 94.3405 83.5512 95.0034 83.7413 95.304C83.9314 95.6046 84.7491 94.9814 84.948 95.0123C85.1469 95.0432 84.7623 96.9571 85.0231 97.3991C85.2839 97.8411 85.6861 97.2356 85.6861 97.2356C85.7559 97.2925 85.8375 97.3333 85.9249 97.3549C86.0123 97.3766 86.1035 97.3787 86.1918 97.3609C86.2802 97.3432 86.3635 97.3061 86.4357 97.2523C86.508 97.1985 86.5675 97.1294 86.6099 97.0499C86.6099 97.0499 87.2198 97.1737 87.3259 96.6433C87.3259 96.6433 87.7679 96.8466 87.9049 96.3118C87.9851 95.9932 88.09 95.6814 88.2188 95.3791C88.2188 95.3791 97.9693 90.9592 99.3969 89.1691C99.3969 89.1691 100.643 88.727 100.856 88.1569L102.712 86.6939L100.617 84.3203Z" fill="white" stroke="#263238" stroke-width="0.473764" stroke-linecap="round" stroke-linejoin="round"/>
<path d="M85.2529 96.5371C85.2529 96.5371 85.6286 96.4841 85.6949 96.6609C85.7612 96.8377 86.1369 96.3603 86.3447 96.462C86.5524 96.5637 86.8353 95.9183 87.1093 96.0819" fill="white"/>
<path d="M85.2529 96.5371C85.2529 96.5371 85.6286 96.4841 85.6949 96.6609C85.7612 96.8377 86.1369 96.3603 86.3447 96.462C86.5524 96.5637 86.8353 95.9183 87.1093 96.0819" stroke="#263238" stroke-width="0.355323" stroke-linecap="round" stroke-linejoin="round"/>
<path d="M135.477 75.14C134.752 75.8472 130.902 85.0496 128.202 84.1567C126.356 83.5142 124.559 82.7372 122.827 81.8318L124.206 78.2561L128.357 80.4661C128.357 80.4661 128.436 79.3478 133.789 74.5565C133.789 74.5565 133.157 72.7885 133.241 72.0681C133.325 71.3476 133.143 70.5829 133.554 70.5962C133.966 70.6095 133.859 71.8603 133.859 71.8603L133.952 72.2449C133.952 72.2449 134.907 72.3288 135.278 71.7719C135.558 71.402 135.743 70.9697 135.818 70.5122C135.879 70.1719 136.229 69.5663 136.397 70.1365C136.397 70.1365 136.839 69.942 136.839 70.5785C136.847 70.9208 136.833 71.2633 136.799 71.604C136.799 71.604 137.21 70.7774 137.365 70.9454C137.519 71.1133 137.055 72.0681 137.055 72.0681C137.055 72.0681 137.656 71.5421 137.709 71.7631C137.762 71.9841 137.095 72.5808 136.953 72.9653C136.611 73.7811 136.109 74.5203 135.477 75.14Z" fill="white" stroke="#263238" stroke-width="0.473764" stroke-linecap="round" stroke-linejoin="round"/>
<path d="M112.971 76.3115C111.141 76.6606 105.355 77.854 105.925 79.8872C106.46 81.7834 109.417 90.8665 108.803 96.2412C108.785 96.3842 108.798 96.5292 108.84 96.6671C108.881 96.805 108.951 96.9328 109.044 97.0424C109.138 97.1521 109.253 97.2411 109.382 97.3041C109.512 97.367 109.653 97.4024 109.797 97.4081C113.753 97.5588 117.71 97.1451 121.55 96.1794C122.108 96.0396 122.595 95.6969 122.914 95.2181C123.234 94.7392 123.363 94.1585 123.278 93.5892C122.863 90.8665 122.257 85.9073 122.646 82.0221C123.229 76.3778 122.916 74.4197 112.971 76.3115Z" fill="#08C0D8" stroke="#263238" stroke-width="0.473764" stroke-linecap="round" stroke-linejoin="round"/>
<path d="M119.225 77.6548C118.723 78.0457 118.387 78.6116 118.285 79.2393C118.182 79.8671 118.321 80.5104 118.672 81.0405" stroke="#263238" stroke-width="0.355323" stroke-linecap="round" stroke-linejoin="round"/>
<path d="M107.848 86.0396C110.449 89.8902 114.329 92.696 118.8 93.9602" stroke="#263238" stroke-width="0.355323" stroke-linecap="round" stroke-linejoin="round"/>
<path d="M110.337 95.5075C112.223 95.6664 114.121 95.5697 115.981 95.2202" stroke="#263238" stroke-width="0.355323" stroke-linecap="round" stroke-linejoin="round"/>
<path d="M106.332 79.2505L99.6221 84.0506C99.6221 84.0506 101.134 87.7192 102.743 87.949L107.799 84.6561" fill="#08C0D8"/>
<path d="M106.332 79.2505L99.6221 84.0506C99.6221 84.0506 101.134 87.7192 102.743 87.949L107.799 84.6561" stroke="#263238" stroke-width="0.473764" stroke-linecap="round" stroke-linejoin="round"/>
<path d="M119.592 76.5454C119.592 76.5454 123.128 77.1686 127.72 79.7764C127.72 79.7764 127.72 82.5743 125.952 84.4042L121.386 82.2605" fill="#08C0D8"/>
<path d="M119.592 76.5454C119.592 76.5454 123.128 77.1686 127.72 79.7764C127.72 79.7764 127.72 82.5743 125.952 84.4042L121.386 82.2605" stroke="#263238" stroke-width="0.473764" stroke-linecap="round" stroke-linejoin="round"/>
<path d="M110.412 79.4497L111.331 81.2796L111.075 86.3095C111.075 86.3095 111.035 90.6234 112.794 97.0634L114.12 97.638L115.119 96.8512C115.119 96.8512 113.285 87.8698 113.104 86.1681L112.105 81.1337L112.83 79.2861L111.323 79.4718L110.412 79.4497Z" fill="#263238" stroke="#263238" stroke-width="0.473764" stroke-linecap="round" stroke-linejoin="round"/>
<path d="M112.613 77.1641C111.914 77.3012 110.641 77.5575 109.364 77.9332C109.1 78.8707 109.069 79.8581 109.271 80.8106C109.53 80.3932 109.93 80.0823 110.399 79.934C110.867 79.7856 111.373 79.8097 111.826 80.0018C113.784 78.636 115.216 79.6482 115.216 79.6482C115.097 78.6946 114.93 77.7475 114.716 76.8105C114.067 76.9078 113.373 77.0227 112.613 77.1641Z" fill="#08C0D8" stroke="#263238" stroke-width="0.355323" stroke-linecap="round" stroke-linejoin="round"/>
<path d="M113.24 75.2681C113.24 75.2681 113.718 76.762 114.239 76.8769C114.239 76.8769 113.567 79.5068 111.061 78.9985C108.555 78.4902 111.76 76.1211 111.76 76.1211L113.24 75.2681Z" fill="white" stroke="#263238" stroke-width="0.473764" stroke-linecap="round" stroke-linejoin="round"/>
<path d="M112.767 75.14C112.767 75.14 113.293 76.3334 114.067 76.161C114.067 76.161 113.479 74.0836 113.753 72.8239C114.027 71.5642 113.129 68.3773 110.142 69.2525C108.795 69.2141 107.473 69.616 106.376 70.3973C104.656 71.6924 104.365 70.7421 104.365 70.7421C104.365 70.7421 104.011 72.2846 105.669 71.9089C105.669 71.9089 105.227 72.7929 104.462 72.5808C104.462 72.5808 105.036 73.372 105.788 72.9874C105.788 72.9874 105.288 73.6769 105.722 74.1455C105.722 74.1455 107.768 72.5056 108.97 72.7929C110.173 73.0802 112.767 75.14 112.767 75.14Z" fill="#263238" stroke="#263238" stroke-width="0.473764" stroke-linecap="round" stroke-linejoin="round"/>
<path d="M106.779 74.6979C106.779 74.6979 107.57 78.4549 110.014 79.7323C111.65 80.5854 113.329 76.3643 113.303 75.7897C113.536 75.6743 113.734 75.498 113.876 75.2794C114.017 75.0608 114.097 74.8079 114.107 74.5476C114.147 73.6371 113.484 73.4161 112.945 73.8404C112.945 73.8404 112.724 74.4769 112.441 74.5167C112.158 74.5565 112.224 72.9078 111.897 72.7487C111.57 72.5896 110.796 72.5189 110.545 71.8647C110.293 71.2105 109.219 72.1299 107.826 72.3067C106.434 72.4835 106.522 73.7653 106.779 74.6979Z" fill="white" stroke="#263238" stroke-width="0.473764" stroke-linecap="round" stroke-linejoin="round"/>
<path d="M108.29 75.3828C108.314 75.6728 108.278 75.9645 108.185 76.2403C108.092 76.516 107.945 76.7702 107.751 76.9873C107.384 77.3895 108.794 77.1243 108.9 77.4072" stroke="#263238" stroke-width="0.355323" stroke-linecap="round" stroke-linejoin="round"/>
<path d="M107.583 75.3652C107.632 75.5552 107.583 75.7276 107.521 75.7453C107.459 75.763 107.336 75.6259 107.291 75.4359C107.247 75.2458 107.291 75.069 107.353 75.0513C107.415 75.0337 107.539 75.1707 107.583 75.3652Z" fill="#263238"/>
<path d="M109.465 74.9056C109.51 75.1001 109.465 75.2681 109.403 75.2902C109.342 75.3123 109.218 75.1708 109.169 74.9764C109.121 74.7819 109.169 74.6139 109.231 74.5918C109.293 74.5697 109.417 74.6979 109.465 74.9056Z" fill="#263238"/>
<path d="M110.704 76.9697C110.757 77.5001 109.488 77.8537 109.488 77.8537" stroke="#263238" stroke-width="0.355323" stroke-linecap="round" stroke-linejoin="round"/>
<path d="M106.778 74.6978C106.971 74.6243 107.18 74.6028 107.384 74.6354C107.588 74.6679 107.78 74.7535 107.941 74.8835" stroke="#263238" stroke-width="0.355323" stroke-linecap="round" stroke-linejoin="round"/>
<path d="M108.666 74.5609C108.666 74.5609 108.962 73.4205 109.616 73.8625" stroke="#263238" stroke-width="0.355323" stroke-linecap="round" stroke-linejoin="round"/>
<path d="M134.412 72.9297C134.542 73.0646 134.633 73.2313 134.677 73.4129C134.721 73.5946 134.717 73.7847 134.664 73.964" fill="white"/>
<path d="M134.412 72.9297C134.542 73.0646 134.633 73.2313 134.677 73.4129C134.721 73.5946 134.717 73.7847 134.664 73.964" stroke="#263238" stroke-width="0.473764" stroke-linecap="round" stroke-linejoin="round"/>
<path d="M177.348 81.7037C176.564 79.9574 175.693 78.252 174.736 76.5942C173.732 75.0295 167.575 75.7102 165.14 76.4351C162.705 77.16 161.273 86.0353 160.8 88.926C160.327 91.8167 163.562 104.228 163.562 104.228C162.417 105.806 159.12 105.373 159.12 105.373C159.12 105.373 155.686 95.4897 154.97 90.3448C154.254 85.1999 157.356 72.4394 157.356 72.4394L166.983 69.973C166.983 69.973 173.976 69.8404 177.101 70.0084C181.728 70.2515 180.345 80.7667 180.345 80.7667C180.345 80.7667 180.071 81.7037 177.348 81.7037Z" fill="#263238" stroke="#263238" stroke-width="0.473764" stroke-linecap="round" stroke-linejoin="round"/>
<path d="M159.487 104.087C159.487 104.087 160.561 106.235 158.948 107.092C157.335 107.95 156.667 109.205 157.543 109.205H163.032C164 109.205 164.968 108.706 164.106 107.075C163.934 106.752 162.926 103.331 162.926 103.331L159.487 104.087Z" fill="#263238" stroke="#263238" stroke-width="0.473764" stroke-linecap="round" stroke-linejoin="round"/>
<path d="M177.101 79.8741C177.101 79.8741 177.459 82.2388 177.543 83.6002C177.627 84.9615 178.546 85.7483 179.62 85.2488C180.694 84.7494 185.923 81.094 185.636 80.3028C185.348 79.5117 184.204 80.4487 182.842 80.7448C182.116 80.9072 181.376 81.0019 180.632 81.0277L180.274 79.0962L177.101 79.8741Z" fill="#263238" stroke="#263238" stroke-width="0.473764" stroke-linecap="round" stroke-linejoin="round"/>
<path d="M155.306 89.6157C155.306 89.6157 155.69 91.1185 156.548 91.6224" stroke="#7F7F7F" stroke-width="0.355323" stroke-linecap="round" stroke-linejoin="round"/>
<path d="M160.8 75.9357C160.8 75.9357 164.451 75.0517 164.437 75.5777C164.424 76.1037 162.227 76.9391 162.064 77.3457" stroke="#7F7F7F" stroke-width="0.355323" stroke-linecap="round" stroke-linejoin="round"/>
<path d="M165.145 75.4184C165.145 75.4184 167.439 74.446 167.439 73.9023" stroke="#7F7F7F" stroke-width="0.355323" stroke-linecap="round" stroke-linejoin="round"/>
<path d="M180.337 80.7534C179.414 81.274 178.394 81.5976 177.34 81.7037" stroke="#7F7F7F" stroke-width="0.355323" stroke-linecap="round" stroke-linejoin="round"/>
<path d="M163.425 104.608C162.484 105.386 160.879 105.453 159.986 105.422" stroke="#7F7F7F" stroke-width="0.355323" stroke-linecap="round" stroke-linejoin="round"/>
<path d="M163.779 50.3881C163.779 50.3881 164.995 45.8753 162.489 44.7261C162.489 44.7261 160.805 43.0067 157.627 44.7261C154.449 46.4455 155.66 47.5814 156.336 47.1748C156.336 47.1748 154.798 48.5582 155.191 48.9914C155.585 49.4245 156.336 48.6687 156.336 48.6687C156.308 49.4457 156.507 50.214 156.911 50.8787C157.556 51.7627 160.632 51.418 160.632 51.418L163.001 50.976L163.779 50.3881Z" fill="#263238" stroke="#263238" stroke-width="0.473764" stroke-linecap="round" stroke-linejoin="round"/>
<path d="M157.622 73.8803C157.197 73.8571 156.792 73.6922 156.471 73.4118C156.151 73.1314 155.933 72.7517 155.854 72.3333C155.483 70.4283 154.758 66.8569 153.967 63.6878C152.817 59.1042 148.495 54.7019 159.841 52.8013C170.948 50.9361 168.433 55.9528 168.292 58.9584C168.172 61.4203 167.576 66.0304 168.539 68.3686C168.717 68.7761 168.748 69.2327 168.628 69.6607C168.507 70.0886 168.241 70.4614 167.876 70.7156C165.852 72.0902 162.051 74.1278 157.622 73.8803Z" fill="#999999" stroke="#263238" stroke-width="0.473764" stroke-linecap="round" stroke-linejoin="round"/>
<path d="M154.815 60.2227C156.043 61.9009 157.648 63.267 159.5 64.2106C161.353 65.1542 163.402 65.649 165.481 65.6548" stroke="#263238" stroke-width="0.355323" stroke-linecap="round" stroke-linejoin="round"/>
<path d="M156.614 68.8945L166.153 68.9785C163.268 70.3365 160.125 71.0585 156.937 71.0957" stroke="#263238" stroke-width="0.355323" stroke-linecap="round" stroke-linejoin="round"/>
<path d="M158.572 55.0908C158.572 55.0908 159.014 57.2036 159.456 57.4202C159.456 57.4202 158.382 63.9352 159.244 69.4868L159.611 71.5995L161.251 72.4261L162.608 70.8481C162.608 70.8481 162.289 69.3718 162.166 68.8812C161.543 66.0392 160.336 60.607 160.398 57.3892C160.398 57.3892 161.896 56.2047 161.79 55.1792L158.572 55.0908Z" fill="#08C0D8" stroke="#263238" stroke-width="0.473764" stroke-linecap="round" stroke-linejoin="round"/>
<path d="M172.261 55.6125L175.138 53.2831C176.298 52.9562 177.432 52.547 178.533 52.0588C180.743 51.1217 186.215 48.3062 186.215 48.3062C186.847 48.248 187.483 48.248 188.115 48.3062C188.938 48.4079 189.976 48.0101 189.883 47.6874C189.791 47.3647 188.88 47.7625 188.703 47.6874C188.527 47.6123 189.304 45.9194 189.145 45.4774C188.986 45.0354 188.504 45.4774 188.504 45.4774C188.452 45.4119 188.386 45.3584 188.311 45.3208C188.236 45.2831 188.153 45.2621 188.07 45.2591C187.986 45.2562 187.902 45.2714 187.825 45.3038C187.747 45.3361 187.677 45.3848 187.62 45.4465C187.62 45.4465 187.081 45.1945 186.869 45.663C186.82 45.6233 186.763 45.5961 186.701 45.5837C186.64 45.5713 186.576 45.5742 186.516 45.5921C186.456 45.61 186.401 45.6423 186.356 45.6862C186.311 45.7302 186.278 45.7845 186.259 45.8443C186.113 46.1194 185.948 46.3838 185.764 46.6354C185.764 46.6354 176.102 48.8454 174.387 50.1714L169.94 52.7041L172.261 55.6125Z" fill="white" stroke="#263238" stroke-width="0.473764" stroke-linecap="round" stroke-linejoin="round"/>
<path d="M151.08 63.056L147.88 64.824C147.002 65.6484 146.064 66.4063 145.074 67.0915C143.12 68.5015 137.878 71.7104 137.878 71.7104C137.501 72.2211 137.173 72.7656 136.897 73.3369C136.556 74.0928 135.681 74.7734 135.46 74.5171C135.239 74.2607 136.043 73.6994 136.079 73.5093C136.114 73.3193 134.262 73.1115 133.94 72.7447C133.617 72.3778 134.275 72.1966 134.275 72.1966C134.245 72.1164 134.232 72.0305 134.239 71.9449C134.245 71.8593 134.27 71.7762 134.313 71.7015C134.355 71.6268 134.413 71.5623 134.483 71.5127C134.553 71.463 134.633 71.4294 134.717 71.4142C134.717 71.4142 134.784 70.822 135.292 70.8838C135.292 70.8838 135.235 70.4418 135.765 70.4418C136.076 70.464 136.387 70.464 136.698 70.4418C136.698 70.4418 143.602 63.3345 145.63 62.5566L149.692 59.9443L151.08 63.056Z" fill="white" stroke="#263238" stroke-width="0.473764" stroke-linecap="round" stroke-linejoin="round"/>
<path d="M157.188 52.7264C157.188 52.7264 156.698 56.3464 157.356 57.0978C157.356 57.0978 158.046 54.9497 159.876 56.3111C159.876 56.3111 162.528 54.6978 162.917 56.8459C162.917 56.8459 163.849 54.2558 163.801 52.311L157.86 52.2402L157.188 52.7264Z" fill="#999999" stroke="#263238" stroke-width="0.355323" stroke-linecap="round" stroke-linejoin="round"/>
<path d="M153.688 54.8833L147.089 60.9122C147.089 60.9122 149.034 63.9222 150.391 64.5675C151.748 65.2128 154.108 60.8415 154.108 60.8415" fill="#999999"/>
<path d="M153.688 54.8833L147.089 60.9122C147.089 60.9122 149.034 63.9222 150.391 64.5675C151.748 65.2128 154.108 60.8415 154.108 60.8415" stroke="#263238" stroke-width="0.473764" stroke-linecap="round" stroke-linejoin="round"/>
<path d="M165.688 52.5364L173.092 50.2822C173.092 50.2822 174.378 53.1596 173.808 54.9497C173.238 56.7398 167.717 57.0979 167.717 57.0979" fill="#999999"/>
<path d="M165.688 52.5364L173.092 50.2822C173.092 50.2822 174.378 53.1596 173.808 54.9497C173.238 56.7398 167.717 57.0979 167.717 57.0979" stroke="#263238" stroke-width="0.473764" stroke-linecap="round" stroke-linejoin="round"/>
<path d="M156.91 50.8655C156.91 50.8655 157.626 55.7275 159.633 55.7275C161.64 55.7275 163.142 53.2479 163.284 52.66C163.361 52.3691 163.422 52.0739 163.465 51.776C163.465 51.776 163.642 51.9882 164 51.8114C164.358 51.6346 164.468 49.376 164.216 49.3406C163.943 49.3196 163.668 49.3196 163.394 49.3406C163.394 49.3406 163.394 50.45 163.107 50.4147C162.82 50.3793 162.89 48.8721 162.714 48.6953C162.537 48.5185 161.852 48.7306 161.352 48.3726C160.853 48.0146 160.384 48.8146 159.142 48.8721C157.9 48.9295 157.723 48.1207 157.374 48.5141C157.025 48.9074 157.295 50.6843 156.91 50.8655Z" fill="white" stroke="#263238" stroke-width="0.473764" stroke-linecap="round" stroke-linejoin="round"/>
<path d="M158.833 51.4624C158.683 51.9391 158.599 52.4345 158.586 52.9343C158.657 53.3011 159.567 52.8724 159.598 53.1597" stroke="#263238" stroke-width="0.355323" stroke-linecap="round" stroke-linejoin="round"/>
<path d="M159.598 53.9463C159.822 53.9519 160.046 53.9099 160.253 53.8231C160.46 53.7362 160.646 53.6065 160.8 53.4424" stroke="#263238" stroke-width="0.355323" stroke-linecap="round" stroke-linejoin="round"/>
<path d="M158.046 51.6743C158.046 51.8555 157.967 52.0013 157.87 52.0013C157.772 52.0013 157.688 51.8555 157.688 51.6743C157.688 51.493 157.772 51.3472 157.87 51.3472C157.967 51.3472 158.046 51.493 158.046 51.6743Z" fill="#263238"/>
<path d="M160.213 51.5727C160.213 51.7539 160.133 51.8998 160.036 51.8998C159.938 51.8998 159.854 51.7539 159.854 51.5727C159.854 51.3915 159.934 51.2456 160.036 51.2456C160.137 51.2456 160.213 51.3915 160.213 51.5727Z" fill="#263238"/>
<path d="M157.353 50.4721C157.353 50.4721 157.795 49.9328 158.4 50.9141" stroke="#263238" stroke-width="0.355323" stroke-linecap="round" stroke-linejoin="round"/>
<path d="M159.443 50.9361C159.443 50.9361 160.226 50.1494 160.623 50.4941" stroke="#263238" stroke-width="0.355323" stroke-linecap="round" stroke-linejoin="round"/>
<path d="M173.326 75.9399L176.336 76.0597" stroke="#7F7F7F" stroke-width="0.355323" stroke-linecap="round" stroke-linejoin="round"/>
<path d="M178.33 70.415C178.861 70.9279 179.252 71.5676 179.467 72.2736C179.682 72.9797 179.714 73.7289 179.559 74.4505" stroke="#7F7F7F" stroke-width="0.355323" stroke-linecap="round" stroke-linejoin="round"/>
<path d="M71.4229 111.583L74.1765 108.993C74.8618 107.926 75.6241 106.911 76.4572 105.956C78.0882 104.016 82.6143 99.3924 82.6143 99.3924C82.8659 98.7733 83.0612 98.1328 83.1977 97.4786C83.348 96.6167 84.0817 95.7106 84.3602 95.905C84.6387 96.0995 83.9757 96.8907 83.9889 97.094C84.0022 97.2973 85.947 97.0321 86.3669 97.3239C86.7868 97.6156 86.168 97.9692 86.168 97.9692C86.2203 98.0427 86.2557 98.1269 86.2716 98.2158C86.2875 98.3047 86.2834 98.3959 86.2597 98.483C86.2361 98.5701 86.1933 98.6509 86.1347 98.7195C86.076 98.7881 86.0028 98.8428 85.9205 98.8797C85.9205 98.8797 86.0044 99.4985 85.4785 99.5692C85.4785 99.5692 85.6553 100.011 85.1072 100.126C84.786 100.188 84.4698 100.274 84.1613 100.383C84.1613 100.383 78.9413 109.413 77.0893 110.725L73.6505 114.836L71.4229 111.583Z" fill="#999999" stroke="#263238" stroke-width="0.473764" stroke-linecap="round" stroke-linejoin="round"/>
<path d="M66.6357 115.716C66.6357 115.716 70.459 111.848 72.3375 110.412C72.3375 110.412 74.5785 113.006 74.4989 115.274C74.4989 115.274 71.5287 118.708 70.0524 119.035" fill="white"/>
<path d="M66.6357 115.716C66.6357 115.716 70.459 111.848 72.3375 110.412C72.3375 110.412 74.5785 113.006 74.4989 115.274C74.4989 115.274 71.5287 118.708 70.0524 119.035" stroke="#263238" stroke-width="0.473764" stroke-linecap="round" stroke-linejoin="round"/>
<path d="M75.0557 137.537C76.0026 138.159 76.7658 139.023 77.2657 140.039C77.8624 141.365 77.2657 141.922 78.1497 142.74C79.1618 143.672 85.2217 138.819 84.9344 137.993C84.6471 137.166 83.4271 138.143 81.9951 138.435C81.2268 138.608 80.444 138.708 79.6569 138.735L77.9198 135.796L75.0557 137.537Z" fill="#263238" stroke="#263238" stroke-width="0.473764" stroke-linecap="round" stroke-linejoin="round"/>
<path d="M64.8859 133.705C64.8859 133.705 68.5943 132.141 69.9513 128.445C69.9513 128.445 68.8949 132.061 76.1393 139.151C76.1393 139.151 78.3493 138.85 79.167 136.888C79.167 136.888 72.7933 122.036 70.5435 122.112C68.2938 122.187 59.9355 129.299 59.9355 129.299C59.9355 129.299 60.7223 134.368 64.8859 133.705Z" fill="#08C0D8" stroke="#263238" stroke-width="0.473764" stroke-linecap="round" stroke-linejoin="round"/>
<path opacity="0.2" d="M71.4231 130.912C70.7203 129.104 71.0739 123.442 69.938 126.549C68.802 129.656 66.1058 129.334 66.1058 129.334L65.1953 130.629L66.2915 132.905C67.9464 131.836 69.226 130.277 69.9512 128.445C69.9512 128.445 68.8949 132.061 76.1392 139.151C77.0267 138.991 77.8441 138.564 78.4818 137.926C76.0774 138.616 72.1303 132.715 71.4231 130.912Z" fill="black"/>
<path d="M70.5428 125.577C70.5428 125.577 70.0522 125.846 70.1892 127.521" stroke="#263238" stroke-width="0.355323" stroke-linecap="round" stroke-linejoin="round"/>
<path d="M74.2562 164.597L74.5391 166.409C76.6298 168.557 79.0608 167.819 79.1757 168.782C79.2906 169.746 75.8961 169.574 74.5966 169.574C73.2971 169.574 71.034 170.016 70.5788 169.233C70.3534 168.84 70.9898 167.823 71.2285 166.904C71.3742 166.338 71.4042 165.749 71.3169 165.171L74.2562 164.597Z" fill="#263238" stroke="#263238" stroke-width="0.473764" stroke-linecap="round" stroke-linejoin="round"/>
<path d="M66.1058 105.673C66.1058 105.673 67.9931 104.091 67.3124 103.463C66.6318 102.836 65.792 103.972 65.792 103.972C65.792 103.972 66.4638 101.939 65.5047 101.656C64.5455 101.373 64.4306 103.424 64.4306 103.424C64.4306 103.424 64.3731 101.62 63.4096 101.656C62.446 101.691 63.4096 102.92 61.7698 103.998C60.1299 105.077 58.0967 106.376 59.6791 108.184C59.6791 108.184 58.72 109.316 60.6427 110.558C62.5654 111.8 63.0427 112.215 63.2947 113.621L65.5047 111.521L65.792 107.278L66.1058 105.673Z" fill="#263238" stroke="#263238" stroke-width="0.473764" stroke-linecap="round" stroke-linejoin="round"/>
<path d="M70.1895 109.616L73.1332 107.251C73.9005 106.241 74.7411 105.288 75.6481 104.4C77.4161 102.593 82.2781 98.3318 82.2781 98.3318C82.577 97.7349 82.8211 97.112 83.0075 96.471C83.224 95.6268 84.0152 94.7649 84.2893 94.9947C84.5633 95.2246 83.8473 95.9495 83.8473 96.1484C83.8473 96.3473 85.8009 96.2412 86.1987 96.5638C86.5965 96.8865 85.9468 97.1915 85.9468 97.1915C85.9925 97.2684 86.0207 97.3545 86.0294 97.4437C86.0381 97.5328 86.0271 97.6227 85.9972 97.7071C85.9672 97.7914 85.9191 97.8682 85.8561 97.9319C85.7932 97.9955 85.717 98.0446 85.6329 98.0755C85.6329 98.0755 85.6683 98.6987 85.1291 98.7296C85.1291 98.7296 85.2705 99.1716 84.7136 99.2556C84.3882 99.2912 84.0661 99.3518 83.75 99.4368C83.75 99.4368 77.8449 108.02 75.878 109.174L72.1298 113.002L70.1895 109.616Z" fill="#999999" stroke="#263238" stroke-width="0.473764" stroke-linecap="round" stroke-linejoin="round"/>
<path d="M55.2499 131.385C55.2499 131.385 53.6675 134.625 57.3626 137.869C61.0577 141.113 67.8424 148.574 68.2933 150.987C68.7441 153.401 70.8569 165.843 70.8569 165.843C70.8569 165.843 73.2702 166.519 74.8349 165.313C74.8349 165.313 74.9852 153.343 73.7034 148.623C72.4216 143.902 67.7408 138.108 66.3927 134.324C66.2222 133.53 66.1201 132.722 66.0877 131.911L55.2499 131.385Z" fill="#08C0D8" stroke="#263238" stroke-width="0.473764" stroke-linecap="round" stroke-linejoin="round"/>
<path opacity="0.2" d="M70.168 149.931C70.389 148.676 63.3081 138.748 61.0583 138.748C60.1478 138.748 58.6318 138.306 57.3721 137.864C61.0672 141.109 67.843 148.565 68.2939 150.974C68.7447 153.383 70.8575 165.83 70.8575 165.83C71.444 165.975 72.0483 166.036 72.652 166.011C70.7823 165.569 69.9425 151.186 70.168 149.931Z" fill="black"/>
<path d="M70.5431 149.255C70.21 149.175 69.8606 149.197 69.54 149.317C69.2194 149.438 68.9422 149.652 68.7441 149.931" stroke="#263238" stroke-width="0.355323" stroke-linecap="round" stroke-linejoin="round"/>
<path d="M66.8619 105.841L67.8785 107.485C67.8785 107.485 69.3415 107.711 69.5448 108.162C69.7481 108.613 68.7271 108.895 68.7271 108.895C68.7271 108.895 70.1415 110.535 69.9161 111.105C69.6907 111.676 67.7061 112.745 67.7061 112.745L63.3524 113.015C63.3524 113.015 64.0861 111.786 63.7458 110.937C63.7458 110.937 62.1059 111.039 62.2783 109.43C62.4507 107.821 63.5778 109.072 63.5778 109.072C63.7292 108.988 63.8463 108.854 63.9085 108.692C63.9707 108.53 63.9741 108.352 63.9181 108.188C63.7458 107.512 64.3115 107.229 64.3601 106.663C64.4088 106.098 65.8585 104.201 66.8619 105.841Z" fill="#999999" stroke="#263238" stroke-width="0.473764" stroke-linecap="round" stroke-linejoin="round"/>
<path d="M67.3698 107.495C67.4891 107.698 67.4891 107.937 67.3698 107.981C67.2504 108.025 67.0692 107.937 66.9499 107.733C66.8305 107.53 66.8305 107.291 66.9499 107.247C67.0692 107.203 67.2548 107.296 67.3698 107.495Z" fill="#263238"/>
<path d="M66.6359 106.637C66.6359 106.637 65.2215 106.014 65.1641 106.637" stroke="#263238" stroke-width="0.355323" stroke-linecap="round" stroke-linejoin="round"/>
<path d="M62.2822 114.478V112.71C62.2822 112.71 70.2382 110.942 69.2084 113.784L68.3862 114.478H62.2822Z" fill="white" stroke="#263238" stroke-width="0.473764" stroke-linecap="round" stroke-linejoin="round"/>
<path d="M54.6445 132.799C55.2619 127.669 56.7147 122.675 58.9452 118.014C62.5652 110.664 70.2295 113.046 70.4814 115.207C70.9234 119.044 68.7134 122.514 67.5996 127.168C66.8614 130.227 67.2813 132.697 66.2957 132.83C63.8072 133.157 54.6445 132.799 54.6445 132.799Z" fill="white" stroke="#263238" stroke-width="0.473764" stroke-linecap="round" stroke-linejoin="round"/>
<path d="M65.5049 113.532C65.5049 113.532 69.2928 109.616 71.1625 108.162C71.1625 108.162 73.4255 110.739 73.3725 113.024C73.3725 113.024 70.4332 116.489 68.9525 116.825" fill="white"/>
<path d="M65.5049 113.532C65.5049 113.532 69.2928 109.616 71.1625 108.162C71.1625 108.162 73.4255 110.739 73.3725 113.024C73.3725 113.024 70.4332 116.489 68.9525 116.825" stroke="#263238" stroke-width="0.473764" stroke-linecap="round" stroke-linejoin="round"/>
<path d="M68.7262 118.734C66.4645 121.96 63.6764 124.783 60.4785 127.084" stroke="#263238" stroke-width="0.355323" stroke-linecap="round" stroke-linejoin="round"/>
<path d="M65.4559 124.511C63.6828 127.299 61.2092 129.573 58.2822 131.106C58.3264 131.017 58.3662 130.929 58.4104 130.836" stroke="#263238" stroke-width="0.355323" stroke-linecap="round" stroke-linejoin="round"/>
<path d="M53.2207 133.656C53.4907 133.311 53.67 132.904 53.7423 132.472C53.782 131.906 53.6185 128.617 54.0207 128.715C54.4229 128.812 54.4008 130.262 54.4008 130.262C54.4008 130.262 55.5058 127.278 55.7268 127.389C55.9478 127.499 55.6738 128.379 55.6738 128.379C55.6738 128.379 56.2219 127.389 56.4252 127.495C56.6285 127.601 56.1644 128.936 56.1644 128.936C56.1644 128.936 56.7523 128.211 56.9556 128.295C57.1589 128.379 56.4385 130.063 56.4385 130.063C56.4385 130.063 57.1943 129.179 57.4064 129.356C57.6186 129.532 56.6241 130.607 56.4473 131.239C56.171 132.054 55.7183 132.798 55.1213 133.418L54.7942 135.08L53.2207 133.656Z" fill="white" stroke="#263238" stroke-width="0.473764" stroke-linecap="round" stroke-linejoin="round"/>
<path d="M36.7783 147.482C36.7783 147.482 38.2634 146.178 43.1696 145.378C43.8662 145.27 44.511 144.945 45.0128 144.45C46.1134 143.358 47.6648 141.913 48.5223 140.998C49.7112 139.694 50.0604 138.938 52.9423 132.781C53.5603 132.874 54.1311 133.166 54.5682 133.613C55.0053 134.06 55.2848 134.637 55.3644 135.256C55.3644 135.256 52.8229 141.36 51.4174 143.323C50.0118 145.285 43.9034 149.776 43.9034 149.776" fill="#08C0D8"/>
<path d="M36.7783 147.482C36.7783 147.482 38.2634 146.178 43.1696 145.378C43.8662 145.27 44.511 144.945 45.0128 144.45C46.1134 143.358 47.6648 141.913 48.5223 140.998C49.7112 139.694 50.0604 138.938 52.9423 132.781C53.5603 132.874 54.1311 133.166 54.5682 133.613C55.0053 134.06 55.2848 134.637 55.3644 135.256C55.3644 135.256 52.8229 141.36 51.4174 143.323C50.0118 145.285 43.9034 149.776 43.9034 149.776" stroke="#263238" stroke-width="0.473764" stroke-linecap="round" stroke-linejoin="round"/>
<path d="M36.2393 142.7L37.2382 138.836L40.7874 140.308L40.4383 143.522L36.2393 142.7Z" fill="white" stroke="#263238" stroke-width="0.473764" stroke-linecap="round" stroke-linejoin="round"/>
<path d="M36.5843 141.723C36.5843 141.723 37.9103 139.296 37.9103 138.713C37.9103 138.713 39.5059 137.899 39.2363 136.613C38.9666 135.327 38.7545 134.527 38.7545 134.527L39.1965 133.789C39.1965 133.789 40.7346 133.453 40.2661 132.463C39.7976 131.473 37.5434 132.852 36.0141 133.121C34.4848 133.391 32.4074 134.054 33.0792 135.601L32.9289 136.003C32.9289 136.003 31.4659 139.301 36.5843 141.723Z" fill="#263238" stroke="#263238" stroke-width="0.473764" stroke-linecap="round" stroke-linejoin="round"/>
<path d="M35.3994 144.061L35.9342 142.006C35.9342 142.006 39.3818 142.099 41.0217 143.606V145.232L35.3994 144.061Z" fill="#08C0D8" stroke="#263238" stroke-width="0.473764" stroke-linecap="round" stroke-linejoin="round"/>
<path d="M38.1843 139.849C38.1843 139.849 39.6297 142.006 41.7513 141.214C43.2497 140.649 41.959 138.562 41.959 138.562C41.959 138.562 42.6795 138.231 42.6485 137.82C42.6176 137.409 41.4375 136.525 41.4375 136.525C41.4375 136.525 41.2253 135.155 40.8231 134.881L39.2054 133.798C39.2054 133.798 37.4374 133.736 37.3755 134.063C37.3136 134.39 38.454 135.517 38.454 135.517C38.454 135.517 38.5689 137.922 38.2639 138.076C37.9589 138.231 37.1501 137.997 37.1501 137.997C37.1501 137.997 35.5854 137.373 35.8506 138.726C36.1158 140.078 37.57 140.507 38.1843 139.849Z" fill="white" stroke="#263238" stroke-width="0.473764" stroke-linecap="round" stroke-linejoin="round"/>
<path d="M40.9817 136.746C41.0568 136.949 41.048 137.144 40.9817 137.188C40.9154 137.232 40.7607 137.082 40.6856 136.878C40.6104 136.675 40.6148 136.481 40.6856 136.436C40.7563 136.392 40.9021 136.543 40.9817 136.746Z" fill="#263238"/>
<path d="M39.8105 135.885C39.9047 135.766 40.0404 135.688 40.19 135.667C40.3395 135.645 40.4915 135.682 40.615 135.769" stroke="#263238" stroke-width="0.355323" stroke-linecap="round" stroke-linejoin="round"/>
<path d="M41.1055 139.305C41.1055 139.305 41.6668 139.514 41.9364 139.261" stroke="#263238" stroke-width="0.355323" stroke-linecap="round" stroke-linejoin="round"/>
<path d="M47.5814 192.738L47.8643 194.55C49.955 196.699 52.386 195.965 52.5009 196.924C52.6158 197.883 49.2212 197.715 47.9173 197.715C46.6134 197.715 44.3548 198.157 43.904 197.379C43.6786 196.981 44.315 195.965 44.5537 195.05C44.6993 194.483 44.7279 193.892 44.6377 193.313L47.5814 192.738Z" fill="#263238" stroke="#263238" stroke-width="0.473764" stroke-linecap="round" stroke-linejoin="round"/>
<path d="M26.0777 192.738L25.0036 194.55C27.0943 196.699 29.5253 195.965 29.6402 196.924C29.7551 197.883 26.3606 197.715 25.0611 197.715C23.7616 197.715 21.4986 198.157 21.0433 197.379C20.8179 196.981 22.6831 193.313 22.6831 193.313L26.0777 192.738Z" fill="#263238" stroke="#263238" stroke-width="0.473764" stroke-linecap="round" stroke-linejoin="round"/>
<path d="M45.0838 160.932C45.0838 160.932 45.3844 163.323 45.0838 164.238C45.0838 164.238 49.5348 174.051 49.6851 178.426C49.7116 179.227 48.0983 193.72 48.0983 193.72C48.0983 193.72 46.8165 194.763 44.328 193.72C44.328 193.72 43.886 183.324 44.4827 179.178C44.4827 179.178 41.3887 171.664 40.5047 169.343C39.6207 167.023 39.2627 162.143 39.2627 162.143L45.0838 160.932Z" fill="#999999" stroke="#263238" stroke-width="0.473764" stroke-linecap="round" stroke-linejoin="round"/>
<path opacity="0.3" d="M40.4784 169.343C41.3624 171.646 44.4564 179.178 44.4564 179.178C43.8509 183.324 44.3018 193.72 44.3018 193.72C46.7902 194.763 48.072 193.72 48.072 193.72C48.072 193.72 48.1162 193.353 48.1825 192.738C48.1825 192.738 45.1857 194.745 44.8763 191.501C44.5669 188.256 45.9416 181.335 46.1007 179.315C46.2598 177.295 42.8122 173.485 43.8376 170.678C44.8631 167.871 45.0576 160.954 45.0576 160.954L39.2188 162.165C39.2188 162.165 39.5723 167.04 40.4784 169.343Z" fill="black"/>
<path d="M46.9531 178.59C46.9531 178.59 47.5498 179.96 48.5178 180.04" stroke="#263238" stroke-width="0.355323" stroke-linecap="round" stroke-linejoin="round"/>
<path d="M44.4735 167.398C43.8145 168.642 42.9319 169.754 41.8701 170.678" stroke="#263238" stroke-width="0.355323" stroke-linecap="round" stroke-linejoin="round"/>
<path d="M44.4741 161.798C44.4741 161.798 43.9083 166.89 41.305 170.395C38.7016 173.9 36.328 180.685 34.2948 182.272C32.2616 183.859 26.1488 193.693 26.1488 193.693C26.1488 193.693 23.4968 195.589 21.8525 193.468C21.8525 193.468 26.9444 183.173 30.1091 179.218C30.1091 179.218 33.2738 171.571 34.2948 169.343C34.2948 169.343 33.6142 166.324 35.8772 162.364L44.4741 161.798Z" fill="#999999" stroke="#263238" stroke-width="0.473764" stroke-linecap="round" stroke-linejoin="round"/>
<path opacity="0.3" d="M23.7174 193.388C23.5671 190.599 28.0887 185.017 31.2314 178.59C34.374 172.163 38.4802 171.147 36.2923 170.678C35.8347 170.561 35.41 170.341 35.0507 170.035C34.6914 169.728 34.407 169.344 34.2193 168.91C34.2311 169.059 34.2518 169.206 34.2812 169.352C33.2601 171.562 30.0954 179.226 30.0954 179.226C26.9307 183.182 21.8389 193.477 21.8389 193.477C22.0267 193.733 22.2637 193.951 22.5361 194.115C22.8085 194.28 23.1108 194.389 23.4256 194.436C23.547 194.292 23.636 194.125 23.6863 193.944C23.7367 193.763 23.7473 193.573 23.7174 193.388Z" fill="black"/>
<path d="M30.8998 179.611C30.8998 179.611 30.5595 181.251 31.6336 181.989" stroke="#263238" stroke-width="0.355323" stroke-linecap="round" stroke-linejoin="round"/>
<path d="M36.5448 163.792C36.3372 163.773 36.1357 163.711 35.9536 163.61C35.7714 163.509 35.6126 163.37 35.4875 163.203C35.3625 163.037 35.2739 162.845 35.2276 162.642C35.1813 162.439 35.1783 162.228 35.2188 162.024C35.3305 161.502 35.3305 160.963 35.2188 160.441C34.3083 155.884 31.6165 147.592 33.3934 145.175C35.8818 141.78 40.9692 143.477 42.6754 145.966C44.2179 148.229 46.1362 157.321 46.1318 161.414C46.1292 161.729 46.0263 162.036 45.838 162.29C45.6497 162.543 45.3858 162.73 45.0843 162.824C42.3265 163.692 39.4271 164.021 36.5448 163.792Z" fill="#08C0D8" stroke="#263238" stroke-width="0.473764" stroke-linecap="round" stroke-linejoin="round"/>
<path d="M53.292 133.042C53.6069 132.736 53.8408 132.356 53.9727 131.937C54.0876 131.384 54.3749 128.105 54.7594 128.255C55.144 128.405 54.9274 129.837 54.9274 129.837C54.9274 129.837 56.4214 127.031 56.6114 127.185C56.8015 127.34 56.4214 128.158 56.4214 128.158C56.4214 128.158 57.102 127.274 57.3053 127.367C57.5087 127.459 56.8633 128.759 56.8633 128.759C56.8633 128.759 57.544 128.118 57.7473 128.233C57.9507 128.348 56.996 129.93 56.996 129.93C56.996 129.93 57.88 129.174 58.0523 129.364C58.2247 129.554 57.1065 130.492 56.8457 131.097C56.4664 131.866 55.9233 132.541 55.2545 133.077L54.702 134.677L53.292 133.042Z" fill="white" stroke="#263238" stroke-width="0.473764" stroke-linecap="round" stroke-linejoin="round"/>
<path d="M35.1211 144.494C35.1211 144.494 36.7742 143.407 41.7511 143.283C42.4564 143.268 43.1394 143.033 43.7047 142.611C44.9423 141.679 46.6971 140.463 47.6474 139.672C49.0043 138.54 49.4552 137.838 53.1503 132.131C53.7507 132.306 54.2776 132.673 54.6509 133.174C55.0242 133.676 55.2236 134.286 55.2188 134.912C55.2188 134.912 51.8685 140.613 50.211 142.364C48.5535 144.114 41.8793 147.738 41.8793 147.738" fill="#08C0D8"/>
<path d="M35.1211 144.494C35.1211 144.494 36.7742 143.407 41.7511 143.283C42.4564 143.268 43.1394 143.033 43.7047 142.611C44.9423 141.679 46.6971 140.463 47.6474 139.672C49.0043 138.54 49.4552 137.838 53.1503 132.131C53.7507 132.306 54.2776 132.673 54.6509 133.174C55.0242 133.676 55.2236 134.286 55.2188 134.912C55.2188 134.912 51.8685 140.613 50.211 142.364C48.5535 144.114 41.8793 147.738 41.8793 147.738" stroke="#263238" stroke-width="0.473764" stroke-linecap="round" stroke-linejoin="round"/>
<path d="M42.3922 148.384C41.6908 150.172 40.4384 151.691 38.8164 152.72" stroke="#263238" stroke-width="0.355323" stroke-linecap="round" stroke-linejoin="round"/>
<path d="M36.1467 156.468L35.1787 161.467" stroke="#263238" stroke-width="0.355323" stroke-linecap="round" stroke-linejoin="round"/>
<path d="M44.5625 179.85C44.6886 180.558 44.9665 181.231 45.3769 181.822C45.7873 182.414 46.3207 182.909 46.9405 183.275" stroke="#263238" stroke-width="0.355323" stroke-linecap="round" stroke-linejoin="round"/>
<path d="M73.8885 149.215C73.725 150.183 73.5659 151.151 73.4023 152.114" stroke="#263238" stroke-width="0.355323" stroke-linecap="round" stroke-linejoin="round"/>
</svg>
