<svg width="36" height="36" viewBox="0 0 36 36" fill="none" xmlns="http://www.w3.org/2000/svg">
<rect width="36" height="36" rx="12" fill="#CCFFEB" fill-opacity="0.5"/>
<path d="M24.9445 15.1875L20.9445 11.1875M24.9445 15.1875L19.946 20.1859C19.2873 20.8446 18.4878 21.3646 17.5699 21.5229C16.6431 21.6828 15.4929 21.736 14.9444 21.1875C14.396 20.639 14.4491 19.4888 14.609 18.562C14.7673 17.6441 15.2873 16.8446 15.946 16.1859L20.9445 11.1875M24.9445 15.1875C24.9445 15.1875 27.9444 12.1875 25.9444 10.1875C23.9444 8.1875 20.9445 11.1875 20.9445 11.1875M26.5 18C26.5 24.5 24.5 26.5 18 26.5C11.5 26.5 9.5 24.5 9.5 18C9.5 11.5 11.5 9.5 18 9.5" stroke="#00AF6A" stroke-width="1.5" stroke-linecap="round" stroke-linejoin="round"/>
</svg>
