<svg width="20" height="20" viewBox="0 0 20 20" fill="none" xmlns="http://www.w3.org/2000/svg">
<path d="M3.00011 17C2.71678 17 2.47945 16.904 2.28811 16.712C2.09678 16.52 2.00078 16.2827 2.00011 16C1.99945 15.7173 2.09545 15.48 2.28811 15.288C2.48078 15.096 2.71811 15 3.00011 15H4.00011V8C4.00011 6.61667 4.41678 5.38767 5.25011 4.313C6.08345 3.23834 7.16678 2.534 8.50011 2.2V1.5C8.50011 1.08334 8.64611 0.729336 8.93811 0.438002C9.23011 0.146669 9.58411 0.000668939 10.0001 2.27273e-06C10.4161 -0.000664394 10.7704 0.145336 11.0631 0.438002C11.3558 0.730669 11.5014 1.08467 11.5001 1.5V2.2C12.8334 2.53334 13.9168 3.23767 14.7501 4.313C15.5834 5.38834 16.0001 6.61734 16.0001 8V15H17.0001C17.2834 15 17.5211 15.096 17.7131 15.288C17.9051 15.48 18.0008 15.7173 18.0001 16C17.9994 16.2827 17.9034 16.5203 17.7121 16.713C17.5208 16.9057 17.2834 17.0013 17.0001 17H3.00011ZM10.0001 20C9.45011 20 8.97945 19.8043 8.58811 19.413C8.19678 19.0217 8.00078 18.5507 8.00011 18H12.0001C12.0001 18.55 11.8044 19.021 11.4131 19.413C11.0218 19.805 10.5508 20.0007 10.0001 20ZM1.00011 8C0.716781 8 0.479448 7.89167 0.288115 7.675C0.0967814 7.45834 0.0174479 7.20834 0.0501146 6.925C0.183448 5.675 0.533448 4.51234 1.10011 3.437C1.66678 2.36167 2.39178 1.42434 3.27511 0.625002C3.49178 0.441669 3.73778 0.358336 4.01311 0.375002C4.28845 0.391669 4.50911 0.516669 4.67511 0.750002C4.84111 0.983336 4.90778 1.23334 4.87511 1.5C4.84245 1.76667 4.71745 2 4.50011 2.2C3.85011 2.81667 3.31678 3.53334 2.90011 4.35C2.48345 5.16667 2.20845 6.05 2.07511 7C2.04178 7.28334 1.92511 7.521 1.72511 7.713C1.52511 7.905 1.28345 8.00067 1.00011 8ZM19.0001 8C18.7168 8 18.4751 7.904 18.2751 7.712C18.0751 7.52 17.9584 7.28267 17.9251 7C17.7918 6.05 17.5168 5.16667 17.1001 4.35C16.6834 3.53334 16.1501 2.81667 15.5001 2.2C15.2834 2 15.1584 1.76667 15.1251 1.5C15.0918 1.23334 15.1584 0.983336 15.3251 0.750002C15.4918 0.516669 15.7128 0.391669 15.9881 0.375002C16.2634 0.358336 16.5091 0.441669 16.7251 0.625002C17.6084 1.425 18.3334 2.36234 18.9001 3.437C19.4668 4.51167 19.8168 5.67434 19.9501 6.925C19.9834 7.20834 19.9044 7.45834 19.7131 7.675C19.5218 7.89167 19.2841 8 19.0001 8Z" fill="#A8A8A9"/>
</svg>
