<svg width="36" height="36" viewBox="0 0 36 36" fill="none" xmlns="http://www.w3.org/2000/svg">
<rect width="36" height="36" rx="12" fill="#FFCCCC"/>
<path d="M22 16.4298V13C22 10.7909 20.2091 9 18 9C15.7909 9 14 10.7909 14 13V16.4298M22 16.4298C20.9876 16.1268 19.6753 16 18 16C16.3247 16 15.0124 16.1268 14 16.4298M22 16.4298C24.2226 17.0952 25 18.6104 25 21.5C25 25.7059 23.3529 27 18 27C12.6471 27 11 25.7059 11 21.5C11 18.6104 11.7774 17.0952 14 16.4298" stroke="#FF0000" stroke-linecap="round" stroke-linejoin="round"/>
</svg>
