<svg width="287" height="191" viewBox="0 0 287 191" fill="none" xmlns="http://www.w3.org/2000/svg">
<g clip-path="url(#clip0_33_1880)">
<path d="M102.947 109.922C112.783 92.5959 131.544 79.2923 151.405 80.5739C136.755 96.5273 128.212 117.156 127.288 138.809C126.962 147.161 127.468 156.485 121.93 162.739C118.485 166.63 113.218 168.515 108.039 168.91C102.861 169.306 97.6833 168.369 92.5738 167.436L91.3344 167.817C90.8625 147.892 93.1116 127.248 102.947 109.922Z" fill="#F0F0F0"/>
<path d="M151.434 80.9912C136.748 88.0713 124.225 99.8959 116.537 114.317C114.875 117.435 113.46 120.742 112.843 124.239C112.225 127.738 112.657 131.069 113.85 134.392C114.941 137.43 116.408 140.411 116.743 143.661C117.095 147.088 115.836 150.291 113.57 152.834C110.798 155.945 107.074 157.873 103.367 159.631C99.2516 161.583 94.9459 163.546 92.0309 167.19C91.6777 167.632 91.0142 167.057 91.3669 166.616C96.4385 160.276 105.12 159.084 111.14 153.977C113.949 151.594 116.058 148.349 115.925 144.547C115.809 141.222 114.298 138.146 113.167 135.08C111.979 131.86 111.387 128.623 111.813 125.19C112.249 121.678 113.537 118.308 115.113 115.162C118.665 108.065 123.526 101.55 129.095 95.9181C135.496 89.4444 142.955 84.1148 151.15 80.1599C151.658 79.9154 151.938 80.7482 151.434 80.9912Z" fill="white"/>
<path d="M118.789 109.497C116.537 107.849 114.944 105.452 114.294 102.736C113.644 100.02 113.98 97.1609 115.241 94.6694C115.497 94.1661 116.29 94.5422 116.033 95.0461C114.855 97.364 114.543 100.027 115.153 102.555C115.764 105.084 117.256 107.31 119.362 108.833C119.819 109.164 119.244 109.827 118.789 109.497Z" fill="white"/>
<path d="M113.094 132.924C118.736 132.099 123.86 129.174 127.444 124.734C127.798 124.293 128.462 124.868 128.108 125.308C124.369 129.922 119.031 132.954 113.158 133.8C112.598 133.881 112.537 133.004 113.094 132.924Z" fill="white"/>
<path d="M135.929 90.5253C136.668 91.3449 137.598 91.9681 138.636 92.3388C139.675 92.7095 140.789 92.8162 141.878 92.6492C142.437 92.5619 142.498 93.4385 141.943 93.5252C140.738 93.7041 139.508 93.5848 138.36 93.1778C137.211 92.7708 136.18 92.0883 135.356 91.1902C135.271 91.112 135.22 91.0045 135.211 90.8895C135.203 90.7744 135.238 90.6604 135.311 90.5707C135.387 90.4831 135.495 90.4291 135.611 90.4206C135.727 90.4121 135.841 90.4497 135.929 90.5253Z" fill="white"/>
<path d="M190.921 135.232C190.574 135.296 190.227 135.361 189.876 135.432C185.213 136.323 180.629 137.591 176.171 139.226C175.824 139.346 175.475 139.474 175.132 139.605C164.433 143.657 154.578 149.662 146.069 157.317C142.685 160.366 139.538 163.668 136.655 167.195C132.674 172.066 128.744 177.665 123.541 180.841C123.002 181.179 122.443 181.483 121.866 181.751L91.8944 169.301C91.8405 169.239 91.7834 169.183 91.7291 169.12L90.5098 168.678C90.6458 168.486 90.791 168.289 90.927 168.097C91.0054 167.985 91.0905 167.876 91.1689 167.764C91.2233 167.69 91.2781 167.617 91.323 167.547C91.341 167.523 91.3594 167.498 91.3746 167.48C91.4194 167.411 91.4685 167.351 91.5106 167.288C92.3191 166.187 93.1368 165.09 93.9636 163.997C93.9664 163.99 93.9664 163.99 93.9759 163.986C100.297 155.672 107.367 147.814 115.403 141.28C115.645 141.084 115.889 140.88 116.144 140.689C119.783 137.764 123.654 135.142 127.719 132.849C129.949 131.6 132.241 130.465 134.586 129.448C140.649 126.833 147.085 125.19 153.658 124.577C166.762 123.359 180.109 126.351 190.159 134.594C190.416 134.805 190.667 135.014 190.921 135.232Z" fill="#F0F0F0"/>
<path d="M190.696 135.585C174.713 132.383 157.605 134.274 142.796 141.153C139.595 142.64 136.477 144.428 133.881 146.848C131.284 149.27 129.626 152.189 128.581 155.562C127.626 158.645 127.005 161.91 125.318 164.707C123.54 167.655 120.608 169.454 117.27 170.118C113.186 170.93 109.054 170.224 105.037 169.394C100.577 168.471 95.9594 167.442 91.4411 168.594C90.8936 168.734 90.7093 167.875 91.256 167.736C99.1171 165.731 106.765 170.014 114.642 169.566C118.318 169.357 121.953 168.037 124.133 164.921C126.039 162.196 126.682 158.83 127.622 155.699C128.61 152.412 130.083 149.47 132.487 146.986C134.947 144.445 138.002 142.532 141.151 140.969C148.254 137.444 156.053 135.174 163.885 134.034C172.888 132.725 182.048 132.966 190.969 134.75C191.521 134.86 191.245 135.694 190.696 135.585Z" fill="white"/>
<path d="M147.492 138.663C146.686 135.989 146.854 133.115 147.968 130.555C149.083 127.994 151.069 125.913 153.574 124.684C154.081 124.437 154.489 125.215 153.98 125.463C151.646 126.603 149.795 128.541 148.763 130.928C147.73 133.315 147.584 135.992 148.349 138.477C148.515 139.018 147.657 139.2 147.492 138.663Z" fill="white"/>
<path d="M128.86 153.935C133.861 156.677 139.71 157.431 145.242 156.046C145.79 155.909 145.974 156.767 145.427 156.905C139.668 158.335 133.582 157.538 128.385 154.673C127.889 154.399 128.367 153.663 128.86 153.935Z" fill="white"/>
<path d="M172.584 133.849C172.681 134.948 173.049 136.007 173.655 136.929C174.261 137.851 175.087 138.608 176.057 139.131C176.556 139.398 176.077 140.135 175.582 139.87C174.512 139.286 173.602 138.449 172.93 137.432C172.258 136.415 171.845 135.248 171.727 134.034C171.706 133.921 171.729 133.804 171.792 133.707C171.854 133.61 171.951 133.54 172.063 133.512C172.176 133.488 172.295 133.51 172.393 133.573C172.49 133.636 172.559 133.735 172.584 133.849Z" fill="white"/>
<path d="M133.827 155.771C129.63 135.447 124.383 128.671 124.383 128.671L122.379 127.114L119.968 125.239L119.98 124.998L119.408 124.803L119.274 124.699L119.054 124.53L119.019 124.568L118.944 124.645L108.036 120.932L94.198 116.225L87.7901 107.885C86.7465 106.526 85.4029 105.428 83.8646 104.677C82.3263 103.925 80.6352 103.541 78.9237 103.554L58.4588 103.705C55.6917 103.726 53.0323 104.782 51.0035 106.667L37.5523 119.161L16.5926 129.186L16.5572 129.15L16.3371 129.308L13.0986 130.858L13.2323 131.555L11.2279 133.003C11.2279 133.003 5.98108 139.308 1.78363 158.219C0.715849 163.031 0.190247 173.353 0.000533136 186.073C-0.00899618 186.716 0.109306 187.355 0.348558 187.953C0.587809 188.55 0.94324 189.093 1.39418 189.552C1.84512 190.01 2.38258 190.375 2.9753 190.623C3.56802 190.872 4.20417 191 4.84678 191H116.797L130.769 191C131.412 191 132.047 190.872 132.64 190.623C133.232 190.375 133.769 190.011 134.22 189.553C134.671 189.096 135.026 188.553 135.266 187.956C135.506 187.359 135.624 186.721 135.616 186.078C135.43 172.237 134.905 160.989 133.827 155.771Z" fill="#3F3D56"/>
<path d="M148.191 17.7241C143.836 17.7241 139.658 19.4568 136.579 22.5409C133.499 25.6251 131.769 29.8081 131.769 34.1697C131.769 38.5313 133.499 42.7143 136.579 45.7985C139.658 48.8826 143.836 50.6153 148.191 50.6153H270.577C274.933 50.6153 279.11 48.8826 282.19 45.7985C285.27 42.7143 287 38.5313 287 34.1697C287 29.8081 285.27 25.6251 282.19 22.5409C279.11 19.4568 274.933 17.7241 270.577 17.7241H148.191Z" fill="#E5E5E5"/>
<path d="M148.191 21.0522C144.717 21.0522 141.385 22.4342 138.929 24.8942C136.472 27.3542 135.092 30.6906 135.092 34.1696C135.092 37.6485 136.472 40.9849 138.929 43.4449C141.385 45.9049 144.717 47.2869 148.191 47.2869H270.578C274.052 47.2869 277.383 45.9049 279.84 43.4449C282.296 40.9849 283.676 37.6485 283.676 34.1696C283.676 30.6906 282.296 27.3542 279.84 24.8942C277.383 22.4342 274.052 21.0522 270.578 21.0522H148.191Z" fill="white"/>
<path d="M71.9053 95.8546C86.7126 95.8546 98.7164 83.834 98.7164 69.0058C98.7164 54.1776 86.7126 42.157 71.9053 42.157C57.098 42.157 45.0942 54.1776 45.0942 69.0058C45.0942 83.834 57.098 95.8546 71.9053 95.8546Z" fill="#9E616A"/>
<path d="M65.0463 94.54C64.9317 94.2875 64.8175 94.0341 64.7036 93.7798C64.7475 93.7812 64.791 93.7875 64.8349 93.7887L65.0463 94.54Z" fill="#2F2E41"/>
<path d="M44.3482 43.3781C45.7043 42.2948 47.2891 41.2981 49.0229 41.3541C50.7566 41.4101 52.5147 42.9782 52.1555 44.6776C55.34 39.0312 60.4087 34.6885 66.472 32.4118C72.5353 30.135 79.2057 30.0696 85.3123 32.2272C89.6213 33.7495 93.847 36.7952 94.8368 41.2623C95.0909 42.409 95.1454 43.6664 95.8604 44.5976C96.7619 45.7716 98.4867 46.0372 99.9069 45.6242C99.9211 45.62 99.9353 45.6159 99.9495 45.6116C100.189 45.5296 100.448 45.5215 100.693 45.5885C100.937 45.6554 101.156 45.7943 101.321 45.9872C101.486 46.1801 101.589 46.4181 101.618 46.6704C101.646 46.9226 101.598 47.1777 101.48 47.4024L100.261 49.6794C101.798 50.0225 103.395 49.9885 104.916 49.5803C105.168 49.5139 105.435 49.5275 105.68 49.6191C105.925 49.7107 106.135 49.8758 106.282 50.0919C106.43 50.308 106.506 50.5643 106.502 50.8259C106.498 51.0874 106.414 51.3413 106.26 51.5527C102.24 57.0801 95.523 60.6493 88.6689 60.6074C83.7975 60.5777 78.8759 58.8964 74.1349 60.0182C72.3008 60.4522 70.587 61.2919 69.1192 62.4757C67.6514 63.6594 66.4669 65.1573 65.6526 66.8593C64.8382 68.5613 64.4148 70.4242 64.4132 72.3115C64.4116 74.1988 64.832 76.0625 65.6435 77.7658C64.1871 76.1705 61.3716 76.5482 59.8817 78.1124C58.3919 79.6765 58.0062 82.0111 58.1564 84.1675C58.3859 87.4655 59.6763 90.5732 61.0366 93.5979C49.6315 93.2383 38.8441 85.2265 35.2131 74.3904C31.5668 63.5089 35.3882 50.5358 44.3482 43.3781Z" fill="#2F2E41"/>
<path opacity="0.2" d="M26.3892 149.635L33.9091 190.606L38.4212 191L26.3892 149.635Z" fill="black"/>
<path opacity="0.2" d="M109.222 146.545L101.702 190.577L97.1899 191L109.222 146.545Z" fill="black"/>
<path d="M50.7621 29.589C49.3202 30.1919 47.8158 29.5311 47.1848 28.018C46.5442 26.4817 47.1425 24.9221 48.6074 24.3096C50.0725 23.6969 51.5502 24.3593 52.2012 25.9204C52.8423 27.458 52.2505 28.9666 50.7621 29.589ZM48.0001 21.2856L46.8537 21.765C46.5673 21.8833 46.247 21.8897 45.9561 21.7829C45.6653 21.6761 45.425 21.4638 45.283 21.1881L45.2263 21.077C43.9927 18.8492 43.8515 16.1417 44.8087 13.0338C45.6954 10.2459 46.0637 8.28518 45.3231 6.50887C44.4667 4.45511 42.638 3.81177 40.3061 4.74372C39.4016 5.12192 39.1138 5.11589 38.4021 5.82296C38.2472 5.97863 38.0627 6.10149 37.8594 6.1842C37.6562 6.26692 37.4383 6.30779 37.219 6.3044C37.0069 6.3019 36.7975 6.25665 36.6033 6.17137C36.409 6.08608 36.2339 5.96249 36.0884 5.80798C35.8081 5.51022 35.651 5.11701 35.6489 4.70778C35.6469 4.29854 35.8 3.90377 36.0773 3.60318C37.2736 2.34908 38.7166 1.35693 40.3151 0.689333C45.3255 -1.40578 47.8477 1.68735 49.0019 4.45541C50.1309 7.16289 49.4958 9.67498 48.4754 12.9284C47.6203 15.6318 47.6702 17.6349 48.6415 19.6267C48.7116 19.7773 48.7506 19.9405 48.7562 20.1066C48.7618 20.2726 48.7338 20.4381 48.6739 20.593C48.614 20.748 48.5234 20.8892 48.4076 21.0082C48.2919 21.1272 48.1532 21.2216 48.0001 21.2856Z" fill="#08C0D8"/>
<path d="M175.225 42.0131H150.874C150.797 42.0136 150.72 41.9988 150.649 41.9695C150.577 41.9402 150.512 41.8971 150.457 41.8425C150.402 41.7879 150.358 41.723 150.329 41.6514C150.299 41.5799 150.284 41.5032 150.284 41.4257C150.284 41.3483 150.299 41.2716 150.329 41.2C150.358 41.1285 150.402 41.0636 150.457 41.009C150.512 40.9544 150.577 40.9112 150.649 40.882C150.72 40.8527 150.797 40.8379 150.874 40.8384H175.225C175.379 40.8394 175.528 40.9018 175.637 41.0118C175.746 41.1219 175.807 41.2706 175.807 41.4257C175.807 41.5808 175.746 41.7296 175.637 41.8396C175.528 41.9497 175.379 42.012 175.225 42.0131Z" fill="#08C0D8"/>
<path d="M206.115 42.2089H181.764C181.687 42.2094 181.61 42.1946 181.539 42.1653C181.467 42.136 181.402 42.0929 181.347 42.0383C181.292 41.9837 181.249 41.9188 181.219 41.8472C181.189 41.7757 181.174 41.699 181.174 41.6215C181.174 41.5441 181.189 41.4674 181.219 41.3958C181.249 41.3243 181.292 41.2594 181.347 41.2048C181.402 41.1502 181.467 41.107 181.539 41.0778C181.61 41.0485 181.687 41.0337 181.764 41.0342H206.115C206.192 41.0337 206.269 41.0485 206.34 41.0778C206.412 41.107 206.477 41.1502 206.532 41.2048C206.587 41.2594 206.63 41.3243 206.66 41.3958C206.69 41.4674 206.705 41.5441 206.705 41.6215C206.705 41.699 206.69 41.7757 206.66 41.8472C206.63 41.9188 206.587 41.9837 206.532 42.0383C206.477 42.0929 206.412 42.136 206.34 42.1653C206.269 42.1946 206.192 42.2094 206.115 42.2089Z" fill="#08C0D8"/>
<path d="M237.005 42.4047H212.654C212.499 42.4036 212.351 42.3413 212.242 42.2312C212.133 42.1212 212.072 41.9724 212.072 41.8173C212.072 41.6622 212.133 41.5135 212.242 41.4034C212.351 41.2934 212.499 41.231 212.654 41.23H237.005C237.082 41.2295 237.159 41.2443 237.23 41.2736C237.302 41.3028 237.367 41.346 237.422 41.4006C237.477 41.4552 237.52 41.5201 237.55 41.5916C237.58 41.6632 237.595 41.7399 237.595 41.8173C237.595 41.8948 237.58 41.9715 237.55 42.043C237.52 42.1146 237.477 42.1795 237.422 42.2341C237.367 42.2887 237.302 42.3318 237.23 42.3611C237.159 42.3904 237.082 42.4052 237.005 42.4047Z" fill="#08C0D8"/>
<path d="M267.894 42.6005H243.544C243.389 42.5994 243.241 42.5371 243.132 42.427C243.023 42.317 242.961 42.1682 242.961 42.0131C242.961 41.858 243.023 41.7092 243.132 41.5992C243.241 41.4892 243.389 41.4268 243.544 41.4258H267.894C268.049 41.4268 268.197 41.4892 268.306 41.5992C268.416 41.7092 268.477 41.858 268.477 42.0131C268.477 42.1682 268.416 42.317 268.306 42.427C268.197 42.5371 268.049 42.5994 267.894 42.6005Z" fill="#08C0D8"/>
<path d="M162.996 36.6076C165.495 36.6076 167.522 34.5785 167.522 32.0755C167.522 29.5725 165.495 27.5435 162.996 27.5435C160.496 27.5435 158.47 29.5725 158.47 32.0755C158.47 34.5785 160.496 36.6076 162.996 36.6076Z" fill="#08C0D8"/>
<path d="M194.073 36.6076C196.572 36.6076 198.598 34.5785 198.598 32.0755C198.598 29.5725 196.572 27.5435 194.073 27.5435C191.573 27.5435 189.547 29.5725 189.547 32.0755C189.547 34.5785 191.573 36.6076 194.073 36.6076Z" fill="#08C0D8"/>
<path d="M225.149 36.6076C227.648 36.6076 229.674 34.5785 229.674 32.0755C229.674 29.5725 227.648 27.5435 225.149 27.5435C222.649 27.5435 220.623 29.5725 220.623 32.0755C220.623 34.5785 222.649 36.6076 225.149 36.6076Z" fill="#08C0D8"/>
<path d="M256.225 36.6076C258.725 36.6076 260.751 34.5785 260.751 32.0755C260.751 29.5725 258.725 27.5435 256.225 27.5435C253.726 27.5435 251.7 29.5725 251.7 32.0755C251.7 34.5785 253.726 36.6076 256.225 36.6076Z" fill="#08C0D8"/>
</g>
<defs>
<clipPath id="clip0_33_1880">
<rect width="287" height="191" fill="white"/>
</clipPath>
</defs>
</svg>
