<svg width="20" height="21" viewBox="0 0 20 21" fill="none" xmlns="http://www.w3.org/2000/svg">
<path d="M7.76379 3.79519C8.46617 3.60724 9.21206 3.5 9.99973 3.5C13.7571 3.5 16.5637 5.9404 18.2324 7.93934C19.4845 9.43936 19.4844 11.5609 18.2322 13.0609C18.0403 13.2907 17.8334 13.5264 17.6118 13.7635M10.4998 7.54148C11.756 7.75224 12.7475 8.74375 12.9583 10M0.999756 1.5L18.9998 19.5M9.49977 13.4585C8.41559 13.2766 7.5286 12.5132 7.17047 11.5M2.3489 7.27822C2.14189 7.50124 1.94797 7.72274 1.76737 7.93907C0.515178 9.43906 0.514983 11.5606 1.76715 13.0607C3.4358 15.0596 6.24239 17.5 9.99978 17.5C10.8019 17.5 11.5606 17.3888 12.2742 17.1944" stroke="#A8A8A9" stroke-width="1.5" stroke-linecap="round" stroke-linejoin="round"/>
</svg>
