<svg width="24" height="24" viewBox="0 0 24 24" fill="none" xmlns="http://www.w3.org/2000/svg">
<path d="M6.4996 7C7.96094 5.53865 9.59314 4.41899 10.6971 3.74088C11.5017 3.24665 12.4975 3.24665 13.3021 3.74088C14.4061 4.41899 16.0382 5.53865 17.4996 7C20.668 10.1684 20.4996 12 20.4996 15C20.4996 16.4098 20.3892 17.5988 20.2721 18.4632C20.149 19.3726 19.3558 20 18.438 20H16.9996C15.895 20 14.9996 19.1046 14.9996 18V16C14.9996 15.2043 14.6835 14.4413 14.1209 13.8787C13.5583 13.3161 12.7952 13 11.9996 13C11.2039 13 10.4409 13.3161 9.87828 13.8787C9.31567 14.4413 8.9996 15.2043 8.9996 16V18C8.9996 19.1046 8.10417 20 6.9996 20H5.56115C4.64342 20 3.85025 19.3726 3.72708 18.4631C3.61002 17.5988 3.4996 16.4098 3.4996 15C3.4996 12 3.3312 10.1684 6.4996 7Z" stroke="#A8A8A9" stroke-width="1.5" stroke-linecap="round" stroke-linejoin="round"/>
</svg>
