<svg width="38" height="38" viewBox="0 0 38 38" fill="none" xmlns="http://www.w3.org/2000/svg">
<rect x="0.808594" y="0.389709" width="36.8252" height="36.8252" rx="12.2751" fill="#08C0D8" fill-opacity="0.2"/>
<path d="M24.8475 28.0087H13.5954C12.183 28.0087 11.0381 26.8638 11.0381 25.4514C11.0381 21.2771 17.1756 21.3597 19.2215 21.3597C21.2673 21.3597 27.4048 21.2771 27.4048 25.4514C27.4048 26.8638 26.2599 28.0087 24.8475 28.0087Z" stroke="#08C0D8" stroke-width="1.53438" stroke-linecap="round" stroke-linejoin="round"/>
<path d="M19.2215 17.7794C21.4812 17.7794 23.3132 15.9475 23.3132 13.6877C23.3132 11.4279 21.4812 9.59601 19.2215 9.59601C16.9617 9.59601 15.1298 11.4279 15.1298 13.6877C15.1298 15.9475 16.9617 17.7794 19.2215 17.7794Z" stroke="#08C0D8" stroke-width="1.53438" stroke-linecap="round" stroke-linejoin="round"/>
</svg>
