<svg width="24" height="24" viewBox="0 0 24 24" fill="none" xmlns="http://www.w3.org/2000/svg">
<path d="M20 22H4C3.46957 22 2.96086 21.7893 2.58579 21.4142C2.21071 21.0391 2 20.5304 2 20V4C2 3.46957 2.21071 2.96086 2.58579 2.58579C2.96086 2.21071 3.46957 2 4 2H16C16.5304 2 17.0391 2.21071 17.4142 2.58579C17.7893 2.96086 18 3.46957 18 4V20C18 20.5304 18.2107 21.0391 18.5858 21.4142C18.9609 21.7893 19.4696 22 20 22ZM20 22C20.5304 22 21.0391 21.7893 21.4142 21.4142C21.7893 21.0391 22 20.5304 22 20V11C22 9.9 21.1 9 20 9H18M6 14H10H12H14M9 18H14" stroke="#A8A8A9" stroke-width="1.5" stroke-linecap="round" stroke-linejoin="round"/>
<path d="M8.34375 6.375C8.34375 6.375 8.1875 7 8.1875 8.25C8.1875 9.5 8.34375 10.125 8.34375 10.125C8.34375 10.125 8.96875 9.96875 10.0625 9.34375C11.1562 8.71875 11.4688 8.25 11.4688 8.25C11.4688 8.25 11.1562 7.78125 10.0625 7.15625C8.96875 6.53125 8.34375 6.375 8.34375 6.375Z" stroke="#A8A8A9" stroke-width="0.7" stroke-linecap="round" stroke-linejoin="round"/>
</svg>
