<svg width="36" height="37" viewBox="0 0 36 37" fill="none" xmlns="http://www.w3.org/2000/svg">
<rect y="0.833801" width="36" height="36" rx="12" fill="#CCFFEB" fill-opacity="0.5"/>
<path d="M18.0901 27.4938C17.7257 27.4925 17.3617 27.4692 17.0001 27.4238C15.0749 27.1731 13.2867 26.2928 11.9139 24.92C10.5411 23.5472 9.6608 21.759 9.41011 19.8338C9.12058 17.6579 9.66329 15.4529 10.9296 13.66C12.196 11.8671 14.0926 10.6184 16.2401 10.1638C16.4755 10.1103 16.7215 10.1273 16.9473 10.2127C17.1732 10.298 17.3689 10.448 17.5101 10.6438C17.6548 10.8465 17.7367 11.0873 17.7456 11.3363C17.7545 11.5852 17.69 11.8312 17.5601 12.0438C16.9498 13.0909 16.7169 14.3157 16.9001 15.5138C17.0699 16.6146 17.586 17.6327 18.3736 18.4203C19.1612 19.2078 20.1793 19.724 21.2801 19.8938C22.4795 20.0824 23.7071 19.8454 24.7501 19.2238C24.9646 19.0968 25.2117 19.0357 25.4606 19.0481C25.7096 19.0606 25.9494 19.146 26.1501 19.2938C26.3461 19.4325 26.4964 19.6263 26.5819 19.8507C26.6674 20.0751 26.6841 20.3198 26.6301 20.5538C26.2245 22.5175 25.1529 24.2809 23.5967 25.5455C22.0406 26.8101 20.0953 27.4984 18.0901 27.4938ZM16.0001 11.8338C14.7933 12.1884 13.6995 12.851 12.8262 13.7563C11.9529 14.6617 11.3302 15.7786 11.0193 16.9975C10.7083 18.2163 10.7198 19.4951 11.0527 20.7081C11.3855 21.9211 12.0283 23.0267 12.9177 23.9162C13.8072 24.8056 14.9127 25.4483 16.1258 25.7812C17.3388 26.1141 18.6176 26.1256 19.8364 25.8146C21.0553 25.5037 22.1722 24.881 23.0776 24.0077C23.9829 23.1344 24.6455 22.0406 25.0001 20.8338C24.0534 21.2953 23.0116 21.5286 21.9584 21.5148C20.9053 21.5011 19.87 21.2407 18.9356 20.7545C18.0012 20.2684 17.1938 19.57 16.5781 18.7155C15.9624 17.8609 15.5555 16.874 15.3901 15.8338C15.1796 14.4694 15.3925 13.0734 16.0001 11.8338Z" fill="#08C0D8"/>
</svg>
