<svg width="36" height="36" viewBox="0 0 36 36" fill="none" xmlns="http://www.w3.org/2000/svg">
<rect width="36" height="36" rx="12" fill="#E5CCFF" fill-opacity="0.5"/>
<path fill-rule="evenodd" clip-rule="evenodd" d="M16 8C15.6022 8 15.2206 8.15804 14.9393 8.43934C14.658 8.72064 14.5 9.10218 14.5 9.5H13C12.6022 9.5 12.2206 9.65804 11.9393 9.93934C11.658 10.2206 11.5 10.6022 11.5 11V25C11.5 25.3978 11.658 25.7794 11.9393 26.0607C12.2206 26.342 12.6022 26.5 13 26.5H19V25.5H13C12.8674 25.5 12.7402 25.4473 12.6464 25.3536C12.5527 25.2598 12.5 25.1326 12.5 25V11C12.5 10.8674 12.5527 10.7402 12.6464 10.6464C12.7402 10.5527 12.8674 10.5 13 10.5H14.5C14.5 10.8978 14.658 11.2794 14.9393 11.5607C15.2206 11.842 15.6022 12 16 12H20C20.3978 12 20.7794 11.842 21.0607 11.5607C21.342 11.2794 21.5 10.8978 21.5 10.5H23C23.1326 10.5 23.2598 10.5527 23.3536 10.6464C23.4473 10.7402 23.5 10.8674 23.5 11V18.5H24.5V11C24.5 10.6022 24.342 10.2206 24.0607 9.93934C23.7794 9.65804 23.3978 9.5 23 9.5H21.5C21.5 9.10218 21.342 8.72064 21.0607 8.43934C20.7794 8.15804 20.3978 8 20 8H16ZM15.5 9.5C15.5 9.36739 15.5527 9.24021 15.6464 9.14645C15.7402 9.05268 15.8674 9 16 9H20C20.1326 9 20.2598 9.05268 20.3536 9.14645C20.4473 9.24021 20.5 9.36739 20.5 9.5V10.5C20.5 10.6326 20.4473 10.7598 20.3536 10.8536C20.2598 10.9473 20.1326 11 20 11H16C15.8674 11 15.7402 10.9473 15.6464 10.8536C15.5527 10.7598 15.5 10.6326 15.5 10.5V9.5ZM17.5 15.5V14H18.5V15.5H20V16.5H18.5V18H17.5V16.5H16V15.5H17.5ZM19.5 20C19.5 19.8674 19.5527 19.7402 19.6464 19.6464C19.7402 19.5527 19.8674 19.5 20 19.5H26C26.1326 19.5 26.2598 19.5527 26.3536 19.6464C26.4473 19.7402 26.5 19.8674 26.5 20V23.3945C26.5 23.9707 26.3577 24.5379 26.0858 25.0459C25.814 25.5539 25.4209 25.9869 24.9415 26.3065L23.2775 27.4165C23.1953 27.4713 23.0988 27.5006 23 27.5006C22.9012 27.5006 22.8047 27.4713 22.7225 27.4165L21.0585 26.3065C20.5792 25.9869 20.1861 25.554 19.9143 25.0461C19.6424 24.5382 19.5001 23.9711 19.5 23.395V20ZM20.5 20.5V23.3945C20.5 23.8061 20.6017 24.2113 20.796 24.5741C20.9902 24.937 21.271 25.2462 21.6135 25.4745L23 26.4L24.3865 25.475C24.729 25.2467 25.0098 24.9375 25.204 24.5746C25.3983 24.2118 25.5 23.8066 25.5 23.395V20.5H20.5ZM22.8535 24.3535L24.8535 22.3535L24.1465 21.6465L22.5 23.293L21.8535 22.6465L21.1465 23.3535L22.1465 24.3535C22.2403 24.4472 22.3674 24.4999 22.5 24.4999C22.6326 24.4999 22.7597 24.4472 22.8535 24.3535Z" fill="#7F00FF"/>
</svg>
